<?xml version="1.0" standalone="no"?>
<!DOCTYPE svg PUBLIC "-//W3C//DTD SVG 1.1//EN" "http://www.w3.org/Graphics/SVG/1.1/DTD/svg11.dtd" >
<svg xmlns="http://www.w3.org/2000/svg" xmlns:xlink="http://www.w3.org/1999/xlink" version="1.1">
<metadata></metadata>
<defs>
<font id="benettonoblique" horiz-adv-x="1132" >
<font-face units-per-em="2048" ascent="1638" descent="-410" />
<missing-glyph horiz-adv-x="471" />
<glyph unicode="&#xfb01;" horiz-adv-x="999" d="M-20 -453l174 1217h-129l20 156h129l14 90q28 196 142 300.5t311 104.5q133 0 236 -47l-23 -160q-100 43 -211 43q-57 0 -99.5 -10t-72 -33.5t-48.5 -48.5t-32 -68.5t-20 -78t-15 -92.5h510l-131 -920h-182l109 764h-326l-174 -1217h-182z" />
<glyph unicode="&#xfb02;" horiz-adv-x="974" d="M-20 -453l174 1217h-129l20 156h129l23 147q27 185 139.5 266.5t308.5 81.5q146 0 289 -35l-197 -1380h-182l178 1243q-70 8 -102 8q-56 0 -97.5 -8.5t-69 -28.5t-45 -42.5t-28.5 -60t-17 -70.5t-13 -84q-3 -24 -5 -37h211l-22 -156h-209l-174 -1217h-182z" />
<glyph horiz-adv-x="0" />
<glyph horiz-adv-x="682" />
<glyph unicode=" "  horiz-adv-x="471" />
<glyph unicode="&#x09;" horiz-adv-x="471" />
<glyph unicode="&#xa0;" horiz-adv-x="471" />
<glyph unicode="!" horiz-adv-x="446" d="M20 90q0 54 40.5 95.5t95.5 41.5q50 0 81 -29t31 -81q0 -54 -40 -94.5t-95 -40.5q-50 0 -81.5 29t-31.5 79zM125 711q0 40 5.5 75.5t14.5 78t13 75.5l65 457h183l-66 -457q-3 -24 -9 -73.5t-11 -82t-13 -73.5l-65 -232l-35 -117h-80q0 59 -1 175.5t-1 173.5z" />
<glyph unicode="&#x22;" horiz-adv-x="561" d="M41 1167q0 14 6.5 59.5t16 104t10.5 66.5h180l-10 -76l-23 -154q-5 -18 -14 -41.5t-12 -31.5l-52 -146h-86q-1 12 -8.5 97t-7.5 122zM389 1167q0 14 6.5 59.5t16 104t10.5 66.5h180l-10 -76l-23 -154q-3 -14 -7 -25t-9.5 -24t-9.5 -24l-51 -146h-86q-1 16 -9 99t-8 120z " />
<glyph unicode="#" d="M59 403l21 142h194l93 262h-250l20 141h279l159 449h162l-157 -449h172l157 449h162l-158 -449h152l-21 -141h-180l-92 -262h236l-21 -142h-264l-143 -403h-162l141 403h-172l-141 -403h-162l141 403h-166zM436 545h172l92 262h-170z" />
<glyph unicode="$" d="M37 92l92 174q151 -100 322 -100q52 0 103.5 11.5t99.5 34.5t78 66t30 99q0 32 -10 61t-31 53.5t-41.5 43t-54 38.5t-55.5 31.5t-59 29t-52 25.5q-279 141 -279 381q0 86 34 156t92 115t131.5 71t156.5 31l29 203h184l-31 -211q133 -19 238 -80l-78 -170q-133 76 -295 76 q-47 0 -90.5 -11t-81 -33t-60 -60.5t-22.5 -88.5q0 -46 20 -84.5t54 -66.5t77.5 -53t92 -49.5t97 -50.5t92 -60.5t77.5 -75.5t54 -100t20 -129q0 -83 -32.5 -151.5t-89 -114.5t-126.5 -75t-150 -40l-28 -201h-183l29 197q-221 14 -354 108z" />
<glyph unicode="%" horiz-adv-x="1560" d="M123 -57l1143 1472h172l-1143 -1472h-172zM184 1073q0 146 101 244t247 98q132 0 214.5 -78t82.5 -209q0 -146 -102.5 -243t-249.5 -97q-129 0 -211 78.5t-82 206.5zM342 1085q0 -65 43 -105t109 -40q74 0 125 53t51 129q0 62 -43 102t-105 40q-75 0 -127.5 -52 t-52.5 -127zM778 266q0 145 101 243.5t247 98.5q132 0 214.5 -77.5t82.5 -208.5q0 -146 -102.5 -243t-247.5 -97q-129 0 -212 78t-83 206zM938 279q0 -65 42 -105.5t107 -40.5q76 0 127.5 52.5t51.5 127.5q0 62 -43 103t-107 41q-75 0 -126.5 -51.5t-51.5 -126.5z" />
<glyph unicode="&#x26;" horiz-adv-x="1296" d="M0 322q0 65 25 125t62 104.5t93 87.5t105 72t110 59q-114 142 -114 279q0 158 106.5 262t265.5 104q134 0 232 -72.5t98 -201.5q0 -60 -18 -113t-44.5 -91t-71.5 -76.5t-83 -63.5t-94 -58l202 -303q80 87 107 170h213q-71 -154 -221 -315l194 -291h-258l-96 147 q-88 -75 -202 -120t-226 -45q-166 0 -275.5 89t-109.5 251zM205 336q0 -77 62 -123.5t141 -46.5q87 0 160.5 31t152.5 92q-70 103 -229 348q-125 -64 -172 -99q-115 -87 -115 -202zM481 1085q0 -102 97 -211q38 23 55.5 34t54.5 38.5t56 49t35 53t16 63.5q0 63 -41.5 98 t-106.5 35q-72 0 -119 -44t-47 -116z" />
<glyph unicode="'" horiz-adv-x="212" d="M41 1167q0 14 6.5 59.5t16 104t10.5 66.5h180l-10 -76l-23 -154q-5 -18 -14 -41.5t-12 -31.5l-52 -146h-86q-1 12 -8.5 97t-7.5 122z" />
<glyph unicode="(" horiz-adv-x="653" d="M82 274q0 301 132.5 615t352.5 508h148q-170 -204 -270 -428.5t-138 -491.5q-18 -129 -18 -260q0 -183 39 -341.5t125 -315.5h-148q-110 130 -166.5 326t-56.5 388z" />
<glyph unicode=")" horiz-adv-x="632" d="M-205 -440q170 204 270 428t138 489q20 143 20 260q0 355 -166 660h150q110 -130 165.5 -326t55.5 -389q0 -197 -58 -405t-169 -398t-256 -319h-150z" />
<glyph unicode="*" horiz-adv-x="829" d="M41 918l301 90l6 45l-276 90l102 139l193 -203l41 23l-23 295h162l-107 -295l35 -23l252 205l61 -139l-301 -92l-6 -43l275 -90l-101 -142l-194 203l-41 -23l24 -294h-161l106 294l-35 23l-252 -205z" />
<glyph unicode="+" d="M111 639l24 168h359l57 399h168l-57 -399h358l-25 -168h-358l-55 -399h-168l55 399h-358z" />
<glyph unicode="," horiz-adv-x="419" d="M-41 -242l6 39q53 26 90.5 77t44.5 108q-43 0 -72.5 33t-29.5 77q0 56 38 95.5t93 39.5q60 0 93.5 -42.5t33.5 -104.5q0 -114 -90 -206.5t-207 -115.5z" />
<glyph unicode="-" horiz-adv-x="768" d="M82 416l24 168h498l-24 -168h-498z" />
<glyph unicode="." horiz-adv-x="411" d="M0 90q0 55 40 96t95 41q51 0 82 -29.5t31 -80.5q0 -54 -40 -94.5t-95 -40.5q-50 0 -81.5 29t-31.5 79z" />
<glyph unicode="/" horiz-adv-x="847" d="M-123 -55l1079 1470h179l-1080 -1470h-178z" />
<glyph unicode="0" d="M82 586q0 67 9 141.5t29.5 155.5t49.5 156.5t72.5 144.5t96 120t122 81t147.5 30q95 0 172 -36t126.5 -95t83 -138.5t47.5 -162t14 -170.5q0 -80 -13 -169t-39 -183.5t-70.5 -179t-101.5 -152t-137.5 -107.5t-173.5 -40q-95 0 -171 37t-124 97t-80.5 140.5t-45.5 162 t-13 167.5zM299 565q0 -50 4 -97t18.5 -104.5t37.5 -99t65 -70t98 -28.5q51 0 96 31t75 76.5t55 106t38.5 110t22.5 96.5q22 110 22 243q0 50 -4 96.5t-18 105t-36.5 100.5t-64.5 71t-98 29q-69 0 -125.5 -53t-90 -131t-56 -173t-31 -172.5t-8.5 -136.5z" />
<glyph unicode="1" d="M342 1104l6 43l391 242h49l-198 -1397h-201l160 1112h-207z" />
<glyph unicode="2" d="M0 0l10 66l471 522q5 5 40.5 43t48 52.5t43.5 51.5t44.5 60t32 56.5t26 63.5t7.5 60q0 128 -90 192t-223 64q-97 0 -211 -43l26 192q119 35 217 35q97 0 186 -29t159 -82t111.5 -136t41.5 -183q0 -32 -6 -64.5t-12 -58t-23.5 -60t-26 -53.5t-35.5 -55.5t-35 -49 t-42.5 -52t-40 -45.5l-44 -48t-40.5 -44q-188 -211 -254 -281h528l-24 -174h-885z" />
<glyph unicode="3" d="M49 20l27 187q134 -41 274 -41q59 0 118.5 14.5t113 43t87 78.5t33.5 114q0 71 -42 122t-102.5 73t-129.5 22h-74l25 174h76q53 0 104.5 10.5t99.5 33.5t77.5 66t29.5 101q0 59 -26 102t-70 66.5t-93 34t-104 10.5q-118 0 -221 -39l24 186q119 39 242 39q117 0 218 -41.5 t168 -129.5t67 -208q0 -123 -71.5 -210t-192.5 -117v-9q95 -28 147.5 -109t52.5 -185q0 -103 -46.5 -186t-123 -134.5t-168.5 -78.5t-190 -27q-196 0 -330 38z" />
<glyph unicode="4" d="M41 371l16 116l754 928h172l-125 -870h150l-25 -174h-149l-54 -371h-200l53 371h-592zM332 545h325l70 483h-6l-387 -477z" />
<glyph unicode="5" d="M86 20l27 185q136 -39 249 -39q70 0 135 15.5t121.5 48t90.5 89.5t34 132q0 64 -30 113.5t-79.5 77.5t-106 42t-117.5 14q-118 0 -205 -34l104 733h735l-24 -174h-535l-51 -363q46 8 70 8q195 0 320.5 -113.5t125.5 -305.5q0 -116 -47.5 -208t-128 -147t-179.5 -83.5 t-210 -28.5q-194 0 -299 38z" />
<glyph unicode="6" d="M127 442q0 118 34 233t95.5 216.5t138 189.5t170.5 166q131 109 246 170l111 -160q-162 -94 -301 -227t-213 -282q94 59 204 59q164 0 278 -112t114 -275q0 -188 -123.5 -313t-311.5 -125q-206 0 -324 126.5t-118 333.5zM328 438q0 -69 26 -130t79.5 -101.5t123.5 -40.5 q101 0 169.5 69.5t68.5 170.5q0 103 -66 164t-170 61q-123 0 -217 -66q-14 -72 -14 -127z" />
<glyph unicode="7" d="M102 59l682 1155h-589l24 175h889l-6 -33l-815 -1383z" />
<glyph unicode="8" d="M82 360q0 107 49 191.5t141 138.5q54 30 86 37v6q-73 45 -116 119.5t-43 159.5q0 182 128 292.5t314 110.5q113 0 207.5 -41.5t154.5 -126.5t60 -200q0 -216 -178 -312q-17 -9 -74 -30v-7q85 -47 135.5 -125.5t50.5 -171.5q0 -136 -65.5 -232.5t-171.5 -141.5t-240 -45 q-82 0 -160 26.5t-140 73.5t-100 120t-38 158zM291 377q0 -96 68 -150.5t165 -54.5q105 0 186 64t81 165q0 98 -67.5 160t-166.5 62q-106 0 -186 -70.5t-80 -175.5zM406 989q0 -86 61 -138t149 -52q101 0 169.5 63.5t68.5 163.5q0 86 -61.5 141.5t-149.5 55.5 q-100 0 -168.5 -67.5t-68.5 -166.5z" />
<glyph unicode="9" d="M123 989q0 184 124.5 305t309.5 121q208 0 325 -128.5t117 -338.5q0 -221 -118.5 -423t-309.5 -367q-123 -107 -256 -178l-110 159q163 95 302.5 228.5t211.5 281.5q-94 -59 -205 -59q-168 0 -279.5 114.5t-111.5 284.5zM332 981q0 -97 69 -156t168 -59q123 0 215 65 q15 77 15 127q0 106 -64 189.5t-166 83.5q-104 0 -170.5 -72.5t-66.5 -177.5z" />
<glyph unicode=":" horiz-adv-x="514" d="M0 90q0 55 40 96t95 41q51 0 82 -29.5t31 -80.5q0 -54 -40 -94.5t-95 -40.5q-50 0 -81.5 29t-31.5 79zM100 801q0 54 41 95.5t95 41.5q52 0 83 -29.5t31 -81.5q0 -54 -40.5 -94.5t-94.5 -40.5q-51 0 -83 29.5t-32 79.5z" />
<glyph unicode=";" horiz-adv-x="505" d="M-41 -242l6 39q53 26 90.5 77t44.5 108q-43 0 -72.5 33t-29.5 77q0 56 38 95.5t93 39.5q60 0 93.5 -42.5t33.5 -104.5q0 -114 -90 -206.5t-207 -115.5zM94 801q0 55 40 96t95 41q52 0 82.5 -29.5t30.5 -81.5q0 -54 -40 -94.5t-95 -40.5q-50 0 -81.5 29.5t-31.5 79.5z" />
<glyph unicode="&#x3c;" horiz-adv-x="1054" d="M41 623l25 168l989 413l-27 -178l-772 -317v-2l682 -320l-27 -178z" />
<glyph unicode="=" d="M82 399l24 168h885l-24 -168h-885zM145 844l25 168h885l-25 -168h-885z" />
<glyph unicode="&#x3e;" horiz-adv-x="1054" d="M0 209l25 178l751 320l2 2l-661 317l24 178l852 -413l-24 -168z" />
<glyph unicode="?" horiz-adv-x="804" d="M0 1192l27 184q118 39 256 39q88 0 165 -21.5t139.5 -64.5t99 -114.5t36.5 -163.5q0 -62 -22 -119.5t-57.5 -103t-79 -88.5t-89 -82.5t-84 -77.5t-67.5 -81t-37 -85l-6 -52h-195q4 32 8 48q12 72 49 137t83 110.5t97 93t92.5 87t69 91t27.5 105.5q0 52 -28 91.5 t-72.5 61.5t-92.5 33t-96 11q-114 0 -223 -39zM37 92q0 54 40.5 94.5t94.5 40.5q50 0 81.5 -29t31.5 -79q0 -54 -39.5 -95.5t-93.5 -41.5q-52 0 -83.5 29t-31.5 81z" />
<glyph unicode="@" horiz-adv-x="2058" d="M41 410q0 232 102 444q91 194 243.5 333.5t345.5 211t409 71.5q158 0 294.5 -40.5t253 -133.5t181.5 -233q65 -142 65 -301q0 -183 -59 -340q-33 -88 -85 -166t-120.5 -140.5t-156 -99t-181.5 -36.5q-145 0 -196 110q-15 30 -15 60h-12q-63 -77 -151.5 -122.5 t-184.5 -45.5q-175 0 -265.5 106.5t-90.5 284.5q0 117 47.5 240t126 223.5t192 164.5t234.5 64q100 0 178.5 -44t112.5 -132h6l55 147h176l-182 -510q-62 -164 -78 -217q-12 -36 -12 -57q0 -49 31 -80t79 -31q84 0 164 66q113 89 167 240t54 315q0 123 -51 237 q-78 172 -234.5 255t-359.5 83q-146 0 -285.5 -48.5t-252.5 -136t-199 -202t-133 -254.5t-47 -286q0 -158 59 -297q60 -143 166 -240t238.5 -141.5t290.5 -44.5q160 0 316.5 42t278.5 126l-22 -160q-121 -70 -273 -107t-298 -37q-144 0 -271 29t-238.5 88.5t-199.5 158 t-143 230.5q-70 173 -70 353zM600 362q0 -105 48 -170t151 -65q82 0 162.5 58.5t136 144t89.5 181.5t34 173q0 108 -52 172t-157 64q-85 0 -164.5 -58t-132 -143.5t-84 -181.5t-31.5 -175z" />
<glyph unicode="A" horiz-adv-x="1234" d="M-205 0l801 1405h143l435 -1405h-207l-129 412h-594l-234 -412h-215zM344 586h440l-155 512z" />
<glyph unicode="B" horiz-adv-x="1157" d="M20 0l199 1397h383q93 0 172.5 -21.5t143.5 -64.5t100.5 -116t36.5 -169q0 -116 -60 -195.5t-170 -117.5l-2 -6q108 -35 164.5 -117t56.5 -197q0 -81 -29 -147.5t-77.5 -111.5t-113.5 -75.5t-135.5 -44.5t-145.5 -14h-523zM246 174h254q59 0 114.5 12t106.5 37.5t82 73 t31 111.5q0 58 -24 101t-65.5 67t-89.5 35.5t-102 11.5h-244zM334 795h190q59 0 112 10.5t103 34.5t79.5 69.5t29.5 108.5q0 73 -39 121t-95.5 66t-129.5 18h-189z" />
<glyph unicode="C" horiz-adv-x="1251" d="M41 662q0 168 68 319q67 148 188 247.5t265 143t310 43.5q212 0 400 -72l-29 -190q-183 78 -366 78q-126 0 -240 -41.5t-199.5 -115.5t-135.5 -184t-50 -239q0 -220 141.5 -352.5t362.5 -132.5q200 0 356 72l-29 -203q-143 -53 -327 -53q-205 0 -366.5 81.5t-255 237 t-93.5 361.5z" />
<glyph unicode="D" horiz-adv-x="1460" d="M20 0l199 1397h436q115 0 217 -23.5t187.5 -72.5t147 -119.5t96 -169.5t34.5 -217q0 -151 -49.5 -281t-136.5 -223t-203.5 -159.5t-251 -99t-278.5 -32.5h-398zM246 174h151q102 0 199 20.5t186.5 61t164 109t122.5 157.5q61 113 61 250q0 113 -39.5 200.5t-110 141.5 t-162.5 81.5t-202 27.5h-221z" />
<glyph unicode="E" horiz-adv-x="1032" d="M20 0l199 1397h793l-25 -174h-592l-59 -418h538l-24 -172h-539l-65 -459h610l-25 -174h-811z" />
<glyph unicode="F" horiz-adv-x="991" d="M20 0l199 1397h793l-25 -174h-592l-59 -418h538l-24 -172h-539l-90 -633h-201z" />
<glyph unicode="G" horiz-adv-x="1415" d="M41 672q0 170 65.5 311.5t177.5 235t260 145t314 51.5q224 0 414 -72l-29 -190q-183 78 -371 78q-167 0 -308 -71t-226.5 -204.5t-85.5 -302.5q0 -227 144 -357t374 -130q112 0 217 27l49 335h-311l25 172h512l-93 -639q-203 -79 -411 -79q-209 0 -371 83t-254 240.5 t-92 366.5z" />
<glyph unicode="H" horiz-adv-x="1505" d="M20 0l199 1397h201l-84 -592h782l84 592h201l-199 -1397h-200l90 633h-783l-90 -633h-201z" />
<glyph unicode="I" horiz-adv-x="522" d="M20 0l199 1397h201l-199 -1397h-201z" />
<glyph unicode="J" horiz-adv-x="874" d="M-164 61l76 164q115 -59 213 -59q133 0 212 79.5t99 215.5l135 936h201l-135 -942q-32 -225 -154.5 -349t-343.5 -124q-185 0 -303 79z" />
<glyph unicode="K" horiz-adv-x="1216" d="M20 0l199 1397h201l-90 -639l667 639h260l-718 -680l594 -717h-242l-572 690l-98 -690h-201z" />
<glyph unicode="L" horiz-adv-x="905" d="M20 0l199 1397h201l-174 -1223h577l-24 -174h-779z" />
<glyph unicode="M" horiz-adv-x="1689" d="M20 0l199 1397h184l398 -709l583 709h203l-201 -1397h-200l151 1063h-4l-553 -655h-32l-371 655h-4l-152 -1063h-201z" />
<glyph unicode="N" horiz-adv-x="1542" d="M20 0l199 1397h195l667 -1106l158 1106h201l-199 -1397h-201l-661 1100l-158 -1100h-201z" />
<glyph unicode="O" horiz-adv-x="1597" d="M41 659q0 162 55.5 302.5t154 240t238 156.5t302.5 57q312 0 498 -184t186 -496q0 -216 -95 -387.5t-266.5 -268.5t-388.5 -97q-311 0 -497.5 183.5t-186.5 493.5zM252 633q0 -217 130.5 -342t348.5 -125q121 0 223 49t169.5 131.5t105 189.5t37.5 224q0 218 -131 344.5 t-351 126.5q-160 0 -283.5 -85t-186 -219.5t-62.5 -293.5z" />
<glyph unicode="P" horiz-adv-x="1177" d="M20 0l199 1397h449q91 0 170 -21.5t142 -64t99.5 -115t36.5 -166.5q0 -106 -45 -189.5t-120 -134t-167 -76.5t-192 -26h-285l-86 -604h-201zM332 778h254q57 0 112.5 14.5t104 43.5t78.5 77.5t30 110.5q0 100 -73.5 150.5t-178.5 50.5h-264z" />
<glyph unicode="Q" horiz-adv-x="1597" d="M41 657q0 218 94.5 390.5t266 270t389.5 97.5q312 0 498 -184t186 -496q0 -310 -193 -524l96 -115l-139 -114l-96 114q-178 -114 -418 -114q-309 0 -496.5 183.5t-187.5 491.5zM252 643q0 -223 129.5 -350t351.5 -127q156 0 281 82l-107 127l140 114l98 -114 q121 165 121 385q0 217 -130.5 344t-349.5 127q-159 0 -282.5 -82.5t-187.5 -215.5t-64 -290z" />
<glyph unicode="R" horiz-adv-x="1159" d="M20 0l199 1397h402q72 0 137 -13t124 -41t102 -70t68 -104.5t25 -138.5q0 -144 -89.5 -250.5t-231.5 -144.5l311 -635h-219l-291 604h-250l-86 -604h-201zM332 778h203q58 0 115 14t108 41.5t82.5 76.5t31.5 112q0 102 -69.5 151.5t-175.5 49.5h-232z" />
<glyph unicode="S" horiz-adv-x="978" d="M-82 92l92 174q70 -46 156 -73t168 -27q51 0 102.5 11.5t99 34.5t77.5 66t30 99q0 32 -10 61t-31 53.5t-41.5 43t-54 38.5t-55.5 31.5t-59 29t-52 25.5q-277 140 -277 381q0 93 39 166.5t105 118t147 67.5t170 23q223 0 373 -90l-78 -170q-133 76 -295 76 q-47 0 -90.5 -11t-81 -33t-60 -60.5t-22.5 -88.5q0 -46 20 -84.5t53.5 -66.5t77 -53.5t92 -50t97 -50.5t92 -61t77 -76t53.5 -100t20 -129q0 -79 -29.5 -144.5t-78.5 -109.5t-114.5 -74t-135.5 -43.5t-144 -13.5q-275 0 -432 110z" />
<glyph unicode="T" horiz-adv-x="1030" d="M41 1223l25 174h1005l-24 -174h-394l-176 -1223h-201l177 1223h-412z" />
<glyph unicode="U" horiz-adv-x="1525" d="M102 496q0 70 9 131q34 236 110 770h201l-117 -815q-6 -40 -6 -90q0 -79 31.5 -143.5t83 -103t113 -59t124.5 -20.5q189 0 308 110t147 308l117 813h200l-123 -858q-17 -117 -62.5 -215.5t-122 -176t-193.5 -121.5t-263 -44q-115 0 -215 33t-177 96t-121 162t-44 223z " />
<glyph unicode="V" horiz-adv-x="1175" d="M20 1397h205l273 -971l538 971h221l-792 -1409h-41z" />
<glyph unicode="W" horiz-adv-x="1849" d="M20 1397h205l211 -959l514 959h47l244 -938l475 938h215l-723 -1409h-49l-239 966l-531 -966h-49z" />
<glyph unicode="X" horiz-adv-x="1218" d="M-184 0l655 723l-367 674h226l272 -516l422 516h236l-558 -674l433 -723h-240l-324 561l-510 -561h-245z" />
<glyph unicode="Y" horiz-adv-x="1116" d="M20 1397h218l286 -647l467 647h228l-611 -836l-80 -561h-200l82 563z" />
<glyph unicode="Z" horiz-adv-x="1202" d="M-123 0l4 35l942 1196h-739l25 166h1073l-6 -43l-930 -1180h792l-26 -174h-1135z" />
<glyph unicode="[" horiz-adv-x="612" d="M0 -453l264 1850h430l-24 -174h-234l-215 -1502h236l-25 -174h-432z" />
<glyph unicode="\" horiz-adv-x="524" d="M0 1415h164l196 -1433h-163z" />
<glyph unicode="]" horiz-adv-x="612" d="M-205 -453l25 174h235l213 1502h-233l24 174h430l-262 -1850h-432z" />
<glyph unicode="^" d="M123 596l469 801h145l240 -801h-178l-158 592h-8l-322 -592h-188z" />
<glyph unicode="_" horiz-adv-x="1021" d="M-20 -256l14 102h1048l-14 -102h-1048z" />
<glyph unicode="`" horiz-adv-x="299" d="M0 1339h205l94 -301h-113z" />
<glyph unicode="a" horiz-adv-x="993" d="M0 397q0 105 51 217q73 157 210 240.5t312 83.5q187 0 318 -70l-123 -868h-170l6 96q-41 -55 -104 -84.5t-133 -29.5q-87 0 -157.5 34t-115.5 91.5t-69.5 132t-24.5 157.5zM193 406q0 -119 58 -189t175 -70q112 0 192 86l74 519q-48 22 -129 22q-154 0 -262 -106.5 t-108 -261.5z" />
<glyph unicode="b" horiz-adv-x="1007" d="M0 51l193 1346h182l-78 -539q86 80 213 80q169 0 272 -120t103 -292q0 -153 -70 -278t-194 -195.5t-277 -70.5q-191 0 -344 69zM199 168q74 -23 151 -23q151 0 249.5 111.5t98.5 265.5q0 109 -63.5 180.5t-171.5 71.5q-55 0 -98.5 -19.5t-90.5 -58.5z" />
<glyph unicode="c" horiz-adv-x="851" d="M0 391q0 240 150.5 393.5t390.5 153.5q128 0 250 -53l-25 -164q-98 53 -205 53q-166 0 -269.5 -103.5t-103.5 -267.5q0 -116 74 -187t191 -71q127 0 247 60l-26 -182q-105 -41 -242 -41q-182 0 -307 114t-125 295z" />
<glyph unicode="d" horiz-adv-x="1009" d="M0 403q0 151 74 270t198.5 183t274.5 64h172l67 477h183l-195 -1377q-123 -38 -293 -38q-93 0 -179 29t-153.5 81.5t-108 133t-40.5 177.5zM188 412q0 -118 81 -192.5t200 -74.5q69 0 143 19l86 600h-123q-103 0 -190.5 -42t-142 -123.5t-54.5 -186.5z" />
<glyph unicode="e" horiz-adv-x="970" d="M0 393q0 107 36.5 206t100.5 174t158.5 120t204.5 45q160 0 254 -95.5t94 -256.5q0 -73 -21 -166h-639v-19v-11q0 -108 72 -175q76 -70 197 -70q126 0 243 60l-26 -182q-107 -41 -246 -41q-181 0 -304.5 115.5t-123.5 295.5zM213 547h451q2 12 2 35q0 84 -49 138t-132 54 q-74 0 -136.5 -42t-104.5 -111q-25 -47 -31 -74z" />
<glyph unicode="f" horiz-adv-x="563" d="M-20 -453l174 1217h-129l20 156h129q14 100 27 174q23 152 120 236.5t250 84.5q82 0 156 -33l-20 -147q-63 25 -117 25q-34 0 -62 -6t-49 -19.5t-37 -27.5t-27.5 -38t-19 -42.5t-14 -49.5t-10 -50.5t-8 -54.5t-7.5 -52h211l-22 -156h-209l-174 -1217h-182z" />
<glyph unicode="g" horiz-adv-x="882" d="M-164 -190q0 95 72.5 159.5t173.5 85.5q-53 27 -53 111q0 63 49 100t119 51l2 2q-172 82 -172 267q0 79 34.5 144t91.5 105.5t128 62.5t147 22h434l-22 -158l-176 12q61 -58 61 -178q0 -73 -26.5 -130t-74 -94t-105.5 -59t-128 -32q-4 0 -20 -2t-25 -3t-26 -3.5 t-27.5 -5.5t-25.5 -8t-24.5 -11t-18.5 -14t-13 -18.5t-4 -22.5q0 -25 27.5 -43t71.5 -29t97 -22.5t106 -30t97 -44.5t71.5 -72t27.5 -108q0 -73 -43 -135q-43 -66 -121 -108t-156 -57t-164 -15q-71 0 -136 14.5t-122.5 45.5t-92 88t-34.5 133zM10 -172q0 -44 24.5 -76 t64 -48t78.5 -23t79 -7q34 0 75 6.5t86 21t75 43.5t30 67q0 23 -13 43t-39 35.5t-51 27t-63.5 22t-60.5 16t-59 13t-43 8.5q-30 -8 -58.5 -19.5t-58.5 -29.5t-48 -44t-18 -56zM197 575q0 -72 43 -109.5t116 -37.5q78 0 141.5 53.5t63.5 130.5q0 74 -42.5 113t-117.5 39 q-79 0 -141.5 -55t-62.5 -134z" />
<glyph unicode="h" horiz-adv-x="1015" d="M0 0l199 1397h182l-82 -572q120 113 254 113q133 0 216 -88.5t83 -222.5q0 -66 -10 -148l-68 -479h-182l65 471q2 13 7 41t7.5 49.5t2.5 40.5q0 81 -47 126.5t-127 45.5q-112 0 -221 -102l-97 -672h-182z" />
<glyph unicode="i" horiz-adv-x="434" d="M0 0l131 920h182l-131 -920h-182zM152 1192q0 49 33 82t83 33q44 0 74.5 -29t30.5 -74q0 -47 -34 -80.5t-81 -33.5q-46 0 -76 29t-30 73z" />
<glyph unicode="j" horiz-adv-x="477" d="M-266 -457l22 158q33 -10 64 -10q89 0 142 53.5t65 144.5l147 1031h182l-151 -1067q-22 -153 -120 -238.5t-251 -85.5q-54 0 -100 14zM195 1192q0 49 34 82t82 33q45 0 75 -29t30 -74q0 -47 -34 -80.5t-81 -33.5q-45 0 -75.5 29t-30.5 73z" />
<glyph unicode="k" horiz-adv-x="925" d="M0 0l199 1397h182l-199 -1397h-182zM258 469l444 451h224l-455 -453l401 -467h-221z" />
<glyph unicode="l" horiz-adv-x="442" d="M0 0l199 1397h182l-199 -1397h-182z" />
<glyph unicode="m" horiz-adv-x="1581" d="M0 0l131 920h160l-8 -111q71 66 130.5 97.5t141.5 31.5q138 0 217 -109q24 -41 25 -47q79 81 144 118.5t159 37.5q146 0 231.5 -85t85.5 -230q0 -66 -10 -144l-70 -479h-182l72 502q10 82 10 98q0 81 -40.5 127.5t-121.5 46.5q-42 0 -86.5 -23t-70.5 -45.5t-66 -62.5 l-92 -643h-182q8 52 32.5 234t40.5 280q11 80 11 88q0 73 -42 122.5t-114 49.5q-44 0 -88.5 -19.5t-73 -41t-70.5 -58.5l-92 -655h-182z" />
<glyph unicode="n" horiz-adv-x="995" d="M0 0l131 920h160l-8 -109q142 127 270 127q135 0 217 -87t82 -222q0 -74 -4 -109q-14 -103 -43.5 -300.5t-32.5 -219.5h-182q71 482 80 557q4 28 4 45q0 81 -43.5 126.5t-124.5 45.5q-22 0 -44.5 -5t-37.5 -10t-40 -19t-34 -20t-37 -25t-34 -23l-97 -672h-182z" />
<glyph unicode="o" horiz-adv-x="1054" d="M0 406q0 228 145 380t371 152q194 0 305 -116t111 -310q0 -225 -145.5 -377.5t-368.5 -152.5q-192 0 -305 115.5t-113 308.5zM190 422q0 -124 63.5 -200.5t186.5 -76.5q91 0 161.5 53.5t105 134t34.5 169.5q0 122 -64 197t-183 75q-90 0 -161 -52t-107 -131.5t-36 -168.5 z" />
<glyph unicode="p" horiz-adv-x="1017" d="M-82 -471l199 1391h266q99 0 189 -26.5t163 -77t116.5 -133.5t43.5 -187q0 -135 -56.5 -251.5t-165 -189.5t-245.5 -73q-151 0 -250 96l-78 -549h-182zM197 205q88 -60 194 -60q138 0 226 101t88 241q0 124 -88 200.5t-214 76.5h-127z" />
<glyph unicode="q" horiz-adv-x="1034" d="M0 395q0 124 50.5 225.5t135.5 166t193.5 99t228.5 34.5h303l-198 -1391h-183l76 534q-93 -81 -219 -81q-176 0 -281.5 117t-105.5 296zM193 406q0 -119 64 -190t183 -71q93 0 187 60l80 559h-127q-162 0 -274.5 -99t-112.5 -259z" />
<glyph unicode="r" horiz-adv-x="739" d="M0 0l131 920h172l-12 -138h4q127 156 309 156q60 0 115 -18l-27 -191q-73 45 -157 45q-52 0 -105 -28t-86 -59t-76 -79l-86 -608h-182z" />
<glyph unicode="s" horiz-adv-x="802" d="M-31 53l25 174q144 -84 285 -84q30 0 60 4.5t62 15.5t52 34t20 55t-24 56.5t-62.5 41t-85 33t-93 39.5t-85 53.5t-62.5 81t-24 115.5q0 72 31.5 126t85 83t114 43t129.5 14q160 0 293 -61l-24 -168q-123 69 -271 69q-37 0 -71.5 -7.5t-64.5 -32t-30 -62.5q0 -73 107 -111 q10 -4 43.5 -16.5t47 -17.5t44 -18t45 -21.5t39.5 -24t37.5 -29t29 -33t24.5 -39.5t14 -46t6 -54q0 -73 -36 -130t-95 -89.5t-125 -48.5t-134 -16q-165 0 -307 71z" />
<glyph unicode="t" horiz-adv-x="655" d="M-20 764l2 20l378 316h9l-25 -180h270l-22 -156h-270q-5 -39 -29 -195t-33 -239q-4 -32 -4 -47q0 -65 33.5 -101.5t97.5 -36.5q80 0 158 45l-25 -163q-88 -45 -166 -45q-280 0 -280 280q0 32 8 98l57 404h-159z" />
<glyph unicode="u" horiz-adv-x="997" d="M20 301q0 51 9 100q9 80 73 519h183q-72 -493 -80 -555q-2 -14 -2 -46q0 -84 45 -129t129 -45q118 0 219 101l96 674h182l-131 -920h-161l8 106q-62 -61 -125 -92.5t-141 -31.5q-139 0 -221.5 89.5t-82.5 229.5z" />
<glyph unicode="v" horiz-adv-x="884" d="M0 920h195l167 -588h3l327 588h193l-525 -938h-86z" />
<glyph unicode="w" horiz-adv-x="1343" d="M0 911h190l142 -557h10l266 557h117l135 -557h10l279 557h194l-487 -938h-74l-155 602h-2l-295 -602h-74z" />
<glyph unicode="x" horiz-adv-x="835" d="M-184 0l438 487l-217 433h201l145 -295l242 295h211l-357 -416l252 -504h-199l-180 365l-313 -365h-223z" />
<glyph unicode="y" horiz-adv-x="974" d="M-20 -471l280 481l-248 910h197l178 -691h8l367 691h213l-785 -1391h-210z" />
<glyph unicode="z" horiz-adv-x="835" d="M-102 0l8 47l567 717h-465l23 156h764l-7 -48l-569 -716h490l-23 -156h-788z" />
<glyph unicode="{" horiz-adv-x="649" d="M41 395l22 154h11q96 0 156 69.5t73 169.5l43 295q22 153 111.5 233.5t240.5 80.5h115l-25 -174h-90q-55 0 -91.5 -14.5t-57 -47t-30 -66.5t-17.5 -91l-33 -228q-16 -114 -80 -199t-170 -104v-2q83 -14 125.5 -79.5t42.5 -155.5q0 -64 -22.5 -191t-22.5 -192 q0 -29 5.5 -50.5t13.5 -36t24 -24t28 -14t36 -6.5t38 -2t43 0.5t43 0.5l-24 -174h-115q-126 0 -197 59.5t-71 184.5q0 35 6 70l41 295q4 18 4 53q0 88 -45 137t-131 49z" />
<glyph unicode="|" horiz-adv-x="505" d="M-20 -512l288 2048h156l-289 -2048h-155z" />
<glyph unicode="}" horiz-adv-x="690" d="M-246 -453l25 174h90q55 0 92 15t57.5 47.5t30 67t17.5 90.5l32 227q16 114 80 199t170 104v2q-83 14 -125.5 80t-42.5 156q0 64 22.5 193.5t22.5 195.5q0 31 -6 54t-21 36.5t-28 21.5t-39.5 11t-41.5 3.5t-48.5 -0.5t-46.5 -1l24 174h115q125 0 196.5 -59t71.5 -183 q0 -35 -6 -72l-41 -295q-4 -18 -4 -53q0 -88 45 -137t131 -49l-22 -154h-10q-96 0 -156.5 -69.5t-73.5 -169.5l-43 -295q-22 -153 -111.5 -233.5t-240.5 -80.5h-115z" />
<glyph unicode="~" horiz-adv-x="1372" d="M82 444l24 172q175 91 306 91q67 0 137.5 -24.5t122 -53.5t118 -53.5t125.5 -24.5q117 0 293 100l-24 -172q-173 -92 -312 -92q-62 0 -131 24.5t-120 53.5t-117.5 53.5t-124.5 24.5q-25 0 -47.5 -2t-47 -9t-39.5 -11t-42.5 -17t-37.5 -17.5t-42.5 -21.5t-40.5 -21z" />
<glyph unicode="&#xa1;" horiz-adv-x="509" d="M0 -377l66 457q4 29 9 75t10 80.5t13 73.5l68 232l33 116h80q0 -59 1 -174t1 -174q0 -40 -5.5 -75.5t-14.5 -78t-13 -75.5l-66 -457h-182zM137 901q0 55 40 96t95 41q52 0 83.5 -29t31.5 -79q0 -56 -40.5 -96.5t-96.5 -40.5q-49 0 -81 29t-32 79z" />
<glyph unicode="&#xa2;" d="M172 391q0 210 118.5 359.5t323.5 181.5l31 217h182l-30 -217q100 -18 164 -47l-23 -164q-101 53 -207 53q-164 0 -268.5 -103.5t-104.5 -267.5q0 -116 75 -187t192 -71q128 0 245 60l-24 -182q-72 -28 -184 -39l-29 -211h-184l32 223q-140 37 -224.5 144t-84.5 251z" />
<glyph unicode="&#xa3;" d="M82 0l24 174h95l155 459h-176l27 172h209l35 98q183 512 555 512q91 0 170 -37l-25 -174q-61 27 -145 27q-130 0 -216 -80t-133 -213q-9 -25 -26 -74t-21 -59h248l-24 -172h-283l-156 -459h600l-24 -174h-889z" />
<glyph unicode="&#xa5;" d="M41 322l20 137h365l14 104l-16 51h-342l20 138h271l-279 645h232l243 -647l426 647h213l-428 -645h248l-20 -138h-328l-39 -53l-14 -102h360l-20 -137h-361l-45 -322h-201l46 322h-365z" />
<glyph unicode="&#xa6;" horiz-adv-x="505" d="M-20 -512l131 928h155l-131 -928h-155zM139 616l129 920h156l-129 -920h-156z" />
<glyph unicode="&#xa7;" horiz-adv-x="1079" d="M41 -397l22 157q128 -75 226 -75q89 0 149 48.5t60 135.5q0 60 -42 123t-101.5 120.5t-119 118.5t-101.5 140.5t-42 163.5q0 115 59.5 208t161.5 158q-39 73 -39 150q0 169 115 266.5t287 97.5q142 0 239 -47l-22 -158q-133 74 -225 74q-89 0 -149 -48.5t-60 -135.5 q0 -44 22.5 -89.5t58 -86t79 -82.5t86.5 -87t78.5 -92t58 -105t22.5 -118q0 -231 -221 -372q39 -73 39 -152q0 -110 -56 -193.5t-146 -126t-199 -42.5q-139 0 -240 49zM279 584q0 -28 8 -56t15.5 -46t30 -47.5t31 -39t39.5 -42.5t35 -38q82 -86 119 -129q121 94 121 207 q0 27 -8 54t-17 45.5t-30 45t-31.5 38.5t-38.5 40.5t-35 36.5q-3 3 -49.5 53.5t-69.5 77.5q-120 -97 -120 -200z" />
<glyph unicode="&#xa8;" horiz-adv-x="577" d="M0 1182q0 46 29 75t75 29q37 0 64 -25t27 -61q0 -47 -29.5 -75.5t-75.5 -28.5q-38 0 -64 24t-26 62zM381 1182q0 46 29.5 75t76.5 29q36 0 63.5 -25t27.5 -61q0 -47 -29.5 -75.5t-77.5 -28.5q-38 0 -64 24t-26 62z" />
<glyph unicode="&#xa9;" horiz-adv-x="1878" d="M205 639q0 160 61 304t164.5 247.5t247.5 164t303 60.5q140 0 264 -47.5t214 -131t142 -205t52 -263.5q0 -217 -102.5 -397.5t-282 -284.5t-396.5 -104q-191 0 -343 83t-238 233t-86 341zM319 643q0 -245 151.5 -397t397.5 -152q133 0 256 51.5t214 138.5t145.5 209 t54.5 257q0 248 -152 400.5t-399 152.5q-180 0 -333.5 -87.5t-244 -240t-90.5 -332.5zM532 641q0 133 68.5 239t180.5 162t243 56q123 0 213 -37l-16 -117q-106 47 -203 47q-144 0 -252.5 -93.5t-108.5 -235.5q0 -125 75 -194t202 -69q96 0 215 45l-16 -116 q-116 -37 -224 -37q-164 0 -270.5 94t-106.5 256z" />
<glyph unicode="&#xaa;" horiz-adv-x="759" d="M123 688l10 76h481l-12 -76h-479zM147 965q0 42 16 73.5t48 53.5t60 35t73 28l135 45q4 24 4 35q0 43 -34 61.5t-82 18.5q-80 0 -164 -43l16 106q94 37 168 37q93 0 152 -39.5t59 -126.5q0 -11 -4 -35l-35 -249q0 -2 -1 -5t-1 -4q0 -30 35 -30q24 0 45 14l-12 -92 q-51 -19 -90 -19q-33 0 -58 15t-31 45q-61 -58 -147 -58q-65 0 -108.5 35.5t-43.5 98.5zM266 987q0 -61 82 -61q50 0 96 39l23 149q-6 -2 -34 -10t-44.5 -13.5t-42.5 -17t-41 -22.5t-27 -28t-12 -36z" />
<glyph unicode="&#xab;" horiz-adv-x="1124" d="M82 461l364 459h181l-367 -459l238 -461h-181zM498 461l364 459h180l-366 -459l237 -461h-180z" />
<glyph unicode="&#xac;" d="M82 639l24 168h846l-86 -604h-168l62 436h-678z" />
<glyph unicode="&#xad;" horiz-adv-x="768" d="M82 416l24 168h498l-24 -168h-498z" />
<glyph unicode="&#xae;" horiz-adv-x="1878" d="M205 639q0 160 61 304t164.5 247.5t247.5 164t303 60.5q140 0 264 -47.5t214 -131t142 -205t52 -263.5q0 -217 -102.5 -397.5t-282 -284.5t-396.5 -104q-191 0 -343 83t-238 233t-86 341zM319 643q0 -245 151.5 -397t397.5 -152q133 0 256 51.5t214 138.5t145.5 209 t54.5 257q0 248 -152 400.5t-399 152.5q-180 0 -333.5 -87.5t-244 -240t-90.5 -332.5zM635 326l113 788h256q106 0 173.5 -52.5t67.5 -156.5q0 -81 -47 -144t-125 -81l174 -354h-137l-166 336h-141l-47 -336h-121zM817 762h117q74 0 130 37.5t56 109.5q0 52 -39 78.5 t-94 26.5h-133z" />
<glyph unicode="&#xaf;" horiz-adv-x="698" d="M0 1108l20 149h678l-20 -149h-678z" />
<glyph unicode="&#xb0;" horiz-adv-x="804" d="M123 1122q0 122 87.5 207.5t211.5 85.5q120 0 190 -71t70 -191t-88.5 -205.5t-208.5 -85.5t-191 70t-71 190zM233 1120q0 -66 43.5 -107.5t110.5 -41.5q76 0 130 54.5t54 131.5q0 66 -43.5 108t-109.5 42q-76 0 -130.5 -55t-54.5 -132z" />
<glyph unicode="&#xb1;" d="M41 0l25 168h884l-24 -168h-885zM133 639l23 168h358l57 399h168l-57 -399h358l-22 -168h-359l-57 -399h-168l58 399h-359z" />
<glyph unicode="&#xb2;" horiz-adv-x="808" d="M164 678l2 18l270 269q34 34 49.5 50.5t42.5 51t39.5 66t12.5 63.5q0 50 -36 76t-87 26q-45 0 -100.5 -23t-96.5 -54l19 137q102 55 202 55q105 0 175.5 -54t70.5 -155q0 -45 -12.5 -85.5t-39 -77.5t-49.5 -63t-60 -64l-17 -17l-105 -109h283l-16 -110h-547z" />
<glyph unicode="&#xb3;" horiz-adv-x="765" d="M164 707l18 129q84 -54 160 -54q69 0 115.5 28.5t46.5 92.5q0 31 -14.5 51.5t-41 29.5t-50 12t-54.5 3l16 107q181 0 181 108q0 48 -38.5 70.5t-88.5 22.5q-76 0 -150 -41l17 114q82 35 153 35q63 0 117.5 -18t93.5 -62t39 -108q0 -58 -34.5 -101.5t-90.5 -64.5v-4 q92 -44 92 -150q0 -112 -86.5 -175.5t-202.5 -63.5q-95 0 -198 39z" />
<glyph unicode="&#xb4;" horiz-adv-x="385" d="M0 1038l180 301h205l-272 -301h-113z" />
<glyph unicode="&#xb6;" horiz-adv-x="1333" d="M82 911q0 122 48.5 217t131.5 152.5t186 87t220 29.5h583l-24 -174h-144l-233 -1631h-170l233 1631h-223l-233 -1631h-164l139 977q-161 14 -255.5 99.5t-94.5 242.5z" />
<glyph unicode="&#xb7;" horiz-adv-x="616" d="M164 696q0 55 40 96.5t95 41.5q50 0 81.5 -29.5t31.5 -79.5q0 -56 -40.5 -96.5t-95.5 -40.5q-50 0 -81 29t-31 79z" />
<glyph unicode="&#xb8;" horiz-adv-x="346" d="M0 -344l16 111q27 -9 60 -9q18 0 36.5 2.5t39.5 8.5t34 20t13 33q0 20 -17.5 32.5t-36.5 16.5t-39 4q-15 0 -47 -4l115 168h123l-61 -94q49 -6 79.5 -35t30.5 -78t-25 -86t-66 -57.5t-85.5 -30.5t-89.5 -10q-47 0 -80 8z" />
<glyph unicode="&#xb9;" horiz-adv-x="587" d="M164 1245l4 23l203 147h53l-105 -735h-139l80 565h-96z" />
<glyph unicode="&#xba;" horiz-adv-x="819" d="M123 1087q0 140 89 234t228 94q119 0 187.5 -71t68.5 -191q0 -138 -89.5 -232t-227.5 -94q-118 0 -187 71t-69 189zM133 686l10 76h480l-11 -76h-479zM240 1098q0 -76 39 -123t114 -47q83 0 135 67t52 152q0 74 -40.5 121t-113.5 47q-82 0 -134 -66t-52 -151z" />
<glyph unicode="&#xbb;" horiz-adv-x="1085" d="M-41 0l369 461l-236 459h180l234 -459l-367 -461h-180zM375 0l368 461l-235 459h180l234 -459l-367 -461h-180z" />
<glyph unicode="&#xbc;" horiz-adv-x="1406" d="M0 -57l1143 1472h162l-1143 -1472h-162zM178 1245l2 23l205 147h53l-104 -735h-139l79 565h-96zM678 186l6 56l453 522h110l-69 -477h92l-15 -101h-92l-26 -186h-140l27 186h-346zM870 287h168l33 225h-8z" />
<glyph unicode="&#xbd;" horiz-adv-x="1517" d="M0 -55l1143 1470h162l-1143 -1470h-162zM193 1247l2 21l190 147h53l-104 -733h-125l80 565h-96zM791 0l2 18l270 267q31 31 48.5 50.5t43.5 52.5t38.5 65.5t12.5 64.5q0 48 -36 75.5t-87 27.5q-44 0 -98.5 -23.5t-97.5 -54.5l18 135q99 57 203 57q105 0 175.5 -54.5 t70.5 -156.5q0 -44 -12.5 -84t-39 -77t-49.5 -63t-60 -64l-17 -17l-105 -108h283l-17 -111h-546z" />
<glyph unicode="&#xbe;" horiz-adv-x="1603" d="M164 707l18 129q84 -54 160 -54q69 0 115.5 28.5t46.5 92.5q0 31 -14.5 51.5t-41 29.5t-50 12t-54.5 3l16 107q181 0 181 108q0 48 -38.5 70.5t-88.5 22.5q-76 0 -150 -41l17 112q72 35 153 35q100 0 175 -46.5t75 -139.5q0 -58 -34.5 -102.5t-90.5 -63.5v-4 q92 -44 92 -150q0 -112 -86.5 -175.5t-202.5 -63.5q-95 0 -198 39zM195 -57l1144 1472h162l-1145 -1472h-161zM870 186l7 56l452 522h111l-68 -477h90l-14 -101h-92l-27 -186h-139l27 186h-347zM1063 287h168l33 225h-9z" />
<glyph unicode="&#xbf;" horiz-adv-x="845" d="M0 -31q0 72 29.5 138.5t74 115.5t98.5 100t101.5 92t84.5 91.5t46 99.5q3 13 8 51h193l-6 -45q-11 -63 -40 -120t-66.5 -100t-81 -83t-84 -77t-74 -74t-54 -81t-20.5 -91q0 -52 28 -91.5t73 -61t93 -32t95 -10.5q112 0 225 37l-27 -184q-118 -39 -256 -39 q-88 0 -165 21.5t-139.5 64.5t-99 114.5t-36.5 163.5zM436 901q0 55 40 96t95 41q52 0 83.5 -29t31.5 -79q0 -55 -40.5 -96t-94.5 -41q-51 0 -83 29t-32 79z" />
<glyph unicode="&#xc0;" horiz-adv-x="1234" d="M-205 0l801 1405h143l435 -1405h-207l-129 412h-594l-234 -412h-215zM344 586h440l-155 512zM498 1790h204l95 -301h-113z" />
<glyph unicode="&#xc1;" horiz-adv-x="1234" d="M-205 0l801 1405h143l435 -1405h-207l-129 412h-594l-234 -412h-215zM344 586h440l-155 512zM586 1489l180 301h205l-273 -301h-112z" />
<glyph unicode="&#xc2;" horiz-adv-x="1234" d="M-205 0l801 1405h143l435 -1405h-207l-129 412h-594l-234 -412h-215zM344 586h440l-155 512zM395 1489l242 287h190l172 -287h-106l-168 156l-215 -156h-115z" />
<glyph unicode="&#xc3;" horiz-adv-x="1234" d="M-205 0l801 1405h143l435 -1405h-207l-129 412h-594l-234 -412h-215zM342 1526q10 96 68.5 164.5t150.5 68.5q60 0 140 -35.5t114 -35.5q81 0 100 79h103q-13 -99 -68.5 -166t-148.5 -67q-58 0 -138.5 36t-115.5 36q-39 0 -65.5 -21t-35.5 -59h-104zM344 586h440 l-155 512z" />
<glyph unicode="&#xc4;" horiz-adv-x="1234" d="M-205 0l801 1405h143l435 -1405h-207l-129 412h-594l-234 -412h-215zM344 586h440l-155 512zM424 1632q0 46 29 75.5t75 29.5q37 0 63.5 -25t26.5 -61q0 -47 -29 -76t-75 -29q-38 0 -64 24t-26 62zM805 1632q0 46 29 75.5t75 29.5q37 0 64.5 -25t27.5 -61 q0 -47 -29.5 -76t-76.5 -29q-38 0 -64 24t-26 62z" />
<glyph unicode="&#xc5;" horiz-adv-x="1234" d="M-205 0l801 1405h143l435 -1405h-207l-129 412h-594l-234 -412h-215zM344 586h440l-155 512zM514 1653q0 97 59.5 154t157.5 57q75 0 125.5 -48.5t50.5 -123.5q0 -96 -59.5 -152.5t-155.5 -56.5q-76 0 -127 47.5t-51 122.5zM594 1657q0 -44 33 -70t78 -26q52 0 87 36 t35 89q0 46 -31 72t-77 26q-54 0 -89.5 -36.5t-35.5 -90.5z" />
<glyph unicode="&#xc6;" horiz-adv-x="1810" d="M-164 0l1026 1397h928l-25 -174h-577l-66 -467h523l-25 -181h-524l-58 -401h594l-24 -174h-795l78 551h-428l-395 -551h-232zM590 729h328l75 537h-8z" />
<glyph unicode="&#xc7;" horiz-adv-x="1251" d="M41 662q0 174 70 323q68 147 189 245.5t264 141.5t308 43q205 0 400 -72l-29 -190q-194 78 -366 78q-167 0 -308.5 -68.5t-229 -200t-87.5 -300.5q0 -225 139.5 -360.5t364.5 -135.5q194 0 356 72l-29 -203q-143 -53 -325 -53l-33 -52q54 1 87.5 -31.5t33.5 -86.5 q0 -59 -39.5 -100.5t-92 -59t-108.5 -17.5q-60 0 -106 15l14 104q30 -12 70 -12q18 0 35 2.5t35.5 9t30 20.5t11.5 33q0 30 -27 43t-59 13q-27 0 -51 -6l84 131q-271 32 -436.5 216.5t-165.5 457.5z" />
<glyph unicode="&#xc8;" horiz-adv-x="1032" d="M20 0l199 1397h793l-25 -174h-592l-59 -418h538l-24 -172h-539l-65 -459h610l-25 -174h-811zM487 1790h205l94 -301h-112z" />
<glyph unicode="&#xc9;" horiz-adv-x="1032" d="M20 0l199 1397h793l-25 -174h-592l-59 -418h538l-24 -172h-539l-65 -459h610l-25 -174h-811zM518 1489l180 301h205l-272 -301h-113z" />
<glyph unicode="&#xca;" horiz-adv-x="1032" d="M20 0l199 1397h793l-25 -174h-592l-59 -418h538l-24 -172h-539l-65 -459h610l-25 -174h-811zM336 1489l242 287h190l172 -287h-104l-170 156l-213 -156h-117z" />
<glyph unicode="&#xcb;" horiz-adv-x="1032" d="M20 0l199 1397h793l-25 -174h-592l-59 -418h538l-24 -172h-539l-65 -459h610l-25 -174h-811zM360 1632q0 46 30 75.5t77 29.5q36 0 63 -25t27 -61q0 -47 -29.5 -76t-76.5 -29q-38 0 -64.5 24.5t-26.5 61.5zM743 1632q0 46 29.5 75.5t75.5 29.5q37 0 63.5 -25t26.5 -61 q0 -47 -29 -76t-75 -29q-38 0 -64.5 24.5t-26.5 61.5z" />
<glyph unicode="&#xcc;" horiz-adv-x="522" d="M20 0l199 1397h201l-199 -1397h-201zM176 1790h205l94 -301h-113z" />
<glyph unicode="&#xcd;" horiz-adv-x="522" d="M20 0l199 1397h201l-199 -1397h-201zM150 1489l180 301h205l-273 -301h-112z" />
<glyph unicode="&#xce;" horiz-adv-x="522" d="M20 0l199 1397h201l-199 -1397h-201zM25 1489l241 287h191l170 -287h-111l-176 156l-207 -156h-108z" />
<glyph unicode="&#xcf;" horiz-adv-x="522" d="M20 0l199 1397h201l-199 -1397h-201zM66 1632q0 46 29.5 75.5t76.5 29.5q36 0 63 -25t27 -61q0 -47 -29.5 -76t-76.5 -29q-38 0 -64 24t-26 62zM449 1632q0 46 29 75.5t75 29.5q37 0 63.5 -25t26.5 -61q0 -47 -29 -76t-75 -29q-38 0 -64 24t-26 62z" />
<glyph unicode="&#xd0;" horiz-adv-x="1497" d="M-20 608l26 180h164l88 609h436q115 0 216.5 -23.5t186.5 -72.5t146.5 -119.5t96 -169.5t34.5 -217q0 -188 -76 -341.5t-204.5 -251t-292.5 -150t-346 -52.5h-398l88 608h-165zM283 174h151q102 0 199 20.5t186.5 61t164 109t122.5 157.5q63 117 63 250 q0 113 -39.5 200.5t-110 141.5t-162.5 81.5t-202 27.5h-221l-63 -435h393l-27 -180h-391z" />
<glyph unicode="&#xd1;" horiz-adv-x="1542" d="M20 0l199 1397h195l667 -1106l158 1106h201l-199 -1397h-201l-661 1100l-158 -1100h-201zM535 1526q10 96 68.5 164.5t150.5 68.5q60 0 140 -35.5t114 -35.5q39 0 66 20.5t34 58.5h102q-13 -99 -68.5 -166t-148.5 -67q-58 0 -138.5 36t-115.5 36q-38 0 -64.5 -21 t-35.5 -59h-104z" />
<glyph unicode="&#xd2;" horiz-adv-x="1597" d="M41 659q0 162 55.5 302.5t154 240t238 156.5t302.5 57q312 0 498 -184t186 -496q0 -217 -95 -388.5t-266.5 -268t-388.5 -96.5q-311 0 -497.5 183.5t-186.5 493.5zM252 633q0 -217 130.5 -342t348.5 -125q121 0 223 49t169.5 131.5t105 189.5t37.5 224q0 218 -131 344.5 t-351 126.5q-160 0 -283.5 -85t-186 -219.5t-62.5 -293.5zM655 1790h205l94 -301h-112z" />
<glyph unicode="&#xd3;" horiz-adv-x="1597" d="M41 659q0 162 55.5 302.5t154 240t238 156.5t302.5 57q312 0 498 -184t186 -496q0 -217 -95 -388.5t-266.5 -268t-388.5 -96.5q-311 0 -497.5 183.5t-186.5 493.5zM252 633q0 -217 130.5 -342t348.5 -125q121 0 223 49t169.5 131.5t105 189.5t37.5 224q0 218 -131 344.5 t-351 126.5q-160 0 -283.5 -85t-186 -219.5t-62.5 -293.5zM715 1489l180 301h205l-273 -301h-112z" />
<glyph unicode="&#xd4;" horiz-adv-x="1597" d="M41 659q0 162 55.5 302.5t154 240t238 156.5t302.5 57q312 0 498 -184t186 -496q0 -217 -95 -388.5t-266.5 -268t-388.5 -96.5q-311 0 -497.5 183.5t-186.5 493.5zM252 633q0 -217 130.5 -342t348.5 -125q121 0 223 49t169.5 131.5t105 189.5t37.5 224q0 218 -131 344.5 t-351 126.5q-160 0 -283.5 -85t-186 -219.5t-62.5 -293.5zM573 1489l242 287h191l170 -287h-109l-168 156l-215 -156h-111z" />
<glyph unicode="&#xd5;" horiz-adv-x="1597" d="M41 659q0 162 55.5 302.5t154 240t238 156.5t302.5 57q312 0 498 -184t186 -496q0 -217 -95 -388.5t-266.5 -268t-388.5 -96.5q-311 0 -497.5 183.5t-186.5 493.5zM252 633q0 -217 130.5 -342t348.5 -125q121 0 223 49t169.5 131.5t105 189.5t37.5 224q0 218 -131 344.5 t-351 126.5q-160 0 -283.5 -85t-186 -219.5t-62.5 -293.5zM526 1526q10 96 68.5 164.5t150.5 68.5q59 0 138.5 -35.5t113.5 -35.5q40 0 67 20.5t34 58.5h104q-13 -99 -68.5 -166t-150.5 -67q-58 0 -138.5 36t-115.5 36q-38 0 -64.5 -21t-35.5 -59h-103z" />
<glyph unicode="&#xd6;" horiz-adv-x="1597" d="M41 659q0 162 55.5 302.5t154 240t238 156.5t302.5 57q312 0 498 -184t186 -496q0 -217 -95 -388.5t-266.5 -268t-388.5 -96.5q-311 0 -497.5 183.5t-186.5 493.5zM252 633q0 -217 130.5 -342t348.5 -125q121 0 223 49t169.5 131.5t105 189.5t37.5 224q0 218 -131 344.5 t-351 126.5q-160 0 -283.5 -85t-186 -219.5t-62.5 -293.5zM596 1632q0 46 29.5 75.5t76.5 29.5q37 0 64 -25t27 -61q0 -47 -29.5 -76t-75.5 -29q-38 0 -65 24.5t-27 61.5zM979 1632q0 46 29 75.5t75 29.5q37 0 64 -25t27 -61q0 -47 -29.5 -76t-75.5 -29q-38 0 -64 24t-26 62 z" />
<glyph unicode="&#xd7;" horiz-adv-x="960" d="M0 397l360 316l-270 315l137 121l271 -315l358 313l105 -121l-359 -313l268 -314l-137 -120l-268 313l-361 -316z" />
<glyph unicode="&#xd8;" horiz-adv-x="1576" d="M20 76l148 147q-137 182 -137 436q0 217 95.5 389.5t267 269.5t388.5 97q262 0 441 -135l153 154l109 -109l-154 -154q135 -176 135 -436q0 -217 -95.5 -388.5t-267 -268t-388.5 -96.5q-268 0 -443 135l-137 -137zM242 633q0 -156 73 -273l775 777q-124 94 -314 94 q-122 0 -224 -49.5t-169 -132.5t-104 -190.5t-37 -225.5zM408 260q118 -94 313 -94q121 0 223 49t169 131.5t104.5 189.5t37.5 224q0 161 -73 274z" />
<glyph unicode="&#xd9;" horiz-adv-x="1525" d="M102 496q0 70 9 131q34 236 110 770h201l-117 -815q-6 -40 -6 -90q0 -79 31.5 -143.5t83 -103t113 -59t124.5 -20.5q189 0 308 110t147 308l117 813h200l-123 -858q-17 -117 -62.5 -215.5t-122 -176t-193.5 -121.5t-263 -44q-115 0 -215 33t-177 96t-121 162t-44 223z M653 1790h205l94 -301h-112z" />
<glyph unicode="&#xda;" horiz-adv-x="1525" d="M102 496q0 70 9 131q34 236 110 770h201l-117 -815q-6 -40 -6 -90q0 -79 31.5 -143.5t83 -103t113 -59t124.5 -20.5q189 0 308 110t147 308l117 813h200l-123 -858q-17 -117 -62.5 -215.5t-122 -176t-193.5 -121.5t-263 -44q-115 0 -215 33t-177 96t-121 162t-44 223z M702 1489l181 301h204l-272 -301h-113z" />
<glyph unicode="&#xdb;" horiz-adv-x="1525" d="M102 496q0 70 9 131q34 236 110 770h201l-117 -815q-6 -40 -6 -90q0 -79 31.5 -143.5t83 -103t113 -59t124.5 -20.5q189 0 308 110t147 308l117 813h200l-123 -858q-17 -117 -62.5 -215.5t-122 -176t-193.5 -121.5t-263 -44q-115 0 -215 33t-177 96t-121 162t-44 223z M530 1489l244 287h191l170 -287h-105l-170 156l-213 -156h-117z" />
<glyph unicode="&#xdc;" horiz-adv-x="1525" d="M102 496q0 70 9 131q34 236 110 770h201l-117 -815q-6 -40 -6 -90q0 -79 31.5 -143.5t83 -103t113 -59t124.5 -20.5q189 0 308 110t147 308l117 813h200l-123 -858q-17 -117 -62.5 -215.5t-122 -176t-193.5 -121.5t-263 -44q-115 0 -215 33t-177 96t-121 162t-44 223z M569 1632q-3 46 25 75.5t74 29.5q39 0 66.5 -25.5t29.5 -60.5q3 -47 -24.5 -76t-73.5 -29q-39 0 -66.5 25t-30.5 61zM952 1632q-3 46 24 75.5t73 29.5q39 0 66.5 -25.5t29.5 -60.5q4 -47 -23 -76t-73 -29q-39 0 -67 25t-30 61z" />
<glyph unicode="&#xdd;" horiz-adv-x="1095" d="M20 1397h218l286 -647l467 647h228l-611 -836l-80 -561h-200l82 563zM532 1489l181 301h205l-273 -301h-113z" />
<glyph unicode="&#xde;" horiz-adv-x="1177" d="M20 0l199 1397h201l-43 -303h248q91 0 170 -21.5t142 -64t99.5 -115t36.5 -166.5q0 -106 -45 -189.5t-120 -134t-167 -76.5t-192 -26h-285l-43 -301h-201zM289 475h252q58 0 113.5 14.5t104.5 43.5t79 77.5t30 110.5q0 100 -73.5 150.5t-178.5 50.5h-264z" />
<glyph unicode="&#xdf;" horiz-adv-x="1058" d="M0 0l98 680q38 289 43 321q33 200 133.5 307t294.5 107q161 0 264 -84t103 -241q0 -124 -64.5 -211.5t-181.5 -104.5l-2 -8q106 -37 158.5 -121.5t52.5 -202.5q0 -125 -45 -227.5t-138.5 -167.5t-219.5 -65q-87 0 -158 24l24 172q36 -24 109 -24q108 0 174 82t66 192 q0 123 -69.5 187.5t-192.5 64.5l24 164h23q108 0 178.5 69t70.5 177q0 85 -50.5 134.5t-135.5 49.5q-48 0 -86.5 -18t-62.5 -44.5t-42.5 -68.5t-27.5 -78t-18 -84q-8 -50 -16 -107t-17.5 -126t-14.5 -107l-92 -641h-182z" />
<glyph unicode="&#xe0;" horiz-adv-x="993" d="M0 397q0 105 51 217q73 157 210 240.5t312 83.5q187 0 318 -70l-123 -868h-170l6 96q-41 -55 -104 -84.5t-133 -29.5q-87 0 -157.5 34t-115.5 91.5t-69.5 132t-24.5 157.5zM193 406q0 -119 58 -189t175 -70q112 0 192 86l74 519q-48 22 -129 22q-154 0 -262 -106.5 t-108 -261.5zM420 1339h205l94 -301h-113z" />
<glyph unicode="&#xe1;" horiz-adv-x="993" d="M0 397q0 105 51 217q73 157 210 240.5t312 83.5q187 0 318 -70l-123 -868h-170l6 96q-41 -55 -104 -84.5t-133 -29.5q-87 0 -157.5 34t-115.5 91.5t-69.5 132t-24.5 157.5zM193 406q0 -119 58 -189t175 -70q112 0 192 86l74 519q-48 22 -129 22q-154 0 -262 -106.5 t-108 -261.5zM459 1038l180 301h205l-273 -301h-112z" />
<glyph unicode="&#xe2;" horiz-adv-x="993" d="M0 397q0 105 51 217q73 157 210 240.5t312 83.5q187 0 318 -70l-123 -868h-170l6 96q-41 -55 -104 -84.5t-133 -29.5q-87 0 -157.5 34t-115.5 91.5t-69.5 132t-24.5 157.5zM193 406q0 -119 58 -189t175 -70q112 0 192 86l74 519q-48 22 -129 22q-154 0 -262 -106.5 t-108 -261.5zM252 1053l244 286h190l170 -286h-104l-170 155l-213 -155h-117z" />
<glyph unicode="&#xe3;" horiz-adv-x="993" d="M0 397q0 105 51 217q73 157 210 240.5t312 83.5q187 0 318 -70l-123 -868h-170l6 96q-41 -55 -104 -84.5t-133 -29.5q-87 0 -157.5 34t-115.5 91.5t-69.5 132t-24.5 157.5zM193 406q0 -119 58 -189t175 -70q112 0 192 86l74 519q-48 22 -129 22q-154 0 -262 -106.5 t-108 -261.5zM287 1087q8 85 61 148t135 63q54 0 126 -32.5t102 -32.5q35 0 60 19t32 53h92q-12 -88 -62 -149.5t-135 -61.5q-51 0 -123 32.5t-104 32.5q-35 0 -58.5 -19t-31.5 -53h-94z" />
<glyph unicode="&#xe4;" horiz-adv-x="993" d="M0 397q0 105 51 217q73 157 210 240.5t312 83.5q187 0 318 -70l-123 -868h-170l6 96q-41 -55 -104 -84.5t-133 -29.5q-87 0 -157.5 34t-115.5 91.5t-69.5 132t-24.5 157.5zM193 406q0 -119 58 -189t175 -70q112 0 192 86l74 519q-48 22 -129 22q-154 0 -262 -106.5 t-108 -261.5zM281 1182q0 46 29 76t75 30q37 0 63.5 -25t26.5 -63q0 -46 -29 -75t-75 -29q-38 0 -64 24t-26 62zM662 1182q0 46 29.5 76t76.5 30q36 0 63 -25.5t27 -62.5q0 -46 -29.5 -75t-76.5 -29q-38 0 -64 24t-26 62z" />
<glyph unicode="&#xe5;" horiz-adv-x="993" d="M0 397q0 105 51 217q73 157 210 240.5t312 83.5q187 0 318 -70l-123 -868h-170l6 96q-41 -55 -104 -84.5t-133 -29.5q-87 0 -157.5 34t-115.5 91.5t-69.5 132t-24.5 157.5zM193 406q0 -119 58 -189t175 -70q112 0 192 86l74 519q-48 22 -129 22q-154 0 -262 -106.5 t-108 -261.5zM401 1165q0 96 59.5 152.5t157.5 56.5q75 0 126 -48t51 -122q0 -96 -59.5 -153.5t-155.5 -57.5q-76 0 -127.5 48.5t-51.5 123.5zM481 1169q0 -44 32.5 -71t78.5 -27q52 0 87.5 36.5t35.5 90.5q0 44 -31.5 71t-77.5 27q-54 0 -89.5 -36.5t-35.5 -90.5z" />
<glyph unicode="&#xe6;" horiz-adv-x="1447" d="M-41 223q0 58 19.5 105.5t51.5 80.5t78 58.5t94 40t104.5 24t104 12.5t97.5 3q1 7 4.5 34.5t3.5 43.5q0 75 -59.5 112t-139.5 37q-138 0 -270 -72l25 175q140 61 301 61q86 0 164 -29t120 -92q133 121 320 121q160 0 254 -95.5t94 -256.5q0 -78 -20 -166h-639v-19 q-4 -116 72 -186t196 -70q124 0 244 60l-27 -182q-110 -41 -246 -41q-100 0 -190 39.5t-150 115.5q-75 -76 -154.5 -115.5t-177.5 -39.5q-109 0 -191.5 67.5t-82.5 173.5zM147 242q0 -54 42.5 -80.5t99.5 -26.5q80 0 170 68l30 217q-49 0 -100.5 -7.5t-110 -25t-95 -55 t-36.5 -90.5zM690 547h451q2 12 2 35q0 84 -48.5 138t-131.5 54q-76 0 -137.5 -42t-104.5 -111q-28 -53 -31 -74z" />
<glyph unicode="&#xe7;" horiz-adv-x="851" d="M0 391q0 240 150.5 393.5t390.5 153.5q128 0 250 -53l-25 -164q-101 53 -205 53q-166 0 -269.5 -103.5t-103.5 -267.5q0 -116 74 -187t191 -71q121 0 247 60l-26 -182q-83 -32 -189 -39l-34 -52q54 0 87 -32t33 -86q0 -86 -74 -132.5t-165 -46.5q-60 0 -107 17l15 104 q34 -12 71 -12q18 0 35 3t35.5 9.5t29.5 20.5t11 33q0 30 -26 42.5t-60 12.5q-27 0 -51 -6l82 127q-160 21 -263.5 132.5t-103.5 272.5z" />
<glyph unicode="&#xe8;" horiz-adv-x="970" d="M0 393q0 107 36.5 206t100.5 174t158.5 120t204.5 45q160 0 254 -95.5t94 -256.5q0 -73 -21 -166h-639v-19q-4 -116 72.5 -186t196.5 -70q126 0 243 60l-26 -182q-107 -41 -246 -41q-181 0 -304.5 115.5t-123.5 295.5zM213 547h451q2 12 2 35q0 84 -49 138t-132 54 q-74 0 -136.5 -42t-104.5 -111q-28 -53 -31 -74zM315 1339h205l94 -301h-112z" />
<glyph unicode="&#xe9;" horiz-adv-x="970" d="M0 393q0 107 36.5 206t100.5 174t158.5 120t204.5 45q160 0 254 -95.5t94 -256.5q0 -73 -21 -166h-639v-19q-4 -116 72.5 -186t196.5 -70q126 0 243 60l-26 -182q-107 -41 -246 -41q-181 0 -304.5 115.5t-123.5 295.5zM213 547h451q2 12 2 35q0 84 -49 138t-132 54 q-74 0 -136.5 -42t-104.5 -111q-28 -53 -31 -74zM389 1038l180 301h205l-272 -301h-113z" />
<glyph unicode="&#xea;" horiz-adv-x="970" d="M0 393q0 107 36.5 206t100.5 174t158.5 120t204.5 45q160 0 254 -95.5t94 -256.5q0 -73 -21 -166h-639v-19q-4 -116 72.5 -186t196.5 -70q126 0 243 60l-26 -182q-107 -41 -246 -41q-181 0 -304.5 115.5t-123.5 295.5zM195 1053l241 286h191l172 -286h-105l-170 155 l-213 -155h-116zM213 547h451q2 12 2 35q0 84 -49 138t-132 54q-74 0 -136.5 -42t-104.5 -111q-28 -53 -31 -74z" />
<glyph unicode="&#xeb;" horiz-adv-x="970" d="M0 393q0 107 36.5 206t100.5 174t158.5 120t204.5 45q160 0 254 -95.5t94 -256.5q0 -73 -21 -166h-639v-19q-4 -116 72.5 -186t196.5 -70q126 0 243 60l-26 -182q-107 -41 -246 -41q-181 0 -304.5 115.5t-123.5 295.5zM213 547h451q2 12 2 35q0 84 -49 138t-132 54 q-74 0 -136.5 -42t-104.5 -111q-28 -53 -31 -74zM236 1182q0 46 29 76t75 30q37 0 63.5 -25t26.5 -63q0 -46 -29 -75t-75 -29q-38 0 -64 24t-26 62zM616 1182q0 46 30 76t77 30q36 0 63 -25.5t27 -62.5q0 -46 -29.5 -75t-76.5 -29q-38 0 -64.5 24.5t-26.5 61.5z" />
<glyph unicode="&#xec;" horiz-adv-x="434" d="M-20 0l131 920h182l-131 -920h-182zM45 1339h205l94 -301h-113z" />
<glyph unicode="&#xed;" horiz-adv-x="434" d="M-20 0l131 920h182l-131 -920h-182zM109 1038l180 301h205l-273 -301h-112z" />
<glyph unicode="&#xee;" horiz-adv-x="434" d="M-82 1053l242 286h190l172 -286h-106l-168 155l-215 -155h-115zM-25 0l131 920h183l-131 -920h-183z" />
<glyph unicode="&#xef;" horiz-adv-x="434" d="M-61 1182q0 46 29 76t75 30q37 0 63.5 -25t26.5 -63q0 -46 -29 -75t-75 -29q-38 0 -64 24t-26 62zM-25 0l131 920h183l-131 -920h-183zM319 1182q0 46 30 76t77 30q36 0 63 -25.5t27 -62.5q0 -46 -29.5 -75t-76.5 -29q-38 0 -64.5 24.5t-26.5 61.5z" />
<glyph unicode="&#xf0;" horiz-adv-x="1067" d="M0 403q0 229 144.5 382t371.5 153q63 0 128 -22t104 -64l4 4q-39 180 -125 274l-283 -124l-53 100l248 111q-50 48 -119 86l125 110q93 -49 166 -119l262 115l53 -100l-233 -107q159 -214 159 -571q0 -102 -18.5 -195t-60 -176.5t-101.5 -144.5t-149 -97t-197 -36 q-197 0 -311.5 112.5t-114.5 308.5zM190 424q0 -126 63.5 -202.5t186.5 -76.5q91 0 161.5 53.5t105 134t34.5 169.5q0 122 -64 197t-183 75q-89 0 -160 -52t-107.5 -131.5t-36.5 -166.5z" />
<glyph unicode="&#xf1;" horiz-adv-x="995" d="M0 0l131 920h160l-8 -109q142 127 270 127q135 0 217 -87t82 -222q0 -74 -4 -109q-14 -103 -43.5 -300.5t-32.5 -219.5h-182q71 482 80 557q4 28 4 45q0 81 -43.5 126.5t-124.5 45.5q-22 0 -44.5 -5t-37.5 -10t-40 -19t-34 -20t-37 -25t-34 -23l-97 -672h-182zM250 1087 q8 85 61 148t135 63q54 0 126 -32.5t102 -32.5q35 0 60 19t32 53h92q-12 -88 -61.5 -149.5t-134.5 -61.5q-51 0 -123.5 32.5t-104.5 32.5q-35 0 -58.5 -19t-31.5 -53h-94z" />
<glyph unicode="&#xf2;" horiz-adv-x="1054" d="M0 406q0 228 145 380t371 152q194 0 305 -116t111 -310q0 -225 -145.5 -377.5t-368.5 -152.5q-192 0 -305 115.5t-113 308.5zM190 422q0 -124 63.5 -200.5t186.5 -76.5q91 0 161.5 53.5t105 134t34.5 169.5q0 122 -64 197t-183 75q-90 0 -161 -52t-107 -131.5t-36 -168.5 zM375 1339h205l94 -301h-113z" />
<glyph unicode="&#xf3;" horiz-adv-x="1054" d="M0 406q0 228 145 380t371 152q194 0 305 -116t111 -310q0 -225 -145.5 -377.5t-368.5 -152.5q-192 0 -305 115.5t-113 308.5zM190 422q0 -124 63.5 -200.5t186.5 -76.5q91 0 161.5 53.5t105 134t34.5 169.5q0 122 -64 197t-183 75q-90 0 -161 -52t-107 -131.5t-36 -168.5 zM451 1038l180 301h205l-273 -301h-112z" />
<glyph unicode="&#xf4;" horiz-adv-x="1054" d="M0 406q0 228 145 380t371 152q194 0 305 -116t111 -310q0 -225 -145.5 -377.5t-368.5 -152.5q-192 0 -305 115.5t-113 308.5zM190 422q0 -124 63.5 -200.5t186.5 -76.5q91 0 161.5 53.5t105 134t34.5 169.5q0 122 -64 197t-183 75q-90 0 -161 -52t-107 -131.5t-36 -168.5 zM242 1053l241 286h191l172 -286h-107l-170 155l-213 -155h-114z" />
<glyph unicode="&#xf5;" horiz-adv-x="1054" d="M0 406q0 228 145 380t371 152q194 0 305 -116t111 -310q0 -225 -145.5 -377.5t-368.5 -152.5q-192 0 -305 115.5t-113 308.5zM190 422q0 -124 63.5 -200.5t186.5 -76.5q91 0 161.5 53.5t105 134t34.5 169.5q0 122 -64 197t-183 75q-90 0 -161 -52t-107 -131.5t-36 -168.5 zM268 1087q8 85 61.5 148t135.5 63q54 0 126 -32.5t103 -32.5q34 0 58.5 19t31.5 53h93q-12 -88 -62 -149.5t-135 -61.5q-51 0 -123 32.5t-104 32.5q-35 0 -59 -19t-32 -53h-94z" />
<glyph unicode="&#xf6;" horiz-adv-x="1054" d="M0 406q0 228 145 380t371 152q194 0 305 -116t111 -310q0 -225 -145.5 -377.5t-368.5 -152.5q-192 0 -305 115.5t-113 308.5zM190 422q0 -124 63.5 -200.5t186.5 -76.5q91 0 161.5 53.5t105 134t34.5 169.5q0 122 -64 197t-183 75q-90 0 -161 -52t-107 -131.5t-36 -168.5 zM283 1182q0 46 29 76t75 30q37 0 63.5 -25t26.5 -63q0 -46 -29 -75t-75 -29q-38 0 -64 24t-26 62zM664 1182q0 46 29.5 76t76.5 30q36 0 63 -25.5t27 -62.5q0 -46 -29.5 -75t-76.5 -29q-38 0 -64 24t-26 62z" />
<glyph unicode="&#xf7;" d="M111 639l24 168h885l-25 -168h-884zM387 375q0 55 40 96t95 41q51 0 82 -29t31 -80q0 -56 -40 -96.5t-95 -40.5q-49 0 -81 29.5t-32 79.5zM483 1044q0 54 39.5 96t93.5 42q52 0 83.5 -29.5t31.5 -79.5q0 -55 -40.5 -96t-94.5 -41q-50 0 -81.5 29t-31.5 79z" />
<glyph unicode="&#xf8;" horiz-adv-x="1060" d="M-61 -14l149 151q-78 108 -78 269q0 150 64.5 271t182.5 191t269 70q169 0 275 -88l119 119l59 -62l-119 -119q82 -115 82 -276q0 -147 -65 -268t-183.5 -191.5t-267.5 -70.5q-170 0 -279 92l-149 -150zM201 422q0 -89 30 -150l441 443q-62 59 -168 59q-90 0 -161 -52 t-106.5 -131.5t-35.5 -168.5zM276 209q64 -64 173 -64q91 0 162 53.5t106 134t35 169.5t-33 151z" />
<glyph unicode="&#xf9;" horiz-adv-x="997" d="M20 301q0 51 9 100q9 80 73 519h183q-72 -493 -80 -555q-2 -14 -2 -46q0 -84 45 -129t129 -45q118 0 219 101l96 674h182l-131 -920h-161l8 106q-62 -61 -125 -92.5t-141 -31.5q-139 0 -221.5 89.5t-82.5 229.5zM340 1339h205l94 -301h-113z" />
<glyph unicode="&#xfa;" horiz-adv-x="997" d="M20 301q0 51 9 100q9 80 73 519h183q-72 -493 -80 -555q-2 -14 -2 -46q0 -84 45 -129t129 -45q118 0 219 101l96 674h182l-131 -920h-161l8 106q-62 -61 -125 -92.5t-141 -31.5q-139 0 -221.5 89.5t-82.5 229.5zM395 1038l180 301h205l-272 -301h-113z" />
<glyph unicode="&#xfb;" horiz-adv-x="997" d="M20 301q0 51 9 100q9 80 73 519h183q-72 -493 -80 -555q-2 -14 -2 -46q0 -84 45 -129t129 -45q118 0 219 101l96 674h182l-131 -920h-161l8 106q-62 -61 -125 -92.5t-141 -31.5q-139 0 -221.5 89.5t-82.5 229.5zM217 1053l242 286h190l172 -286h-106l-168 155l-215 -155 h-115z" />
<glyph unicode="&#xfc;" horiz-adv-x="997" d="M20 301q0 51 9 100q9 80 73 519h183q-72 -493 -80 -555q-2 -14 -2 -46q0 -84 45 -129t129 -45q118 0 219 101l96 674h182l-131 -920h-161l8 106q-62 -61 -125 -92.5t-141 -31.5q-139 0 -221.5 89.5t-82.5 229.5zM238 1182q0 46 29 76t75 30q37 0 63.5 -25t26.5 -63 q0 -46 -29 -75t-75 -29q-38 0 -64 24t-26 62zM618 1182q0 46 30 76t77 30q36 0 63 -25.5t27 -62.5q0 -46 -29.5 -75t-76.5 -29q-38 0 -64.5 24.5t-26.5 61.5z" />
<glyph unicode="&#xfd;" horiz-adv-x="954" d="M-20 -471l280 481l-248 910h191l178 -691h8l367 691h213l-785 -1391h-204zM393 1038l180 301h205l-272 -301h-113z" />
<glyph unicode="&#xfe;" horiz-adv-x="1017" d="M-82 -471l266 1868h183l-68 -477h84q99 0 189 -26.5t163 -77t116.5 -133.5t43.5 -187q0 -135 -56.5 -251.5t-165 -189.5t-245.5 -73q-151 0 -250 96l-78 -549h-182zM197 205q88 -60 194 -60q138 0 226 101t88 241q0 124 -88 200.5t-214 76.5h-127z" />
<glyph unicode="&#xff;" horiz-adv-x="954" d="M-20 -471l280 481l-248 910h191l178 -691h8l367 691h213l-785 -1391h-204zM227 1182q0 46 29.5 75t75.5 29q38 0 64 -24t26 -62q0 -46 -29.5 -75t-75.5 -29q-38 0 -64 24t-26 62zM608 1182q0 46 29.5 75t75.5 29q38 0 64 -24t26 -62q0 -46 -29.5 -75t-75.5 -29 q-38 0 -64 24t-26 62z" />
<glyph unicode="&#x152;" horiz-adv-x="1849" d="M41 682q0 140 45.5 258t124 201t185.5 141.5t229.5 86.5t255.5 28h948l-25 -174h-575l-60 -418h523l-25 -172h-522l-66 -459h594l-24 -174h-822q-136 0 -253 24.5t-216 77.5t-169 132t-109 193t-39 255zM252 684q0 -234 141 -372t375 -138h111l149 1049h-119 q-101 0 -195.5 -20t-179 -63.5t-147 -106t-99 -152.5t-36.5 -197z" />
<glyph unicode="&#x153;" horiz-adv-x="1708" d="M0 406q0 228 145 380t371 152q241 0 350 -174q69 84 165.5 129t205.5 45q159 0 253.5 -96t94.5 -256q0 -78 -20 -166h-639l-2 -19q-3 -116 73.5 -186t196.5 -70q128 0 242 60l-25 -182q-107 -41 -246 -41q-108 0 -203 45.5t-153 130.5q-72 -86 -173.5 -131t-217.5 -45 q-192 0 -305 115.5t-113 308.5zM190 422q0 -124 63.5 -200.5t186.5 -76.5q91 0 161.5 53.5t105 134t34.5 169.5q0 122 -64 197t-183 75q-90 0 -161 -52t-107 -131.5t-36 -168.5zM948 547h453q2 12 2 35q0 84 -48.5 138t-131.5 54q-76 0 -137.5 -42t-104.5 -111 q-28 -54 -33 -74z" />
<glyph unicode="&#x178;" horiz-adv-x="1095" d="M20 1397h218l286 -647l467 647h228l-611 -836l-80 -561h-200l82 563zM330 1640q0 43 27.5 70t70.5 27q41 0 69.5 -28t28.5 -69q0 -42 -27.5 -68t-70.5 -26q-42 0 -70 26.5t-28 67.5zM713 1640q0 43 27.5 70t70.5 27q40 0 68 -28t28 -69q0 -42 -27.5 -68t-70.5 -26 q-41 0 -68.5 26.5t-27.5 67.5z" />
<glyph unicode="&#x2c6;" horiz-adv-x="604" d="M0 1053l242 286h190l172 -286h-112l-177 155l-206 -155h-109z" />
<glyph unicode="&#x2dc;" horiz-adv-x="675" d="M0 1098q10 96 68.5 164.5t150.5 68.5q59 0 138.5 -35.5t113.5 -35.5q40 0 66.5 20.5t33.5 58.5h105q-13 -99 -68.5 -166t-148.5 -67q-59 0 -139.5 36t-114.5 36q-40 0 -67 -21t-34 -59h-104z" />
<glyph unicode="&#x2000;" horiz-adv-x="932" />
<glyph unicode="&#x2001;" horiz-adv-x="1864" />
<glyph unicode="&#x2002;" horiz-adv-x="932" />
<glyph unicode="&#x2003;" horiz-adv-x="1864" />
<glyph unicode="&#x2004;" horiz-adv-x="621" />
<glyph unicode="&#x2005;" horiz-adv-x="466" />
<glyph unicode="&#x2006;" horiz-adv-x="310" />
<glyph unicode="&#x2007;" horiz-adv-x="310" />
<glyph unicode="&#x2008;" horiz-adv-x="233" />
<glyph unicode="&#x2009;" horiz-adv-x="372" />
<glyph unicode="&#x200a;" horiz-adv-x="103" />
<glyph unicode="&#x2010;" horiz-adv-x="768" d="M82 416l24 168h498l-24 -168h-498z" />
<glyph unicode="&#x2011;" horiz-adv-x="768" d="M82 416l24 168h498l-24 -168h-498z" />
<glyph unicode="&#x2012;" horiz-adv-x="768" d="M82 416l24 168h498l-24 -168h-498z" />
<glyph unicode="&#x2013;" horiz-adv-x="1325" d="M78 416l22 168h1061l-22 -168h-1061z" />
<glyph unicode="&#x2014;" horiz-adv-x="2355" d="M82 416l24 168h2085l-24 -168h-2085z" />
<glyph unicode="&#x2018;" horiz-adv-x="296" d="M0 1094q0 113 90.5 204.5t206.5 116.5l-4 -39q-53 -28 -90.5 -78t-46.5 -108q45 0 74.5 -33t29.5 -78q0 -54 -38.5 -93.5t-92.5 -39.5q-62 0 -95.5 42t-33.5 106z" />
<glyph unicode="&#x2019;" horiz-adv-x="296" d="M0 946l6 39q53 27 90.5 77.5t44.5 108.5q-43 0 -72.5 33t-29.5 78q0 55 38 94t93 39q60 0 93.5 -42.5t33.5 -104.5q0 -114 -90 -206.5t-207 -115.5z" />
<glyph unicode="&#x201a;" horiz-adv-x="419" d="M-41 -242l6 39q53 26 90.5 77t44.5 108q-43 0 -72.5 33t-29.5 77q0 56 38 95.5t93 39.5q60 0 93.5 -42.5t33.5 -104.5q0 -114 -90 -206.5t-207 -115.5z" />
<glyph unicode="&#x201c;" horiz-adv-x="692" d="M0 1094q0 114 90.5 206t206.5 115l-4 -39q-53 -26 -90.5 -77t-46.5 -109q45 0 74.5 -33t29.5 -78q0 -54 -38.5 -93.5t-92.5 -39.5q-61 0 -95 43t-34 105zM393 1094q0 114 90.5 206t208.5 115l-6 -39q-53 -27 -90.5 -77.5t-44.5 -108.5q43 0 72.5 -33t29.5 -78 q0 -55 -38 -94t-93 -39q-60 0 -94.5 43t-34.5 105z" />
<glyph unicode="&#x201d;" horiz-adv-x="696" d="M0 946l6 39q53 27 90.5 77.5t44.5 108.5q-43 0 -72.5 33t-29.5 78q0 55 38 94t93 39q60 0 93.5 -42.5t33.5 -104.5q0 -114 -90 -206.5t-207 -115.5zM397 946l6 39q53 27 91 77.5t47 108.5q-45 0 -75 33t-30 78q0 55 38 94t93 39q60 0 94.5 -42.5t34.5 -104.5 q0 -114 -90.5 -206.5t-208.5 -115.5z" />
<glyph unicode="&#x201e;" horiz-adv-x="819" d="M-41 -242l6 39q53 26 90.5 77t44.5 108q-43 0 -72.5 33t-29.5 77q0 56 38 95.5t93 39.5q60 0 93.5 -42.5t33.5 -104.5q0 -114 -90 -206.5t-207 -115.5zM356 -242l6 39q53 26 91 77t47 108q-45 0 -75 33t-30 77q0 56 38 95.5t93 39.5q60 0 94.5 -42.5t34.5 -104.5 q0 -114 -90.5 -206.5t-208.5 -115.5z" />
<glyph unicode="&#x2022;" horiz-adv-x="841" d="M164 664q0 113 76 189.5t188 76.5q89 0 149 -56t60 -145q0 -113 -74.5 -190.5t-187.5 -77.5q-90 0 -150.5 56.5t-60.5 146.5z" />
<glyph unicode="&#x2026;" horiz-adv-x="1587" d="M0 90q0 55 40 96t95 41q51 0 82 -29.5t31 -80.5q0 -54 -40 -94.5t-95 -40.5q-50 0 -81.5 29t-31.5 79zM588 90q0 55 40 96t95 41q51 0 82 -29.5t31 -80.5q0 -54 -40.5 -94.5t-95.5 -40.5q-50 0 -81 29t-31 79zM1176 90q0 54 39.5 95.5t93.5 41.5q52 0 83 -29t31 -81 q0 -54 -40.5 -94.5t-94.5 -40.5q-50 0 -81 29t-31 79z" />
<glyph unicode="&#x202f;" horiz-adv-x="372" />
<glyph unicode="&#x2039;" horiz-adv-x="708" d="M82 461l364 459h181l-367 -459l238 -461h-181z" />
<glyph unicode="&#x203a;" horiz-adv-x="669" d="M-41 0l369 461l-236 459h180l234 -459l-367 -461h-180z" />
<glyph unicode="&#x205f;" horiz-adv-x="466" />
<glyph unicode="&#x20ac;" d="M47 446l86 168h55q-1 24 4 80t11 88h-115l86 166h74q78 206 232 336.5t343 130.5q172 0 310 -92l-86 -166q-123 74 -224 74q-64 0 -123.5 -27.5t-103.5 -72t-75.5 -90.5t-51.5 -93h471l-86 -166h-440q-19 -78 -19 -168h373l-86 -168h-272q8 -55 27 -102t52 -88.5 t87 -65.5t124 -24q21 0 43 2.5t42 7.5t38.5 11t36.5 13.5t31.5 14t28 14.5t22 12.5l17.5 10.5l10 6l-25 -207q-19 -11 -48 -24t-97.5 -29t-139.5 -16q-192 0 -310 123t-148 341h-154z" />
<glyph unicode="&#x2122;" horiz-adv-x="1820" d="M82 1276l16 121h666l-16 -121h-267l-98 -694h-135l98 694h-264zM741 582l115 815h201l141 -461h4l258 461h197l-115 -815h-125l96 684h-4l-286 -494h-95l-159 504h-4l-99 -694h-125z" />
<glyph unicode="&#x25fc;" horiz-adv-x="921" d="M0 0v922h922v-922h-922z" />
</font>
</defs>
</svg>
