<?xml version="1.0" standalone="no"?>
<!DOCTYPE svg PUBLIC "-//W3C//DTD SVG 1.1//EN" "http://www.w3.org/Graphics/SVG/1.1/DTD/svg11.dtd" >
<svg xmlns="http://www.w3.org/2000/svg" xmlns:xlink="http://www.w3.org/1999/xlink" version="1.1">
<metadata></metadata>
<defs>
<font id="benettonlight" horiz-adv-x="526" >
<font-face units-per-em="1000" ascent="800" descent="-200" />
<missing-glyph horiz-adv-x="250" />
<glyph unicode="&#xfb01;" horiz-adv-x="410" d="M350 449v-449h-49v412h-179v-412h-49v412h-63v37h63v81q0 73 44.5 117t118.5 44q49 0 99 -14v-44q-49 17 -93 17q-60 0 -90 -33.5t-30 -93.5v-74h228z" />
<glyph unicode="&#xfb02;" horiz-adv-x="423" d="M363 673v-673h-49v642q-50 8 -76 8q-55 0 -85.5 -30.5t-30.5 -85.5v-85h127v-37h-127v-412h-49v412h-63v37h63v83q0 77 44.5 118t122.5 41q58 0 123 -18z" />
<glyph horiz-adv-x="0" />
<glyph horiz-adv-x="333" />
<glyph unicode=" "  horiz-adv-x="250" />
<glyph unicode="&#x09;" horiz-adv-x="250" />
<glyph unicode="&#xa0;" horiz-adv-x="250" />
<glyph unicode="!" horiz-adv-x="189" d="M120 682v-402q0 -16 -4 -55t-5 -48h-32q0 5 -4 46t-4 57v402h49zM129 26q0 -14 -10 -24.5t-24 -10.5t-24.5 10.5t-10.5 24.5t10.5 24t24.5 10t24 -10t10 -24z" />
<glyph unicode="&#x22;" horiz-adv-x="307" d="M247 682v-81q0 -9 -14 -98h-23q-1 5 -8 47.5t-7 50.5v81h52zM111 682v-81q0 -9 -6 -51t-7 -47h-23q-15 85 -15 98v81h51z" />
<glyph unicode="#" d="M476 251v-43h-128l-43 -208h-52l43 208h-111l-43 -208h-53l44 208h-83v43h92l32 155h-124v43h133l49 233h53l-50 -233h111l50 233h52l-49 -233h77v-43h-86l-32 -155h118zM305 251l32 155h-111l-32 -155h111z" />
<glyph unicode="$" d="M474 173q0 -76 -49 -122t-127 -57v-98h-44v95h-3q-117 -2 -199 50l24 47q84 -51 167 -51q69 0 123.5 32t54.5 96q0 50 -36.5 85.5t-88 57.5t-103 46t-88 66t-36.5 102q0 74 54 118t131 50v99h44v-98q99 -4 156 -41l-24 -45q-63 40 -148 40q-64 0 -112 -30t-48 -89 q0 -27 9 -48.5t28 -37.5t36 -26t44 -23l87 -42q68 -32 108 -72.5t40 -103.5z" />
<glyph unicode="%" horiz-adv-x="716" d="M352 538q0 -63 -46 -108t-110 -45t-110 45t-46 108q0 64 46 108.5t110 44.5t110 -44.5t46 -108.5zM548 690h61l-455 -718h-61zM676 144q0 -64 -46 -108.5t-110 -44.5t-110 44.5t-46 108.5q0 63 46 108t110 45t110 -45t46 -108zM306 538q0 46 -32.5 78t-77.5 32 q-46 0 -78 -32t-32 -78q0 -45 32 -77.5t78 -32.5q45 0 77.5 32.5t32.5 77.5zM630 144q0 45 -32 77.5t-78 32.5q-45 0 -77 -32.5t-32 -77.5q0 -46 32 -78t77 -32q46 0 78 32t32 78z" />
<glyph unicode="&#x26;" horiz-adv-x="617" d="M494 125l103 -125h-67l-71 86q-95 -95 -214 -95q-85 0 -140 51t-55 135q0 119 169 199q-2 2 -20 23.5t-22.5 27.5t-18 25.5t-18.5 31t-10 28.5t-5 33q0 68 43.5 107t112.5 39t111.5 -40t42.5 -108q0 -33 -10.5 -60t-33 -50t-41.5 -37t-52 -35l166 -200q37 48 69 120h45 q-28 -86 -84 -156zM379 542q0 45 -27.5 74t-72.5 29q-43 0 -71.5 -25.5t-28.5 -68.5q0 -13 5 -28.5t10 -26t17.5 -28.5t17.5 -23.5t21.5 -25t17.5 -20.5q35 21 55 36t38 44t18 63zM430 121l-180 218q-33 -18 -51.5 -30t-44.5 -33.5t-38.5 -47t-12.5 -54.5q0 -60 40 -98.5 t100 -38.5q106 0 187 84z" />
<glyph unicode="'" horiz-adv-x="171" d="M111 682v-81q0 -9 -6 -51t-7 -47h-23q-15 85 -15 98v81h51z" />
<glyph unicode="(" horiz-adv-x="317" d="M277 -215h-52q-78 80 -121.5 204t-43.5 244t43.5 244.5t121.5 204.5h52q-164 -193 -164 -449q0 -251 164 -448z" />
<glyph unicode=")" horiz-adv-x="317" d="M257 233q0 -120 -43.5 -244t-122.5 -204h-51q163 196 163 448q0 257 -163 449h51q79 -80 122.5 -204.5t43.5 -244.5z" />
<glyph unicode="*" horiz-adv-x="456" d="M371 614l25 -44l-144 -63v-10l144 -62l-25 -44l-127 93l-9 -5l18 -156h-50l17 156l-9 6l-126 -94l-25 44l144 63v10l-144 63l25 43l127 -92l9 4l-18 156h50l-17 -156l9 -6z" />
<glyph unicode="+" d="M489 376v-44h-200v-215h-52v215h-200v44h200v213h52v-213h200z" />
<glyph unicode="," horiz-adv-x="154" d="M114 14q0 -30 -20.5 -54.5t-50.5 -31.5v11q31 17 31 52q-14 0 -24 10.5t-10 24.5t10.5 24t24.5 10q18 0 28.5 -14t10.5 -32z" />
<glyph unicode="-" horiz-adv-x="363" d="M303 277v-43h-243v43h243z" />
<glyph unicode="." horiz-adv-x="149" d="M109 22q0 -14 -10 -24.5t-24 -10.5t-24.5 10.5t-10.5 24.5t10.5 24t24.5 10t24 -10t10 -24z" />
<glyph unicode="/" horiz-adv-x="328" d="M235 691h53l-195 -700h-53z" />
<glyph unicode="0" d="M486 341q0 -45 -6 -90t-22 -93t-40 -84t-64 -59.5t-91 -23.5t-91 23.5t-64 59.5t-40 84t-22 93t-6 90t6 90t22 93t40 84t64 59.5t91 23.5t91 -23.5t64 -59.5t40 -84t22 -93t6 -90zM435 341q0 48 -7 95t-24 98t-53.5 82.5t-87.5 31.5t-87.5 -31.5t-53.5 -83t-24 -98 t-7 -94.5t7 -95t24 -98t53.5 -82.5t87.5 -31.5t87.5 31.5t53.5 82.5t24 98t7 95z" />
<glyph unicode="1" d="M308 691h15v-691h-49v589h-72v10z" />
<glyph unicode="2" d="M424 37v-37h-363v19l176 229q4 5 19.5 25t21.5 28t20 28t21 31.5t17 30t14.5 32.5t8.5 31t4 33q0 76 -49 117t-126 41q-48 0 -113 -23v50q52 19 123 19q98 0 157 -53t59 -150q0 -25 -7 -52.5t-14 -45t-26.5 -48t-26 -40.5t-33.5 -44.5t-30 -38.5q-74 -94 -140 -182h287z " />
<glyph unicode="3" d="M414 192q0 -95 -64 -148t-161 -53q-71 0 -136 16v50q63 -20 116 -20q81 0 137 38t56 116q0 71 -47 106.5t-121 35.5h-45v43h42q66 0 113 35t47 100t-49 99.5t-117 34.5q-57 0 -115 -20v48q69 18 121 18q92 0 152 -46t60 -135q0 -81 -61 -131q-17 -15 -33 -21v-4 q105 -43 105 -162z" />
<glyph unicode="4" d="M472 240v-37h-73v-203h-49v203h-295v22l319 466h25v-451h73zM122 240h228v333h-3l-225 -329v-4z" />
<glyph unicode="5" d="M447 207q0 -96 -64 -156t-161 -60q-76 0 -142 29v47q70 -35 141 -35q74 0 124 50.5t50 124.5t-50 124.5t-124 50.5q-70 0 -141 -34v334h326v-43h-277v-230q48 15 102 15q96 0 156 -60.5t60 -156.5z" />
<glyph unicode="6" d="M476 195q0 -90 -58.5 -147t-149.5 -57q-106 0 -161.5 70t-55.5 178q0 251 275 452l29 -37q-84 -56 -148.5 -132t-84.5 -161q57 33 129 33q96 0 160.5 -52.5t64.5 -146.5zM425 191q0 74 -49.5 118t-124.5 44q-79 0 -142 -43q-7 -35 -7 -78q0 -81 42 -140.5t120 -59.5 q70 0 115.5 44.5t45.5 114.5z" />
<glyph unicode="7" d="M479 682v-16l-300 -675l-45 20l279 628h-367v43h433z" />
<glyph unicode="8" d="M479 188q0 -89 -62.5 -143t-153.5 -54t-154 54t-63 143q0 93 76 147q20 16 40 22v4q-44 21 -68.5 62t-24.5 90q0 86 53.5 132t140.5 46t140 -46.5t53 -131.5q0 -48 -24.5 -90t-67.5 -62v-4q18 -5 39 -21q76 -55 76 -148zM405 514q0 62 -40 98t-102 36q-63 0 -103 -36 t-40 -98t40.5 -98t102.5 -36t102 36.5t40 97.5zM428 185q0 69 -47.5 110.5t-117.5 41.5t-118 -41.5t-48 -110.5t47.5 -110t118.5 -41q70 0 117.5 41t47.5 110z" />
<glyph unicode="9" d="M476 442q0 -252 -275 -451l-29 37q84 56 148.5 132t84.5 161q-68 -33 -129 -33q-96 0 -160.5 52t-64.5 146q0 92 58.5 148.5t149.5 56.5q103 0 160 -71.5t57 -177.5zM425 449q0 76 -42 138t-114 62q-73 0 -120 -41.5t-47 -113.5q0 -77 49.5 -121t128.5 -44q77 0 137 39 q8 35 8 81z" />
<glyph unicode=":" horiz-adv-x="149" d="M109 374q0 -14 -10 -24t-24 -10t-24.5 10t-10.5 24t10.5 24.5t24.5 10.5t24 -10.5t10 -24.5zM109 26q0 -14 -10 -24.5t-24 -10.5t-24.5 10.5t-10.5 24.5t10.5 24t24.5 10t24 -10t10 -24z" />
<glyph unicode=";" horiz-adv-x="150" d="M109 374q0 -14 -10 -24t-24 -10t-24.5 10t-10.5 24t10.5 24.5t24.5 10.5t24 -10.5t10 -24.5zM115 14q0 -30 -20.5 -54.5t-50.5 -31.5v11q31 17 31 52q-14 0 -24 10.5t-10 24.5t10.5 24t24.5 10q18 0 28.5 -14t10.5 -32z" />
<glyph unicode="&#x3c;" d="M474 173v-52l-422 217v34l422 212v-50l-359 -180v-1z" />
<glyph unicode="=" d="M479 464v-44h-432v44h432zM479 246v-43h-432v43h432z" />
<glyph unicode="&#x3e;" d="M474 372v-34l-422 -217v52l359 180v1l-359 180v50z" />
<glyph unicode="?" horiz-adv-x="402" d="M372 516q0 -49 -28.5 -92.5t-62 -70.5t-62 -64.5t-28.5 -76.5v-35h-50v39q0 38 18 71t44.5 57.5t52.5 48.5t44 54t18 63q0 69 -49 102t-122 33q-55 0 -107 -19v49q61 16 117 16q90 0 152.5 -44.5t62.5 -130.5zM205 26q0 -14 -10.5 -24.5t-24.5 -10.5t-24 10.5t-10 24.5 t10 24t24 10t24.5 -10t10.5 -24z" />
<glyph unicode="@" horiz-adv-x="950" d="M890 305q0 -52 -13 -105t-38 -101t-69.5 -78t-100.5 -30q-38 0 -66.5 19.5t-35.5 55.5h-5q-58 -75 -159 -75q-85 0 -126 61t-41 151q0 72 27.5 138.5t85 112.5t130.5 46q47 0 87 -23.5t57 -64.5h3l16 75h53l-50 -231q-3 -14 -8.5 -39t-10 -45.5t-8.5 -38.5q-5 -30 -5 -36 q0 -60 68 -60q33 0 66 24q47 36 68.5 103.5t21.5 138.5q0 62 -22 125q-36 106 -116.5 161.5t-194.5 55.5q-116 0 -206 -57t-137 -152t-47 -210q0 -86 31 -161q48 -116 149 -173t233 -57q166 0 269 78v-57q-108 -67 -260 -67q-148 0 -264.5 62t-173.5 189q-38 87 -38 180 q0 201 127 336t327 135q163 0 269.5 -111t106.5 -275zM600 303q0 66 -29 111t-92 45q-57 0 -102.5 -43t-66.5 -100.5t-21 -113.5q0 -45 10 -79.5t38.5 -60t74.5 -25.5q58 0 103 45.5t65 105t20 115.5z" />
<glyph unicode="A" horiz-adv-x="596" d="M310 691l306 -691h-56l-102 224h-330l-93 -224h-55l290 691h40zM147 267h296l-154 345z" />
<glyph unicode="B" horiz-adv-x="527" d="M487 191q0 -87 -58 -139t-146 -52h-203v682h194q88 0 141.5 -44.5t53.5 -129.5q0 -52 -29 -91.5t-78 -58.5v-4q58 -13 91.5 -57.5t33.5 -105.5zM416 502q0 66 -38 101.5t-104 35.5h-143v-263h143q57 0 99.5 35t42.5 91zM434 189q0 63 -42 103.5t-106 40.5h-155v-290h155 q65 0 106.5 40.5t41.5 105.5z" />
<glyph unicode="C" horiz-adv-x="632" d="M602 80v-57q-87 -32 -188 -32q-157 0 -260.5 97.5t-103.5 252.5t103.5 252.5t260.5 97.5q104 0 188 -32v-57q-100 43 -182 43q-132 0 -224.5 -86.5t-92.5 -217.5q0 -132 92 -218t225 -86q82 0 182 43z" />
<glyph unicode="D" horiz-adv-x="673" d="M623 341q0 -153 -95 -247t-248 -94h-200v682h200q152 0 247.5 -94.5t95.5 -246.5zM569 341q0 63 -26 123q-36 83 -104 129t-158 46h-150v-596h150q121 0 204.5 88.5t83.5 209.5z" />
<glyph unicode="E" horiz-adv-x="506" d="M476 43v-43h-396v682h387v-43h-336v-263h310v-43h-310v-290h345z" />
<glyph unicode="F" horiz-adv-x="497" d="M467 682v-43h-336v-263h310v-43h-310v-333h-51v682h387z" />
<glyph unicode="G" horiz-adv-x="687" d="M617 324v-294q-97 -39 -206 -39q-159 0 -260 95.5t-101 254.5t101 254.5t260 95.5q105 0 189 -32v-53q-88 40 -182 40q-136 0 -226 -85t-90 -220q0 -132 91.5 -218.5t224.5 -86.5q76 0 148 23v221h-187v44h238z" />
<glyph unicode="H" horiz-adv-x="680" d="M600 682v-682h-51v332h-417v-332h-52v682h52v-306h417v306h51z" />
<glyph unicode="I" horiz-adv-x="211" d="M131 682v-682h-51v682h51z" />
<glyph unicode="J" horiz-adv-x="378" d="M298 682v-461q0 -230 -199 -230q-66 0 -119 37l23 41q47 -32 98 -32q76 0 110.5 47t34.5 125v473h52z" />
<glyph unicode="K" horiz-adv-x="506" d="M190 359l336 -359h-71l-324 349v-349h-51v682h51v-320l287 320h63z" />
<glyph unicode="L" horiz-adv-x="436" d="M436 43v-43h-356v682h51v-639h305z" />
<glyph unicode="M" horiz-adv-x="805" d="M725 682v-682h-52v603h-2l-258 -442h-16l-264 442h-2v-603h-51v682h64l262 -440l257 440h62z" />
<glyph unicode="N" horiz-adv-x="698" d="M618 682v-682h-51l-434 601h-2v-601h-51v682h58l426 -585h3v585h51z" />
<glyph unicode="O" horiz-adv-x="822" d="M772 341q0 -148 -106 -249t-255 -101t-255 101t-106 249t106 249t255 101t255 -101t106 -249zM718 341q0 128 -89.5 216t-217.5 88q-129 0 -218 -87.5t-89 -216.5q0 -128 89.5 -216t217.5 -88t217.5 88t89.5 216z" />
<glyph unicode="P" horiz-adv-x="525" d="M485 489q0 -92 -62 -143t-156 -51h-136v-295h-51v682h187q93 0 155.5 -51t62.5 -142zM432 489q0 67 -49 108.5t-117 41.5h-135v-301h135q71 0 118.5 40.5t47.5 110.5z" />
<glyph unicode="Q" horiz-adv-x="822" d="M772 341q0 -139 -97 -241l76 -79l-31 -30l-77 80q-100 -80 -232 -80q-149 0 -255 101t-106 249t106 249t255 101t255 -101t106 -249zM718 341q0 128 -89.5 216t-217.5 88q-129 0 -218 -87.5t-89 -216.5q0 -128 89.5 -216t217.5 -88q113 0 197 70l-79 81l31 31l80 -83 q78 86 78 205z" />
<glyph unicode="R" horiz-adv-x="539" d="M352 315l197 -315h-63l-186 302h-169v-302h-51v682h179q96 0 157.5 -50t61.5 -143q0 -58 -35.5 -109.5t-90.5 -64.5zM424 489q0 67 -40.5 108.5t-108.5 41.5h-144v-293h144q65 0 107 39.5t42 103.5z" />
<glyph unicode="S" horiz-adv-x="463" d="M443 173q0 -89 -65 -135.5t-158 -46.5q-120 0 -200 50l25 47q82 -51 166 -51q69 0 123.5 32t54.5 96q0 50 -36.5 85.5t-88 57.5t-103 46t-88 66t-36.5 102q0 81 63.5 125t148.5 44q110 0 173 -41l-24 -45q-63 40 -148 40q-63 0 -111 -30t-48 -89q0 -51 30 -80t87 -55 l87 -42q68 -32 108 -72.5t40 -103.5z" />
<glyph unicode="T" horiz-adv-x="468" d="M468 682v-43h-204v-639h-52v639h-212v43h468z" />
<glyph unicode="U" horiz-adv-x="654" d="M574 682v-419q0 -128 -60 -200t-187 -72q-130 0 -188.5 70t-58.5 202v419h51v-441q0 -98 49 -151t147 -53t146.5 53t48.5 151v441h52z" />
<glyph unicode="V" horiz-adv-x="524" d="M460 682h54l-248 -691h-8l-248 691h55l197 -547h4z" />
<glyph unicode="W" horiz-adv-x="814" d="M752 682h52l-205 -691h-12l-178 554h-3l-181 -554h-12l-203 691h54l160 -530h4l174 539h13l176 -539h4z" />
<glyph unicode="X" horiz-adv-x="496" d="M278 365l218 -365h-62l-189 323l-190 -323h-55l215 368l-182 314h61l155 -271l154 271h53z" />
<glyph unicode="Y" horiz-adv-x="479" d="M424 682h55l-213 -408v-274h-51v275l-215 407h57l185 -346h3z" />
<glyph unicode="Z" horiz-adv-x="478" d="M468 43v-43h-458v17l370 622h-356v43h430v-21l-368 -618h382z" />
<glyph unicode="[" horiz-adv-x="252" d="M212 -178v-43h-152v903h152v-43h-101v-817h101z" />
<glyph unicode="\" horiz-adv-x="289" d="M73 691l196 -700h-53l-196 700h53z" />
<glyph unicode="]" horiz-adv-x="252" d="M192 682v-903h-152v43h101v817h-101v43h152z" />
<glyph unicode="^" d="M291 682l177 -391h-58l-146 338h-4l-149 -338h-53l177 391h56z" />
<glyph unicode="_" horiz-adv-x="512" d="M512 -86v-39h-512v39h512z" />
<glyph unicode="`" horiz-adv-x="226" d="M114 654l72 -140h-29l-117 140h74z" />
<glyph unicode="a" horiz-adv-x="390" d="M400 41v-38q-17 -12 -43 -12q-55 0 -64 55q-63 -55 -136 -55q-61 0 -99 31.5t-38 91.5q0 96 136 140q43 14 131 40v26q0 48 -33.5 72.5t-83.5 24.5q-39 0 -67.5 -9t-72.5 -30v48q71 32 149 32q65 0 111 -33t46 -96v-263q0 -34 34 -34q18 0 30 9zM287 89v165 q-58 -18 -86 -29q-3 -1 -18.5 -6.5t-20 -7.5t-18.5 -8t-19.5 -10t-16.5 -11t-15.5 -13.5t-10.5 -15.5t-8.5 -19t-2.5 -22q0 -37 26 -58.5t65 -21.5q66 0 125 57z" />
<glyph unicode="b" horiz-adv-x="467" d="M427 234q0 -118 -69 -180.5t-188 -62.5q-54 0 -110 17v674h49v-255q46 31 112 31q92 0 149 -65.5t57 -158.5zM376 225q0 76 -44 134t-118 58q-55 0 -105 -32v-344q36 -9 73 -9q84 0 139 54.5t55 138.5z" />
<glyph unicode="c" horiz-adv-x="412" d="M392 61v-48q-54 -22 -128 -22q-102 0 -163 65.5t-61 168.5t61.5 168t164.5 65q71 0 126 -22v-48q-53 29 -118 29q-84 0 -133.5 -54t-49.5 -138q0 -85 50 -139t134 -54q65 0 117 29z" />
<glyph unicode="d" horiz-adv-x="479" d="M419 682v-682h-122q-119 0 -188 58.5t-69 175.5q0 91 58 157.5t148 66.5q73 0 124 -28v252h49zM290 37h80v350q-46 30 -105 30q-83 0 -128.5 -51t-45.5 -135q0 -89 55 -141.5t144 -52.5z" />
<glyph unicode="e" horiz-adv-x="488" d="M448 219v-14h-357q7 -77 64 -125t135 -48q67 0 130 33v-45q-54 -29 -132 -29q-103 0 -175.5 66t-72.5 168t52.5 167.5t153.5 65.5q100 0 151 -68t51 -171zM91 242h305q0 73 -40 124t-111 51q-73 0 -113.5 -50.5t-40.5 -124.5z" />
<glyph unicode="f" horiz-adv-x="285" d="M285 682v-41q-35 9 -70 9q-43 0 -68 -27.5t-25 -71.5v-102h127v-37h-127v-412h-49v412h-63v37h63v98q0 67 38 105.5t105 38.5q34 0 69 -9z" />
<glyph unicode="g" horiz-adv-x="397" d="M31 294q0 61 43.5 108t131.5 47h181v-44l-89 11q66 -37 66 -124q0 -55 -35.5 -98t-111.5 -51q-48 -5 -71.5 -14t-23.5 -30q0 -18 19 -26.5t61 -18.5q7 -1 10 -2l64 -16q64 -14 97.5 -47.5t33.5 -80.5q0 -56 -50 -97t-159 -41q-85 0 -146.5 37t-61.5 109q0 31 14.5 56 t37 38.5t35.5 19.5t25 9q-34 20 -34 53q0 45 61 59v2q-98 35 -98 141zM135 23q-36 -11 -66.5 -37t-30.5 -66q0 -51 43.5 -80.5t121.5 -29.5q71 0 113 27.5t42 68.5q0 39 -35.5 60t-98.5 36q-31 7 -89 21zM198 408q-56 0 -86 -32.5t-30 -80.5q0 -52 31.5 -83t84.5 -31 q54 0 84.5 31.5t30.5 82.5q0 48 -29.5 80.5t-85.5 32.5z" />
<glyph unicode="h" horiz-adv-x="450" d="M400 293v-293h-49v292q0 60 -32 92.5t-92 32.5q-57 0 -118 -48v-369h-49v682h49v-266q58 42 127 42q77 0 120.5 -44t43.5 -121z" />
<glyph unicode="i" horiz-adv-x="172" d="M122 655q0 -15 -10.5 -25.5t-25.5 -10.5t-25.5 10.5t-10.5 25.5t10.5 25.5t25.5 10.5t25.5 -10.5t10.5 -25.5zM111 449v-449h-49v449h49z" />
<glyph unicode="j" horiz-adv-x="185" d="M128 651q0 -17 -12 -28.5t-28 -11.5t-28 11.5t-12 28.5t12 28.5t28 11.5t28 -11.5t12 -28.5zM113 449v-525q0 -71 -34.5 -112.5t-104.5 -41.5q-14 0 -29 3v40q14 -2 21 -2q46 0 72 25.5t26 71.5v541h49z" />
<glyph unicode="k" horiz-adv-x="376" d="M170 232l226 -232h-62l-221 229l194 220h56zM109 682v-682h-49v682h49z" />
<glyph unicode="l" horiz-adv-x="169" d="M109 682v-682h-49v682h49z" />
<glyph unicode="m" horiz-adv-x="713" d="M653 315v-315h-49v319q0 46 -28.5 72t-75.5 26q-63 0 -124 -61q5 -27 5 -50v-306h-49v323q0 44 -29.5 69t-73.5 25q-62 0 -120 -56v-361h-49v449h47v-39q53 48 128 48q84 0 127 -64q61 64 141 64q67 0 108.5 -38t41.5 -105z" />
<glyph unicode="n" horiz-adv-x="457" d="M397 307v-307h-49v306q0 50 -33 80.5t-83 30.5q-30 0 -65 -15t-58 -37v-365h-49v449h47v-40q55 49 131 49q71 0 115 -40.5t44 -110.5z" />
<glyph unicode="o" horiz-adv-x="560" d="M520 225q0 -105 -67.5 -169.5t-172.5 -64.5t-172.5 64.5t-67.5 169.5q0 104 67.5 168.5t172.5 64.5t172.5 -64.5t67.5 -168.5zM469 224q0 84 -52.5 138.5t-136.5 54.5t-136.5 -54t-52.5 -139q0 -84 52.5 -138t136.5 -54t136.5 54.5t52.5 137.5z" />
<glyph unicode="p" horiz-adv-x="479" d="M439 215q0 -92 -59.5 -158t-151.5 -66q-74 0 -119 26v-247h-49v679h122q120 0 188.5 -58.5t68.5 -175.5zM388 218q0 89 -55 141.5t-144 52.5h-80v-347q46 -33 104 -33q84 0 129.5 50.5t45.5 135.5z" />
<glyph unicode="q" horiz-adv-x="479" d="M419 449v-679h-49v248q-45 -27 -119 -27q-91 0 -151 66.5t-60 157.5q0 117 69 175.5t188 58.5h122zM370 65v347h-80q-89 0 -144 -52.5t-55 -141.5q0 -85 45.5 -135.5t129.5 -50.5q58 0 104 33z" />
<glyph unicode="r" horiz-adv-x="329" d="M329 439l-18 -44q-35 22 -81 22q-52 0 -121 -67v-350h-49v449h47v-46h2q62 55 134 55q53 0 86 -19z" />
<glyph unicode="s" horiz-adv-x="382" d="M352 118q0 -46 -28 -75.5t-65.5 -40.5t-82.5 -11q-90 0 -156 33l20 45q66 -37 142 -37q44 0 81.5 20.5t37.5 60.5q0 32 -27 52t-65 32t-76 25.5t-65 42t-27 72.5q0 61 45 91t110 30q91 0 151 -28l-18 -43q-67 30 -126 30q-43 0 -77 -19t-34 -58q0 -31 18.5 -47t54.5 -29 q10 -4 38 -13.5t43 -15t38.5 -18t36 -25t22 -32t9.5 -42.5z" />
<glyph unicode="t" horiz-adv-x="280" d="M280 40v-41q-34 -8 -65 -8q-148 0 -148 144v277h-67v7l112 111h4v-81h161v-37h-161v-281q0 -99 97 -99q32 0 67 8z" />
<glyph unicode="u" horiz-adv-x="457" d="M397 449v-449h-47v41q-55 -50 -131 -50q-71 0 -115 40.5t-44 111.5v306h49v-305q0 -50 33 -81t83 -31q30 0 65 15t58 37v365h49z" />
<glyph unicode="v" horiz-adv-x="365" d="M0 449h57l123 -346h4l132 346h49l-175 -458h-20z" />
<glyph unicode="w" horiz-adv-x="554" d="M10 449h51l94 -343h3l91 343h61l92 -343h2l92 343h48l-129 -458h-28l-109 394h-2l-108 -394h-28z" />
<glyph unicode="x" horiz-adv-x="347" d="M198 254l169 -254h-59l-138 210l-136 -210h-54l161 250l-132 199h59l101 -155l99 155h56z" />
<glyph unicode="y" horiz-adv-x="394" d="M331 449h53l-245 -679h-56l86 231l-159 448h53l132 -367h4z" />
<glyph unicode="z" horiz-adv-x="318" d="M308 37v-37h-298v14l228 398h-219v37h288v-14l-227 -398h228z" />
<glyph unicode="{" horiz-adv-x="346" d="M306 -178v-43h-44q-70 0 -105.5 40.5t-35.5 112.5v151q0 48 -22 84t-68 36h-11v55h11q46 0 68 36t22 84v151q0 71 35 112t104 41h46v-43h-23q-111 0 -111 -113v-147q0 -55 -24.5 -95.5t-75.5 -52.5v-1q51 -13 75.5 -52.5t24.5 -95.5v-145q0 -115 111 -115h23z" />
<glyph unicode="|" horiz-adv-x="171" d="M111 750v-1000h-51v1000h51z" />
<glyph unicode="}" horiz-adv-x="346" d="M326 258v-55h-11q-45 0 -67.5 -36t-22.5 -84v-151q0 -72 -35.5 -112.5t-105.5 -40.5h-44v43h23q111 0 111 115v145q0 56 24.5 95.5t75.5 52.5v1q-51 12 -75.5 52.5t-24.5 95.5v147q0 113 -111 113h-23v43h46q69 0 104 -41t35 -112v-151q0 -48 22.5 -84t67.5 -36h11z" />
<glyph unicode="~" horiz-adv-x="615" d="M575 300v-49q-70 -50 -141 -50q-50 0 -134 42t-129 42q-62 0 -131 -54v49q70 50 141 50q49 0 133 -41.5t131 -41.5q62 0 130 53z" />
<glyph unicode="&#xa1;" horiz-adv-x="189" d="M129 437q0 -14 -10 -24t-24 -10t-24.5 10t-10.5 24t10.5 24.5t24.5 10.5t24 -10.5t10 -24.5zM118 183v-402h-49v402q0 16 4 55t5 48h32q0 -5 4 -46t4 -57z" />
<glyph unicode="&#xa2;" d="M439 62v-49q-49 -19 -105 -21v-103h-44v103q-94 7 -148.5 72t-54.5 161q0 95 54.5 160t148.5 72v104h44v-103q57 -3 105 -22v-48q-53 29 -118 29q-84 0 -133.5 -54t-49.5 -138q0 -85 50 -139t133 -54q67 0 118 30z" />
<glyph unicode="&#xa3;" d="M480 681v-48q-37 12 -77 12q-72 0 -108.5 -45t-51.5 -123l-25 -125h172v-43h-180l-51 -266h274v-43h-366v43h38l52 266h-86v43h95l26 132q18 94 70 150.5t142 56.5q34 0 76 -10z" />
<glyph unicode="&#xa5;" d="M415 682h51l-167 -371h136v-44h-146v-71h146v-44h-146v-152h-52v152h-146v44h146v71h-146v44h136l-167 371h54l150 -341z" />
<glyph unicode="&#xa6;" horiz-adv-x="171" d="M111 682v-350h-51v350h51zM111 182v-350h-51v350h51z" />
<glyph unicode="&#xa7;" horiz-adv-x="448" d="M418 183q0 -90 -85 -156q32 -44 32 -92q0 -70 -50.5 -111.5t-121.5 -41.5q-65 0 -121 22v52q62 -27 118 -27q48 0 85 27.5t37 74.5q0 29 -14.5 53.5t-28 36.5t-44.5 35q-62 46 -92 70q-49 38 -76 76t-27 88q0 89 85 157q-32 42 -32 95q0 69 50.5 109t121.5 40 q68 0 121 -21v-53q-55 28 -118 28q-50 0 -85.5 -26.5t-35.5 -73.5q0 -30 12.5 -53.5t26.5 -36t43 -34.5q17 -12 48.5 -36t36.5 -28q27 -21 43 -36t34.5 -37.5t27.5 -47t9 -53.5zM365 173q0 12 -1.5 23t-3.5 19.5t-7.5 18t-8 15.5t-11.5 15t-12 12.5t-14.5 13t-14.5 11.5 t-16.5 12.5t-16.5 12.5q-9 7 -29 21.5t-32.5 24t-29 23t-27.5 24.5q-23 -21 -40.5 -55.5t-17.5 -63.5q0 -27 6.5 -48t24 -40t28.5 -28t40 -31q7 -6 38.5 -28.5t51.5 -39t34 -31.5q24 22 41.5 56t17.5 63z" />
<glyph unicode="&#xa8;" horiz-adv-x="322" d="M282 591q0 -16 -11 -27t-27 -11q-15 0 -26 11t-11 27q0 15 11 26t26 11q16 0 27 -11t11 -26zM115 591q0 -16 -11 -27t-27 -11q-15 0 -26 11t-11 27q0 15 11 26t26 11q16 0 27 -11t11 -26z" />
<glyph unicode="&#xa9;" horiz-adv-x="820" d="M760 341q0 -145 -102.5 -247.5t-247.5 -102.5t-247.5 102.5t-102.5 247.5t102.5 247.5t247.5 102.5t247.5 -102.5t102.5 -247.5zM719 341q0 128 -90.5 218.5t-218.5 90.5t-219 -90.5t-91 -218.5t91 -219t219 -91t218.5 91t90.5 219zM544 209v-49q-51 -18 -106 -18 q-90 0 -150.5 55t-60.5 144q0 87 61.5 141t149.5 54q56 0 106 -18v-48q-55 23 -102 23q-65 0 -115.5 -44t-50.5 -108q0 -65 50 -110t116 -45q45 0 102 23z" />
<glyph unicode="&#xaa;" horiz-adv-x="358" d="M292 437v-24q-11 -7 -29 -7q-34 0 -39 33q-32 -33 -80 -33q-38 0 -61 19t-23 56q0 58 83 86q14 4 40 12t37 11v16q0 30 -20 44t-51 14q-40 0 -83 -25v33q44 19 88 19q40 0 69.5 -20t29.5 -58v-161q0 -21 21 -21q10 0 18 6zM298 364v-28h-234v28h234zM220 467v96 q-34 -10 -50 -17q-19 -7 -26.5 -10t-22.5 -11t-21 -19t-6 -25q0 -22 15.5 -34.5t37.5 -12.5q38 0 73 33z" />
<glyph unicode="&#xab;" horiz-adv-x="464" d="M276 225l148 -225h-54l-147 225l147 225h54zM73 225l148 -225h-54l-147 225l147 225h54z" />
<glyph unicode="&#xac;" d="M479 376v-295h-51v251h-382v44h433z" />
<glyph unicode="&#xad;" horiz-adv-x="363" d="M303 277v-43h-243v43h243z" />
<glyph unicode="&#xae;" horiz-adv-x="820" d="M760 341q0 -145 -102.5 -247.5t-247.5 -102.5t-247.5 102.5t-102.5 247.5t102.5 247.5t247.5 102.5t247.5 -102.5t102.5 -247.5zM720 341q0 128 -91 218.5t-219 90.5t-219 -90.5t-91 -218.5t91 -219t219 -91t219 91t91 219zM482 332l110 -173h-57l-103 164h-90v-164h-49 v385h134q54 0 88.5 -29t34.5 -82q0 -35 -18 -62t-50 -39zM503 433q0 34 -21 52.5t-56 18.5h-84v-142h84q35 0 56 18.5t21 52.5z" />
<glyph unicode="&#xaf;" horiz-adv-x="411" d="M371 614v-52h-331v52h331z" />
<glyph unicode="&#xb0;" horiz-adv-x="350" d="M310 556q0 -56 -39.5 -95.5t-95.5 -39.5t-95.5 39.5t-39.5 95.5t39.5 95.5t95.5 39.5t95.5 -39.5t39.5 -95.5zM280 556q0 43 -30.5 73.5t-74.5 30.5q-43 0 -73.5 -30.5t-30.5 -73.5t30.5 -73.5t73.5 -30.5q44 0 74.5 30.5t30.5 73.5z" />
<glyph unicode="&#xb1;" d="M489 376v-44h-200v-215h-52v215h-200v44h200v213h52v-213h200zM489 43v-43h-452v43h452z" />
<glyph unicode="&#xb2;" horiz-adv-x="328" d="M64 626v46l4 2q4 1 9 3t13 4.5t16.5 4.5t18.5 3.5t20 1.5q63 0 97.5 -32t34.5 -82q0 -13 -2 -24.5t-7.5 -24t-8.5 -20t-13 -20.5t-12 -16.5t-14 -17.5l-13 -15q-13 -16 -57 -70h138v-37h-228v9l78 86q63 70 78 97q14 26 14 48q0 34 -21 56t-69 22q-10 0 -21 -2.5 t-20.5 -6t-16.5 -6.5t-12 -6z" />
<glyph unicode="&#xb3;" horiz-adv-x="324" d="M70 634v43q42 14 86 14q63 0 92 -30t29 -67q0 -57 -62 -80v-1q10 -2 23 -8t29.5 -26.5t16.5 -49.5q0 -47 -37.5 -74.5t-93.5 -27.5q-39 0 -93 18v46q48 -24 86 -24q46 0 68 19.5t22 51.5q0 23 -21 41t-59 18h-28v34h28q35 0 54.5 16t19.5 42q0 25 -19.5 43.5t-63.5 18.5 q-37 0 -77 -17z" />
<glyph unicode="&#xb4;" horiz-adv-x="226" d="M112 654h74l-117 -140h-29z" />
<glyph unicode="&#xb5;" d="M431 449v-449h-47v41q-55 -50 -131 -50q-68 0 -110 36v-206h-49v628h49v-306q0 -50 33 -80.5t83 -30.5q30 0 65 15t58 37v365h49z" />
<glyph unicode="&#xb6;" horiz-adv-x="501" d="M481 682v-43h-70v-838h-52v838h-109v-838h-51v477q-74 16 -121.5 70.5t-47.5 128.5q0 104 67.5 154.5t174.5 50.5h209z" />
<glyph unicode="&#xb7;" horiz-adv-x="189" d="M129 337q0 -14 -10 -24.5t-24 -10.5t-24.5 10.5t-10.5 24.5t10.5 24t24.5 10t24 -10t10 -24z" />
<glyph unicode="&#xb8;" horiz-adv-x="212" d="M172 -103q0 -34 -26 -51.5t-62 -17.5q-20 0 -44 7v29q21 -8 41 -8q21 0 36 10t15 30q0 38 -51 38q-15 0 -30 -5l-4 4l45 74h36l-40 -51l1 -1q8 2 14 2q29 0 49 -16t20 -44z" />
<glyph unicode="&#xb9;" horiz-adv-x="171" d="M87 333v298h-47v10l71 50h20v-358h-44z" />
<glyph unicode="&#xba;" horiz-adv-x="413" d="M353 549q0 -64 -41 -103.5t-105 -39.5q-65 0 -106 39.5t-41 103.5t41.5 103t105.5 39t105 -39.5t41 -102.5zM326 364v-28h-234v28h234zM316 548q0 49 -30.5 80.5t-78.5 31.5q-49 0 -79.5 -31.5t-30.5 -80.5t30.5 -80t79.5 -31q48 0 78.5 31.5t30.5 79.5z" />
<glyph unicode="&#xbb;" horiz-adv-x="464" d="M297 450l147 -225l-147 -225h-54l148 225l-148 225h54zM94 450l147 -225l-147 -225h-54l148 225l-148 225h54z" />
<glyph unicode="&#xbc;" horiz-adv-x="637" d="M327 91v27l184 255h42v-248h44v-34h-44v-91h-45v91h-181zM563 690l-455 -718h-50l455 718h50zM131 332h-44v298h-47v11l71 50h20v-359zM508 293h-2l-123 -168h125v168z" />
<glyph unicode="&#xbd;" horiz-adv-x="673" d="M409 292v47q3 2 14 6t31 9t36 5q63 0 97.5 -32t34.5 -82q0 -9 -1.5 -18t-3 -16.5t-5.5 -16t-6 -14t-8 -14.5t-8.5 -13t-10 -13t-9 -11t-9.5 -11.5t-9 -10.5q-13 -16 -58 -71h139v-36h-228v9l78 86q63 70 78 97q14 26 14 48q0 33 -22 54.5t-68 21.5q-15 0 -33.5 -6 t-29 -11t-13.5 -7zM545 691l-455 -718h-50l455 718h50zM146 691v-358h-44v298h-47v10l71 50h20z" />
<glyph unicode="&#xbe;" horiz-adv-x="695" d="M384 91v27l184 255h42v-248h45v-34h-45v-91h-44v91h-182zM636 690l-455 -718h-50l455 718h50zM70 633v43q42 14 86 14q63 0 92 -30t29 -67q0 -26 -14.5 -45.5t-26 -25t-21.5 -8.5v-2q10 -2 23 -8t29.5 -26.5t16.5 -49.5q0 -47 -37.5 -74.5t-93.5 -27.5q-39 0 -93 18v46 q48 -24 86 -24q46 0 68 19.5t22 51.5q0 23 -21 41t-59 18h-28v34h28q35 0 54.5 16t19.5 42t-19.5 44t-63.5 18q-37 0 -77 -17zM566 293h-3l-123 -168h126v168z" />
<glyph unicode="&#xbf;" horiz-adv-x="312" d="M238 436q0 -14 -10 -24t-24 -10t-24.5 10t-10.5 24t10.5 24.5t24.5 10.5t24 -10.5t10 -24.5zM334 -164v-48q-59 -17 -118 -17q-89 0 -151.5 44.5t-62.5 130.5q0 49 28.5 92.5t62 70.5t62 64.5t28.5 76.5v35h50v-39q0 -38 -18 -71t-44 -57.5t-52.5 -48.5t-44.5 -54 t-18 -63q0 -69 49 -102t122 -33q50 0 107 19z" />
<glyph unicode="&#xc0;" horiz-adv-x="596" d="M268 867l72 -140h-29l-117 140h74zM310 691l306 -691h-56l-102 224h-330l-93 -224h-55l290 691h40zM147 267h296l-154 345z" />
<glyph unicode="&#xc1;" horiz-adv-x="596" d="M313 867h74l-116 -140h-29zM310 691l306 -691h-56l-102 224h-330l-93 -224h-55l290 691h40zM147 267h296l-154 345z" />
<glyph unicode="&#xc2;" horiz-adv-x="596" d="M313 867l108 -140h-35l-97 93l-90 -93h-35l98 140h51zM310 691l306 -691h-56l-102 224h-330l-93 -224h-55l290 691h40zM147 267h296l-154 345z" />
<glyph unicode="&#xc3;" horiz-adv-x="596" d="M409 855h26q0 -39 -23.5 -68t-62.5 -29q-32 0 -68 24t-55 24q-47 0 -54 -52h-27q0 39 23.5 67.5t62.5 28.5q32 0 68 -24t55 -24q48 0 55 53zM310 691l306 -691h-56l-102 224h-330l-93 -224h-55l290 691h40zM147 267h296l-154 345z" />
<glyph unicode="&#xc4;" horiz-adv-x="596" d="M406 801q0 -15 -11 -26t-26 -11q-16 0 -27 11t-11 26q0 16 11 27t27 11q15 0 26 -11t11 -27zM239 801q0 -15 -11 -26t-27 -11q-15 0 -26 11t-11 26q0 16 11 27t26 11q16 0 27 -11t11 -27zM310 691l306 -691h-56l-102 224h-330l-93 -224h-55l290 691h40zM147 267h296 l-154 345z" />
<glyph unicode="&#xc5;" horiz-adv-x="596" d="M366 806q0 -31 -22 -53t-53 -22t-53.5 22t-22.5 53t22 53t54 22q31 0 53 -22t22 -53zM310 691l306 -691h-56l-102 224h-330l-93 -224h-55l290 691h40zM340 806q0 20 -14.5 35t-34.5 15t-35 -15t-15 -35t15 -34.5t35 -14.5t34.5 14.5t14.5 34.5zM147 267h296l-154 345z " />
<glyph unicode="&#xc6;" horiz-adv-x="781" d="M751 43v-43h-354v224h-238l-127 -224h-52l386 682h376v-43h-294v-263h268v-43h-268v-290h303zM182 267h215v372h-3z" />
<glyph unicode="&#xc7;" horiz-adv-x="622" d="M602 80v-57q-79 -29 -171 -32l-33 -41l1 -1q8 2 14 2q29 0 49 -16t20 -44q0 -34 -26 -51.5t-61 -17.5q-25 0 -45 7v29q22 -9 41 -9q20 0 35.5 10.5t15.5 29.5q0 39 -51 39q-17 0 -30 -6l-4 4l41 65q-151 5 -249.5 102.5t-98.5 247.5q0 155 103.5 252.5t260.5 97.5 q102 0 188 -32v-57q-100 43 -182 43q-132 0 -224.5 -86.5t-92.5 -217.5q0 -132 92 -218t225 -86q80 0 182 43z" />
<glyph unicode="&#xc8;" horiz-adv-x="506" d="M278 867l72 -140h-29l-117 140h74zM476 43v-43h-396v682h387v-43h-336v-263h310v-43h-310v-290h345z" />
<glyph unicode="&#xc9;" horiz-adv-x="506" d="M294 867h74l-117 -140h-29zM476 43v-43h-396v682h387v-43h-336v-263h310v-43h-310v-290h345z" />
<glyph unicode="&#xca;" horiz-adv-x="506" d="M295 867l108 -140h-36l-96 93l-91 -93h-35l98 140h52zM476 43v-43h-396v682h387v-43h-336v-263h310v-43h-310v-290h345z" />
<glyph unicode="&#xcb;" horiz-adv-x="506" d="M400 801q0 -15 -10.5 -26t-26.5 -11q-15 0 -26 11t-11 26q0 16 11 27t26 11q16 0 26.5 -11t10.5 -27zM233 801q0 -15 -10.5 -26t-26.5 -11q-15 0 -26 11t-11 26q0 16 11 27t26 11q16 0 26.5 -11t10.5 -27zM476 43v-43h-396v682h387v-43h-336v-263h310v-43h-310v-290h345z " />
<glyph unicode="&#xcc;" horiz-adv-x="211" d="M107 867l72 -140h-29l-117 140h74zM134 682v-682h-52v682h52z" />
<glyph unicode="&#xcd;" horiz-adv-x="211" d="M105 867h74l-117 -140h-29zM126 682v-682h-51v682h51z" />
<glyph unicode="&#xce;" horiz-adv-x="211" d="M126 867l108 -140h-35l-97 93l-90 -93h-35l98 140h51zM124 682v-682h-51v682h51z" />
<glyph unicode="&#xcf;" horiz-adv-x="211" d="M227 801q0 -15 -11 -26t-27 -11q-15 0 -26 11t-11 26q0 16 11 26.5t26 10.5q16 0 27 -10.5t11 -26.5zM59 801q0 -15 -10.5 -26t-26.5 -11q-15 0 -26 11t-11 26q0 16 11 26.5t26 10.5q16 0 26.5 -10.5t10.5 -26.5zM132 682v-682h-51v682h51z" />
<glyph unicode="&#xd0;" horiz-adv-x="672" d="M622 341q0 -153 -95 -247t-248 -94h-200v319h-79v44h79v319h200q152 0 247.5 -94.5t95.5 -246.5zM569 341q0 61 -27 123q-36 83 -104 129t-158 46h-149v-276h239v-44h-239v-276h149q121 0 205 88.5t84 209.5z" />
<glyph unicode="&#xd1;" horiz-adv-x="698" d="M478 855h27q0 -39 -24 -68t-62 -29q-33 0 -68.5 24t-55.5 24q-47 0 -54 -52h-27q0 39 24 67.5t62 28.5q33 0 69 -24t55 -24q47 0 54 53zM618 682v-682h-51l-434 601h-2v-601h-51v682h58l426 -585h3v585h51z" />
<glyph unicode="&#xd2;" horiz-adv-x="822" d="M425 867l72 -140h-29l-117 140h74zM772 341q0 -148 -106 -249t-255 -101t-255 101t-106 249t106 249t255 101t255 -101t106 -249zM718 341q0 128 -89.5 216t-217.5 88q-129 0 -218 -87.5t-89 -216.5q0 -128 89.5 -216t217.5 -88t217.5 88t89.5 216z" />
<glyph unicode="&#xd3;" horiz-adv-x="822" d="M403 867h74l-117 -140h-29zM772 341q0 -148 -106 -249t-255 -101t-255 101t-106 249t106 249t255 101t255 -101t106 -249zM718 341q0 128 -89.5 216t-217.5 88q-129 0 -218 -87.5t-89 -216.5q0 -128 89.5 -216t217.5 -88t217.5 88t89.5 216z" />
<glyph unicode="&#xd4;" horiz-adv-x="822" d="M435 867l108 -140h-36l-96 93l-91 -93h-35l98 140h52zM772 341q0 -148 -106 -249t-255 -101t-255 101t-106 249t106 249t255 101t255 -101t106 -249zM718 341q0 128 -89.5 216t-217.5 88q-129 0 -218 -87.5t-89 -216.5q0 -128 89.5 -216t217.5 -88t217.5 88t89.5 216z " />
<glyph unicode="&#xd5;" horiz-adv-x="822" d="M555 855v-2q1 -35 -22.5 -65t-57.5 -30q-32 0 -68 24t-55 24q-39 0 -57 -53h-17v3q-1 34 22 64t57 30q32 0 68 -24t55 -24q41 0 57 53h18zM772 341q0 -148 -106 -249t-255 -101t-255 101t-106 249t106 249t255 101t255 -101t106 -249zM718 341q0 128 -89.5 216t-217.5 88 q-129 0 -218 -87.5t-89 -216.5q0 -128 89.5 -216t217.5 -88t217.5 88t89.5 216z" />
<glyph unicode="&#xd6;" horiz-adv-x="822" d="M532 801q0 -15 -10.5 -26t-26.5 -11q-15 0 -26 11t-11 26q0 16 11 26.5t26 10.5q16 0 26.5 -10.5t10.5 -26.5zM365 801q0 -15 -11 -26t-26 -11q-16 0 -26.5 11t-10.5 26q0 16 10.5 26.5t26.5 10.5q15 0 26 -10.5t11 -26.5zM772 341q0 -148 -106 -249t-255 -101t-255 101 t-106 249t106 249t255 101t255 -101t106 -249zM718 341q0 128 -89.5 216t-217.5 88q-129 0 -218 -87.5t-89 -216.5q0 -128 89.5 -216t217.5 -88t217.5 88t89.5 216z" />
<glyph unicode="&#xd7;" d="M296 357l168 -168l-36 -37l-169 169l-165 -165l-31 31l165 165l-166 166l36 37l167 -167l164 165l31 -31z" />
<glyph unicode="&#xd8;" horiz-adv-x="822" d="M772 341q0 -148 -106 -249t-255 -101q-121 0 -215 67l-50 -59l-29 25l50 57q-56 50 -86.5 118t-30.5 142q0 148 106 249t255 101q124 0 218 -70l55 65l29 -24l-55 -64q114 -103 114 -257zM718 341q0 130 -92 219l-398 -465q79 -58 183 -58q128 0 217.5 88t89.5 216z M199 119l398 465q-82 61 -186 61q-129 0 -218 -87.5t-89 -216.5q0 -62 25 -120.5t70 -101.5z" />
<glyph unicode="&#xd9;" horiz-adv-x="654" d="M295 867l72 -140h-29l-117 140h74zM574 682v-419q0 -128 -60 -200t-187 -72q-130 0 -188.5 70t-58.5 202v419h51v-441q0 -98 49 -151t147 -53t146.5 53t48.5 151v441h52z" />
<glyph unicode="&#xda;" horiz-adv-x="654" d="M369 867h74l-117 -140h-29zM574 682v-419q0 -128 -60 -200t-187 -72q-130 0 -188.5 70t-58.5 202v419h51v-441q0 -98 49 -151t147 -53t146.5 53t48.5 151v441h52z" />
<glyph unicode="&#xdb;" horiz-adv-x="654" d="M358 867l108 -140h-35l-97 93l-90 -93h-35l98 140h51zM574 682v-419q0 -128 -60 -200t-187 -72q-130 0 -188.5 70t-58.5 202v419h51v-441q0 -98 49 -151t147 -53t146.5 53t48.5 151v441h52z" />
<glyph unicode="&#xdc;" horiz-adv-x="654" d="M460 801q0 -15 -10.5 -26t-26.5 -11q-15 0 -26 11t-11 26q0 16 11 26.5t26 10.5q16 0 26.5 -10.5t10.5 -26.5zM293 801q0 -15 -10.5 -26t-26.5 -11q-15 0 -26 11t-11 26q0 16 11 26.5t26 10.5q16 0 26.5 -10.5t10.5 -26.5zM574 682v-419q0 -128 -60 -200t-187 -72 q-130 0 -188.5 70t-58.5 202v419h51v-441q0 -98 49 -151t147 -53t146.5 53t48.5 151v441h52z" />
<glyph unicode="&#xdd;" horiz-adv-x="479" d="M274 867h74l-117 -140h-29zM424 682h55l-213 -408v-274h-51v275l-215 407h57l185 -346h3z" />
<glyph unicode="&#xde;" horiz-adv-x="525" d="M485 340q0 -91 -62 -142t-156 -51h-136v-147h-51v682h51v-148h136q93 0 155.5 -51t62.5 -143zM432 340q0 67 -48.5 108.5t-117.5 41.5h-135v-300h135q71 0 118.5 40t47.5 110z" />
<glyph unicode="&#xdf;" horiz-adv-x="502" d="M462 183q0 -85 -55.5 -138.5t-140.5 -53.5q-35 0 -63 7v42q22 -8 47 -8q69 0 115 42t46 110q0 55 -33 93.5t-88 57.5q-33 11 -60 11h-20v37h20q61 0 107 37t46 96q0 57 -39 93t-97 36q-66 0 -102 -41.5t-36 -108.5v-495h-49v512q0 84 51 131.5t136 47.5q82 0 134.5 -46.5 t52.5 -126.5q0 -118 -109 -150v-4q65 -15 101 -64t36 -117z" />
<glyph unicode="&#xe0;" horiz-adv-x="390" d="M180 654l72 -140h-29l-117 140h74zM400 41v-38q-17 -12 -43 -12q-55 0 -64 55q-63 -55 -136 -55q-61 0 -99 31.5t-38 91.5q0 96 136 140q43 14 131 40v26q0 48 -33.5 72.5t-83.5 24.5q-39 0 -67.5 -9t-72.5 -30v48q71 32 149 32q65 0 111 -33t46 -96v-263q0 -34 34 -34 q18 0 30 9zM287 89v165q-19 -6 -86 -29q-28 -10 -36 -12.5t-32 -14t-33.5 -21.5t-19 -27t-9.5 -38q0 -37 26 -58.5t65 -21.5q66 0 125 57z" />
<glyph unicode="&#xe1;" horiz-adv-x="390" d="M185 654h74l-117 -140h-29zM400 41v-38q-17 -12 -43 -12q-55 0 -64 55q-63 -55 -136 -55q-61 0 -99 31.5t-38 91.5q0 96 136 140q43 14 131 40v26q0 48 -33.5 72.5t-83.5 24.5q-39 0 -67.5 -9t-72.5 -30v48q71 32 149 32q65 0 111 -33t46 -96v-263q0 -34 34 -34 q18 0 30 9zM287 89v165q-19 -6 -86 -29q-28 -10 -36 -12.5t-32 -14t-33.5 -21.5t-19 -27t-9.5 -38q0 -37 26 -58.5t65 -21.5q66 0 125 57z" />
<glyph unicode="&#xe2;" horiz-adv-x="390" d="M208 654l108 -140h-35l-97 93l-90 -93h-35l98 140h51zM400 41v-38q-17 -12 -43 -12q-55 0 -64 55q-63 -55 -136 -55q-61 0 -99 31.5t-38 91.5q0 96 136 140q43 14 131 40v26q0 48 -33.5 72.5t-83.5 24.5q-39 0 -67.5 -9t-72.5 -30v48q71 32 149 32q65 0 111 -33t46 -96 v-263q0 -34 34 -34q18 0 30 9zM287 89v165q-19 -6 -86 -29q-28 -10 -36 -12.5t-32 -14t-33.5 -21.5t-19 -27t-9.5 -38q0 -37 26 -58.5t65 -21.5q66 0 125 57z" />
<glyph unicode="&#xe3;" horiz-adv-x="390" d="M299 637h27q0 -39 -24 -68t-62 -29q-33 0 -68.5 24t-54.5 24q-48 0 -55 -52h-26q0 39 23.5 67.5t61.5 28.5q33 0 69 -24t55 -24q47 0 54 53zM400 41v-38q-17 -12 -43 -12q-55 0 -64 55q-63 -55 -136 -55q-61 0 -99 31.5t-38 91.5q0 96 136 140q43 14 131 40v26 q0 48 -33.5 72.5t-83.5 24.5q-39 0 -67.5 -9t-72.5 -30v48q71 32 149 32q65 0 111 -33t46 -96v-263q0 -34 34 -34q18 0 30 9zM287 89v165q-19 -6 -86 -29q-28 -10 -36 -12.5t-32 -14t-33.5 -21.5t-19 -27t-9.5 -38q0 -37 26 -58.5t65 -21.5q66 0 125 57z" />
<glyph unicode="&#xe4;" horiz-adv-x="390" d="M297 591q0 -16 -11 -27t-27 -11q-15 0 -26 11t-11 27q0 15 11 26t26 11q16 0 27 -11t11 -26zM130 591q0 -16 -11 -27t-27 -11q-15 0 -26 11t-11 27q0 15 11 26t26 11q16 0 27 -11t11 -26zM400 41v-38q-17 -12 -43 -12q-55 0 -64 55q-63 -55 -136 -55q-61 0 -99 31.5 t-38 91.5q0 96 136 140q43 14 131 40v26q0 48 -33.5 72.5t-83.5 24.5q-39 0 -67.5 -9t-72.5 -30v48q71 32 149 32q65 0 111 -33t46 -96v-263q0 -34 34 -34q18 0 30 9zM287 89v165q-58 -18 -86 -29q-3 -1 -18.5 -6.5t-20 -7.5t-18.5 -8t-19.5 -10t-16.5 -11t-15.5 -13.5 t-10.5 -15.5t-8.5 -19t-2.5 -22q0 -37 26 -58.5t65 -21.5q66 0 125 57z" />
<glyph unicode="&#xe5;" horiz-adv-x="390" d="M259 579q0 -31 -22 -53t-53 -22t-53 22t-22 53t21.5 53t53.5 22t53.5 -22t21.5 -53zM400 41v-38q-17 -12 -43 -12q-55 0 -64 55q-63 -55 -136 -55q-61 0 -99 31.5t-38 91.5q0 96 136 140q43 14 131 40v26q0 48 -33.5 72.5t-83.5 24.5q-39 0 -67.5 -9t-72.5 -30v48 q71 32 149 32q65 0 111 -33t46 -96v-263q0 -34 34 -34q18 0 30 9zM233 579q0 20 -14.5 35t-34.5 15t-34.5 -15t-14.5 -35t14.5 -34.5t34.5 -14.5t34.5 14.5t14.5 34.5zM287 89v165q-58 -18 -86 -29q-3 -1 -18.5 -6.5t-20 -7.5t-18.5 -8t-19.5 -10t-16.5 -11t-15.5 -13.5 t-10.5 -15.5t-8.5 -19t-2.5 -22q0 -37 26 -58.5t65 -21.5q66 0 125 57z" />
<glyph unicode="&#xe6;" horiz-adv-x="733" d="M693 219v-14h-356q6 -66 57.5 -119.5t141.5 -53.5q17 0 33 2t26.5 4t23.5 6.5t18.5 7t16 7.5t12.5 6v-45q-58 -29 -133 -29q-48 0 -89 13.5t-65.5 33t-38 34.5t-19.5 25q-3 -11 -12 -25.5t-27 -34t-50 -33t-71 -13.5q-71 0 -106 36.5t-35 93.5q0 53 41.5 87t113.5 34h114 v46q0 62 -30.5 95.5t-101.5 33.5q-55 0 -127 -39v48q64 32 140 32q35 0 63 -8.5t43.5 -19t26.5 -25.5t14 -22t5 -13q4 9 13.5 20.5t29 28.5t53 28t73.5 11q70 0 117 -35.5t66 -87.5t19 -116zM337 242h305q0 39 -12.5 76t-48.5 68t-90 31q-36 0 -64.5 -13t-45 -32t-27 -44 t-14 -46t-3.5 -40zM198 205q-56 0 -91.5 -22.5t-35.5 -67.5q0 -36 23 -59.5t69 -23.5q60 0 93 36.5t33 96.5v40h-91z" />
<glyph unicode="&#xe7;" horiz-adv-x="412" d="M392 62v-49q-50 -20 -119 -22l-32 -41l1 -1q8 2 14 2q29 0 49 -16t20 -44q0 -34 -26 -51.5t-62 -17.5q-24 0 -44 7v29q22 -9 41 -9q20 0 35.5 10.5t15.5 29.5q0 39 -51 39q-16 0 -30 -6l-4 4l41 66q-93 7 -147 72.5t-54 160.5q0 103 61.5 168t164.5 65q71 0 126 -22v-48 q-53 29 -118 29q-84 0 -133.5 -54t-49.5 -138q0 -85 50 -139t134 -54q66 0 117 30z" />
<glyph unicode="&#xe8;" horiz-adv-x="488" d="M245 654l72 -140h-29l-117 140h74zM448 219v-14h-357q7 -77 64 -125t135 -48q67 0 130 33v-45q-54 -29 -132 -29q-103 0 -175.5 66t-72.5 168t52.5 167.5t153.5 65.5q100 0 151 -68t51 -171zM91 242h305q0 73 -40 124t-111 51q-73 0 -113.5 -50.5t-40.5 -124.5z" />
<glyph unicode="&#xe9;" horiz-adv-x="488" d="M249 654h74l-117 -140h-29zM448 219v-14h-357q7 -77 64 -125t135 -48q67 0 130 33v-45q-54 -29 -132 -29q-103 0 -175.5 66t-72.5 168t52.5 167.5t153.5 65.5q100 0 151 -68t51 -171zM91 242h305q0 73 -40 124t-111 51q-73 0 -113.5 -50.5t-40.5 -124.5z" />
<glyph unicode="&#xea;" horiz-adv-x="488" d="M271 654l108 -140h-36l-96 93l-90 -93h-36l99 140h51zM448 219v-14h-357q7 -77 64 -125t135 -48q67 0 130 33v-45q-54 -29 -132 -29q-103 0 -175.5 66t-72.5 168t52.5 167.5t153.5 65.5q100 0 151 -68t51 -171zM91 242h305q0 73 -40 124t-111 51q-73 0 -113.5 -50.5 t-40.5 -124.5z" />
<glyph unicode="&#xeb;" horiz-adv-x="488" d="M368 591q0 -16 -11 -26.5t-27 -10.5q-15 0 -26 10.5t-11 26.5q0 15 11 26t26 11q16 0 27 -11t11 -26zM200 591q0 -16 -10.5 -26.5t-26.5 -10.5q-15 0 -26 10.5t-11 26.5q0 15 11 26t26 11q16 0 26.5 -11t10.5 -26zM448 219v-14h-357q7 -77 64 -125t135 -48q67 0 130 33 v-45q-54 -29 -132 -29q-103 0 -175.5 66t-72.5 168t52.5 167.5t153.5 65.5q100 0 151 -68t51 -171zM91 242h305q0 73 -40 124t-111 51q-73 0 -113.5 -50.5t-40.5 -124.5z" />
<glyph unicode="&#xec;" horiz-adv-x="172" d="M84 654l72 -140h-29l-117 140h74zM107 449v-449h-49v449h49z" />
<glyph unicode="&#xed;" horiz-adv-x="172" d="M92 654h74l-117 -140h-29zM113 449v-449h-49v449h49z" />
<glyph unicode="&#xee;" horiz-adv-x="172" d="M109 654l108 -140h-35l-97 93l-90 -93h-35l98 140h51zM108 449v-449h-49v449h49z" />
<glyph unicode="&#xef;" horiz-adv-x="172" d="M192 591q0 -16 -11 -26.5t-26 -10.5q-16 0 -27 10.5t-11 26.5q0 15 11 26t27 11q15 0 26 -11t11 -26zM61 591q0 -16 -11 -26.5t-27 -10.5q-15 0 -26 10.5t-11 26.5q0 15 11 26t26 11q16 0 27 -11t11 -26zM116 449v-449h-49v449h49z" />
<glyph unicode="&#xf0;" horiz-adv-x="560" d="M520 258q0 -120 -61 -193.5t-179 -73.5q-105 0 -172.5 64.5t-67.5 169.5q0 104 67.5 168.5t172.5 64.5q102 0 166 -59l3 1q-33 110 -108 181l-125 -58l-17 34l110 53q-39 29 -78 46l25 35q50 -21 96 -61l126 60l19 -36l-113 -53q136 -135 136 -343zM469 224 q0 84 -52.5 138.5t-136.5 54.5t-136.5 -54t-52.5 -139q0 -84 52.5 -138t136.5 -54t136.5 54.5t52.5 137.5z" />
<glyph unicode="&#xf1;" horiz-adv-x="457" d="M340 637h27q0 -39 -24 -68t-62 -29q-33 0 -68.5 24.5t-55.5 24.5q-47 0 -54 -53h-27q0 39 23.5 68t62.5 29q33 0 69 -24.5t55 -24.5q47 0 54 53zM397 307v-307h-49v306q0 50 -33 80.5t-83 30.5q-30 0 -65 -15t-58 -37v-365h-49v449h47v-40q55 49 131 49q71 0 115 -40.5 t44 -110.5z" />
<glyph unicode="&#xf2;" horiz-adv-x="560" d="M280 654l72 -140h-29l-117 140h74zM520 225q0 -105 -67.5 -169.5t-172.5 -64.5t-172.5 64.5t-67.5 169.5q0 104 67.5 168.5t172.5 64.5t172.5 -64.5t67.5 -168.5zM469 224q0 84 -52.5 138.5t-136.5 54.5t-136.5 -54t-52.5 -139q0 -84 52.5 -138t136.5 -54t136.5 54.5 t52.5 137.5z" />
<glyph unicode="&#xf3;" horiz-adv-x="560" d="M285 654h74l-117 -140h-29zM520 225q0 -105 -67.5 -169.5t-172.5 -64.5t-172.5 64.5t-67.5 169.5q0 104 67.5 168.5t172.5 64.5t172.5 -64.5t67.5 -168.5zM469 224q0 84 -52.5 138.5t-136.5 54.5t-136.5 -54t-52.5 -139q0 -84 52.5 -138t136.5 -54t136.5 54.5t52.5 137.5 z" />
<glyph unicode="&#xf4;" horiz-adv-x="560" d="M305 654l108 -140h-35l-97 93l-90 -93h-35l98 140h51zM520 225q0 -105 -67.5 -169.5t-172.5 -64.5t-172.5 64.5t-67.5 169.5q0 104 67.5 168.5t172.5 64.5t172.5 -64.5t67.5 -168.5zM469 224q0 84 -52.5 138.5t-136.5 54.5t-136.5 -54t-52.5 -139q0 -84 52.5 -138 t136.5 -54t136.5 54.5t52.5 137.5z" />
<glyph unicode="&#xf5;" horiz-adv-x="560" d="M415 637v-2q1 -35 -22 -65t-57 -30q-33 0 -68.5 24.5t-54.5 24.5q-41 0 -57 -53h-18v2q-1 35 22 65t57 30q33 0 69 -24.5t55 -24.5q39 0 57 53h17zM520 225q0 -105 -67.5 -169.5t-172.5 -64.5t-172.5 64.5t-67.5 169.5q0 104 67.5 168.5t172.5 64.5t172.5 -64.5 t67.5 -168.5zM469 224q0 84 -52.5 138.5t-136.5 54.5t-136.5 -54t-52.5 -139q0 -84 52.5 -138t136.5 -54t136.5 54.5t52.5 137.5z" />
<glyph unicode="&#xf6;" horiz-adv-x="560" d="M402 591q0 -16 -11 -26.5t-26 -10.5q-16 0 -26.5 10.5t-10.5 26.5q0 15 10.5 26t26.5 11q15 0 26 -11t11 -26zM235 591q0 -16 -11 -26.5t-26 -10.5q-16 0 -26.5 10.5t-10.5 26.5q0 15 10.5 26t26.5 11q15 0 26 -11t11 -26zM520 225q0 -105 -67.5 -169.5t-172.5 -64.5 t-172.5 64.5t-67.5 169.5q0 104 67.5 168.5t172.5 64.5t172.5 -64.5t67.5 -168.5zM469 224q0 84 -52.5 138.5t-136.5 54.5t-136.5 -54t-52.5 -139q0 -84 52.5 -138t136.5 -54t136.5 54.5t52.5 137.5z" />
<glyph unicode="&#xf7;" d="M298 519q0 -14 -10 -24.5t-24 -10.5q-15 0 -25 10.5t-10 24.5t10 24.5t25 10.5q14 0 24 -10.5t10 -24.5zM479 375v-44h-432v44h432zM298 187q0 -14 -10 -24.5t-24 -10.5q-15 0 -25 10.5t-10 24.5t10 24t25 10q14 0 24 -10t10 -24z" />
<glyph unicode="&#xf8;" horiz-adv-x="560" d="M520 225q0 -105 -67.5 -169.5t-172.5 -64.5q-81 0 -139 37l-55 -65l-33 30l54 63q-67 67 -67 169q0 104 67.5 168.5t172.5 64.5q81 0 139 -38l45 53l33 -30l-43 -50q66 -67 66 -168zM469 224q0 79 -47 132l-251 -293q45 -31 109 -31q84 0 136.5 54.5t52.5 137.5zM138 92 l251 294q-47 31 -109 31q-84 0 -136.5 -54t-52.5 -139q0 -78 47 -132z" />
<glyph unicode="&#xf9;" horiz-adv-x="457" d="M210 654l72 -140h-29l-117 140h74zM397 449v-449h-47v41q-55 -50 -131 -50q-71 0 -115 40.5t-44 111.5v306h49v-306q0 -50 33 -80.5t83 -30.5q30 0 65 15t58 37v365h49z" />
<glyph unicode="&#xfa;" horiz-adv-x="457" d="M238 654h74l-117 -140h-29zM397 449v-449h-47v41q-55 -50 -131 -50q-71 0 -115 40.5t-44 111.5v306h49v-306q0 -50 33 -80.5t83 -30.5q30 0 65 15t58 37v365h49z" />
<glyph unicode="&#xfb;" horiz-adv-x="457" d="M246 654l108 -140h-35l-97 93l-90 -93h-35l98 140h51zM397 449v-449h-47v41q-55 -50 -131 -50q-71 0 -115 40.5t-44 111.5v306h49v-306q0 -50 33 -80.5t83 -30.5q30 0 65 15t58 37v365h49z" />
<glyph unicode="&#xfc;" horiz-adv-x="457" d="M344 591q0 -16 -10.5 -26.5t-26.5 -10.5q-15 0 -26 10.5t-11 26.5q0 15 11 26t26 11q16 0 26.5 -11t10.5 -26zM177 591q0 -16 -11 -26.5t-26 -10.5q-16 0 -26.5 10.5t-10.5 26.5q0 15 10.5 26t26.5 11q15 0 26 -11t11 -26zM397 449v-449h-47v41q-55 -50 -131 -50 q-71 0 -115 40.5t-44 111.5v306h49v-306q0 -50 33 -80.5t83 -30.5q30 0 65 15t58 37v365h49z" />
<glyph unicode="&#xfd;" horiz-adv-x="394" d="M192 654h74l-117 -140h-29zM331 449h53l-245 -679h-56l86 231l-159 448h53l132 -367h4z" />
<glyph unicode="&#xfe;" horiz-adv-x="479" d="M439 215q0 -92 -59.5 -158t-151.5 -66q-74 0 -119 26v-247h-49v912h49v-233h73q120 0 188.5 -58.5t68.5 -175.5zM388 218q0 89 -55 141.5t-144 52.5h-80v-347q46 -33 104 -33q84 0 129.5 50.5t45.5 135.5z" />
<glyph unicode="&#xff;" horiz-adv-x="394" d="M309 591q0 -16 -10.5 -26.5t-26.5 -10.5q-15 0 -26 10.5t-11 26.5q0 15 11 26t26 11q16 0 26.5 -11t10.5 -26zM142 591q0 -16 -10.5 -26.5t-26.5 -10.5q-15 0 -26 10.5t-11 26.5q0 15 11 26t26 11q16 0 26.5 -11t10.5 -26zM331 449h53l-245 -679h-56l86 231l-159 448h53 l132 -367h4z" />
<glyph unicode="&#x152;" horiz-adv-x="838" d="M808 43v-43h-397q-149 0 -255 96.5t-106 244.5t106 244.5t255 96.5h388v-43h-294v-263h268v-43h-268v-290h303zM411 44h43v595h-43q-128 0 -217.5 -85t-89.5 -213t89.5 -212.5t217.5 -84.5z" />
<glyph unicode="&#x153;" horiz-adv-x="912" d="M872 219v-14h-356q7 -77 64 -125t135 -48q65 0 130 33v-45q-55 -29 -133 -29q-70 0 -127.5 31t-90.5 90q-31 -60 -87 -90.5t-127 -30.5q-105 0 -172.5 64.5t-67.5 169.5q0 104 67.5 168.5t172.5 64.5q67 0 122 -28t87 -83q50 111 181 111q100 0 151 -68t51 -171zM516 242 h305q0 73 -40 124t-111 51q-73 0 -113.5 -50.5t-40.5 -124.5zM469 224q0 84 -52.5 138.5t-136.5 54.5t-136.5 -54t-52.5 -139q0 -84 52.5 -138t136.5 -54t136.5 54.5t52.5 137.5z" />
<glyph unicode="&#x178;" horiz-adv-x="479" d="M374 801q0 -15 -10.5 -26t-26.5 -11q-15 0 -26 11t-11 26q0 16 11 27t26 11q16 0 26.5 -11t10.5 -27zM207 801q0 -15 -11 -26t-26 -11q-16 0 -26.5 11t-10.5 26q0 16 10.5 27t26.5 11q15 0 26 -11t11 -27zM424 682h55l-213 -408v-274h-51v275l-215 407h57l185 -346h3z " />
<glyph unicode="&#x2c6;" horiz-adv-x="337" d="M189 654l108 -140h-35l-97 93l-90 -93h-35l98 140h51z" />
<glyph unicode="&#x2dc;" horiz-adv-x="370" d="M304 654h26q0 -39 -23.5 -68t-62.5 -29q-32 0 -68 24.5t-55 24.5q-46 0 -55 -53h-26q0 39 23.5 68t62.5 29q32 0 68 -24.5t55 -24.5q48 0 55 53z" />
<glyph unicode="&#x2000;" horiz-adv-x="440" />
<glyph unicode="&#x2001;" horiz-adv-x="881" />
<glyph unicode="&#x2002;" horiz-adv-x="440" />
<glyph unicode="&#x2003;" horiz-adv-x="881" />
<glyph unicode="&#x2004;" horiz-adv-x="293" />
<glyph unicode="&#x2005;" horiz-adv-x="220" />
<glyph unicode="&#x2006;" horiz-adv-x="146" />
<glyph unicode="&#x2007;" horiz-adv-x="146" />
<glyph unicode="&#x2008;" horiz-adv-x="110" />
<glyph unicode="&#x2009;" horiz-adv-x="176" />
<glyph unicode="&#x200a;" horiz-adv-x="48" />
<glyph unicode="&#x2010;" horiz-adv-x="363" d="M303 277v-43h-243v43h243z" />
<glyph unicode="&#x2011;" horiz-adv-x="363" d="M303 277v-43h-243v43h243z" />
<glyph unicode="&#x2012;" horiz-adv-x="363" d="M303 277v-43h-243v43h243z" />
<glyph unicode="&#x2013;" horiz-adv-x="638" d="M578 277v-43h-518v43h518z" />
<glyph unicode="&#x2014;" horiz-adv-x="1138" d="M1078 277v-43h-1018v43h1018z" />
<glyph unicode="&#x2018;" horiz-adv-x="154" d="M114 594q0 -14 -10.5 -24.5t-24.5 -10.5q-18 0 -28.5 13.5t-10.5 32.5q0 30 20.5 54.5t50.5 31.5v-11q-31 -16 -31 -52q14 0 24 -10t10 -24z" />
<glyph unicode="&#x2019;" horiz-adv-x="154" d="M114 645q0 -30 -20.5 -54.5t-50.5 -31.5v11q31 17 31 52q-14 0 -24 10.5t-10 24.5t10.5 24t24.5 10q18 0 28.5 -13.5t10.5 -32.5z" />
<glyph unicode="&#x201a;" horiz-adv-x="154" d="M114 14q0 -30 -20.5 -54t-50.5 -31v10q31 19 31 53q-14 0 -24 10t-10 24t10.5 24t24.5 10q18 0 28.5 -13.5t10.5 -32.5z" />
<glyph unicode="&#x201c;" horiz-adv-x="284" d="M244 594q0 -14 -10 -24.5t-24 -10.5q-18 0 -28.5 13.5t-10.5 32.5q0 30 20.5 54.5t50.5 31.5v-11q-31 -16 -31 -52q13 0 23 -10t10 -24zM114 594q0 -14 -10.5 -24.5t-24.5 -10.5q-18 0 -28.5 13.5t-10.5 32.5q0 30 20.5 54.5t50.5 31.5v-11q-31 -16 -31 -52q14 0 24 -10 t10 -24z" />
<glyph unicode="&#x201d;" horiz-adv-x="274" d="M234 645q0 -30 -20.5 -54.5t-50.5 -31.5v11q31 17 31 52q-14 0 -24 10.5t-10 24.5t10.5 24t24.5 10q18 0 28.5 -13.5t10.5 -32.5zM114 645q0 -30 -20.5 -54.5t-50.5 -31.5v11q31 17 31 52q-14 0 -24 10.5t-10 24.5t10.5 24t24.5 10q18 0 28.5 -13.5t10.5 -32.5z" />
<glyph unicode="&#x201e;" horiz-adv-x="278" d="M238 14q0 -30 -20 -54t-50 -31v10q30 18 30 53q-14 0 -23.5 10t-9.5 24t10 24t24 10q19 0 29 -13.5t10 -32.5zM114 14q0 -30 -20.5 -54t-50.5 -31v10q31 19 31 53q-14 0 -24 10t-10 24t10.5 24t24.5 10q18 0 28.5 -13.5t10.5 -32.5z" />
<glyph unicode="&#x2022;" horiz-adv-x="217" d="M177 337q0 -29 -20 -49t-48 -20q-29 0 -49 20t-20 49t20 49t49 20q28 0 48 -20t20 -49z" />
<glyph unicode="&#x2026;" horiz-adv-x="665" d="M625 26q0 -14 -10.5 -24.5t-24.5 -10.5t-24 10.5t-10 24.5t10 24t24 10t24.5 -10t10.5 -24zM356 26q0 -14 -10.5 -24.5t-24.5 -10.5t-24 10.5t-10 24.5t10 24t24 10t24.5 -10t10.5 -24zM109 26q0 -14 -10 -24.5t-24 -10.5t-24.5 10.5t-10.5 24.5t10.5 24t24.5 10t24 -10 t10 -24z" />
<glyph unicode="&#x202f;" horiz-adv-x="176" />
<glyph unicode="&#x2039;" horiz-adv-x="261" d="M73 225l148 -225h-54l-147 225l147 225h54z" />
<glyph unicode="&#x203a;" horiz-adv-x="261" d="M94 450l147 -225l-147 -225h-54l148 225l-148 225h54z" />
<glyph unicode="&#x205f;" horiz-adv-x="220" />
<glyph unicode="&#x20ac;" d="M523 652l-18 -44q-69 37 -132 37q-91 0 -151.5 -56t-75.5 -147h290l-17 -44h-279q0 -6 -1 -18t-1.5 -21.5t-0.5 -17.5q0 -31 3 -59h231l-17 -44h-208q18 -97 76.5 -149t156.5 -52q63 0 134 44v-56q-62 -34 -142 -34q-117 0 -189 65.5t-90 181.5h-89l18 44h65q-2 16 -2 49 q0 45 3 67h-84l18 44h72q18 108 90 178.5t179 70.5q95 0 161 -39z" />
<glyph unicode="&#x2122;" horiz-adv-x="692" d="M632 682v-318h-39v267h-2l-84 -193h-37l-91 197h-1v-271h-39v318h57l92 -205h1l88 205h55zM286 682v-36h-104v-282h-39v282h-103v36h246z" />
<glyph unicode="&#x25fc;" horiz-adv-x="450" d="M0 450h450v-450h-450v450z" />
</font>
</defs>
</svg>
