<?xml version="1.0" encoding="UTF-8"?>
<!-- Generator: Adobe Illustrator 16.0.3, SVG Export Plug-In . SVG Version: 6.00 Build 0)  -->
<!DOCTYPE svg PUBLIC "-//W3C//DTD SVG 1.1//EN" "http://www.w3.org/Graphics/SVG/1.1/DTD/svg11.dtd">
<svg version="1.1" id="Layer_1" xmlns="http://www.w3.org/2000/svg" xmlns:xlink="http://www.w3.org/1999/xlink" x="0px" y="0px" width="378.133px" height="192px" viewBox="0 0 378.133 192" enable-background="new 0 0 378.133 192" xml:space="preserve">
<g>
	<defs>
		<rect id="SVGID_1_" width="378.133" height="192"/>
	</defs>
	<clipPath id="SVGID_2_">
		<use xlink:href="#SVGID_1_" overflow="visible"/>
	</clipPath>
	<path clip-path="url(#SVGID_2_)" d="M95.467,0H58.134l-40,46.4c-1.6,1.6-2.667,3.2-4.267,4.8c-0.533,0.533-1.067,1.067-1.6,2.133   C8,58.133,4.267,62.4,0,67.2c4.267,4.8,8.534,9.6,12.267,14.933c1.6,2.134,3.2,4.267,5.333,5.867h-0.533l27.2,31.467   c4.267,4.8,8,9.601,12.267,14.4l1.6,1.6h37.333L49.6,82.133L38.934,69.867L49.6,82.133c85.867,0.534,172.268,0.534,258.667,1.067   c12.267,0.533,22.4,5.867,29.867,13.333c7.466,7.467,11.732,17.6,11.732,27.733v2.134c-0.532,8.532-4.267,17.066-10.667,24   c-5.865,6.399-14.399,11.732-24.532,13.333H174.934V192H316.8h1.066h1.067c16.533-3.2,30.933-11.2,41.066-22.4   c10.667-11.199,17.066-26.133,18.134-41.6v-3.733c0-18.134-7.467-34.667-19.734-47.467c-12.266-12.8-29.333-21.333-49.065-21.867   H308.8h-0.533C221.867,54.4,136,54.4,49.6,53.867L95.467,0"/>
</g>
</svg>