<?xml version="1.0" encoding="UTF-8"?>
<!-- Generator: Adobe Illustrator 16.0.0, SVG Export Plug-In . SVG Version: 6.00 Build 0)  -->
<!DOCTYPE svg PUBLIC "-//W3C//DTD SVG 1.1//EN" "http://www.w3.org/Graphics/SVG/1.1/DTD/svg11.dtd">
<svg version="1.1" id="Layer_1" xmlns="http://www.w3.org/2000/svg" xmlns:xlink="http://www.w3.org/1999/xlink" x="0px" y="0px" width="187.1px" height="112px" viewBox="0 0 187.1 112" style="enable-background:new 0 0 187.1 112;" xml:space="preserve">
<style type="text/css">
<![CDATA[
	.st0{fill-rule:evenodd;clip-rule:evenodd;fill:#E30520;}
	.st1{fill:none;stroke:#FFFFFF;stroke-width:0.216;stroke-miterlimit:2.6131;}
	.st2{fill-rule:evenodd;clip-rule:evenodd;fill:#F9B41D;}
	.st3{fill-rule:evenodd;clip-rule:evenodd;fill:#FFFFFF;}
]]>
</style>
<polygon class="st2" points="130.8,112.4 133.7,112.3 136.6,112.1 139.4,111.7 142.1,111.2 144.8,110.6 147.5,109.9 150.1,109   152.7,108 155.2,106.8 157.6,105.6 159.9,104.2 162.2,102.8 164.4,101.2 166.5,99.6 168.5,97.8 170.5,95.9 172.4,94 174.1,92   175.8,89.8 177.3,87.6 178.8,85.4 180.2,83 181.4,80.6 182.5,78.1 183.5,75.6 184.4,73 185.2,70.3 185.8,67.6 186.3,64.8 186.6,62   186.8,59.2 186.9,56.3 186.8,53.4 186.6,50.6 186.3,47.8 185.8,45 185.2,42.3 184.4,39.7 183.5,37.1 182.5,34.6 181.4,32.1   180.2,29.7 178.8,27.3 177.3,25.1 175.8,22.9 174.1,20.8 172.4,18.7 170.5,16.8 168.5,14.9 166.5,13.2 164.4,11.5 162.2,9.9   159.9,8.5 157.6,7.2 155.2,5.9 152.7,4.8 150.1,3.8 147.5,2.9 144.8,2.1 142.1,1.5 139.4,1 136.6,0.7 133.7,0.5 130.8,0.4 128,0.5   125.1,0.7 122.3,1 119.6,1.5 116.9,2.1 114.2,2.9 111.6,3.8 109.1,4.8 106.6,5.9 104.2,7.2 101.8,8.5 99.6,9.9 97.4,11.5 95.3,13.2   93.2,14.9 91.3,16.8 89.4,18.7 87.7,20.8 86,22.9 84.5,25.1 83,27.3 81.7,29.7 80.4,32.1 79.3,34.6 78.3,37.1 77.5,39.7 76.7,42.3   76.1,45 75.6,47.8 75.2,50.6 75,53.4 74.9,56.3 75,59.2 75.2,62 75.6,64.8 76.1,67.6 76.7,70.3 77.5,73 78.3,75.6 79.3,78.1   80.4,80.6 81.7,83 83,85.4 84.5,87.6 86,89.8 87.7,92 89.4,94 91.3,95.9 93.2,97.8 95.3,99.6 97.4,101.2 99.6,102.8 101.8,104.2   104.2,105.6 106.6,106.8 109.1,108 111.6,109 114.2,109.9 116.9,110.6 119.6,111.2 122.3,111.7 125.1,112.1 128,112.3 130.8,112.4   130.8,112.4 "/>
<polygon class="st0" points="55.9,112.4 58.8,112.3 61.6,112.1 64.4,111.7 67.2,111.2 69.9,110.6 72.6,109.9 75.2,109 77.7,108   80.2,106.8 82.6,105.6 84.9,104.2 87.2,102.8 89.4,101.2 91.5,99.6 93.5,97.8 95.5,95.9 97.3,94 99.1,92 100.7,89.8 102.3,87.6   103.7,85.4 105.1,83 106.3,80.6 107.4,78.1 108.4,75.6 109.3,73 110.1,70.3 110.7,67.6 111.2,64.8 111.5,62 111.7,59.2 111.8,56.3   111.7,53.4 111.5,50.6 111.2,47.8 110.7,45 110.1,42.3 109.3,39.7 108.4,37.1 107.4,34.6 106.3,32.1 105.1,29.7 103.7,27.3   102.3,25.1 100.7,22.9 99.1,20.8 97.3,18.7 95.5,16.8 93.5,14.9 91.5,13.2 89.4,11.5 87.2,9.9 84.9,8.5 82.6,7.2 80.2,5.9 77.7,4.8   75.2,3.8 72.6,2.9 69.9,2.1 67.2,1.5 64.4,1 61.6,0.7 58.8,0.5 55.9,0.4 53,0.5 50.2,0.7 47.4,1 44.6,1.5 41.9,2.1 39.3,2.9   36.6,3.8 34.1,4.8 31.6,5.9 29.2,7.2 26.8,8.5 24.6,9.9 22.4,11.5 20.3,13.2 18.2,14.9 16.3,16.8 14.4,18.7 12.6,20.8 11,22.9   9.4,25.1 8,27.3 6.6,29.7 5.4,32.1 4.2,34.6 3.2,37.1 2.3,39.7 1.6,42.3 1,45 0.5,47.8 0.1,50.6 -0.1,53.4 -0.2,56.3 -0.1,59.2   0.1,62 0.5,64.8 1,67.6 1.6,70.3 2.3,73 3.2,75.6 4.2,78.1 5.4,80.6 6.6,83 8,85.4 9.4,87.6 11,89.8 12.6,92 14.4,94 16.3,95.9   18.2,97.8 20.3,99.6 22.4,101.2 24.6,102.8 26.8,104.2 29.2,105.6 31.6,106.8 34.1,108 36.6,109 39.3,109.9 41.9,110.6 44.6,111.2   47.4,111.7 50.2,112.1 53,112.3 55.9,112.4 55.9,112.4 "/>
<polygon class="st2" points="86.8,21.9 116.6,21.9 116.6,18.8 89.4,18.8 86.8,21.9 86.8,21.9 "/>
<polygon class="st2" points="82.4,28.6 116.6,28.6 116.6,25.6 84.2,25.6 82.4,28.6 82.4,28.6 "/>
<polygon class="st2" points="79,35.4 116.6,35.4 116.6,32.3 80.4,32.3 79,35.4 79,35.4 "/>
<polygon class="st2" points="76.8,42.1 116.6,42.1 116.6,39.1 77.7,39.1 76.8,42.1 76.8,42.1 "/>
<polygon class="st2" points="78.1,74.8 116.7,74.8 116.7,71.8 77.1,71.8 78.1,74.8 78.1,74.8 "/>
<polygon class="st2" points="80.9,81.6 116.7,81.6 116.7,78.5 79.5,78.5 80.9,81.6 80.9,81.6 "/>
<polygon class="st2" points="84.9,88.3 116.7,88.3 116.7,85.3 83,85.3 84.9,88.3 84.9,88.3 "/>
<polygon class="st2" points="90.5,95.1 116.7,95.1 116.7,92 87.8,92 90.5,95.1 90.5,95.1 "/>
<polygon class="st2" points="75.4,48.9 116.6,48.9 116.6,45.8 76,45.8 75.4,48.9 75.4,48.9 "/>
<polygon class="st2" points="100.5,68.1 116.2,68.1 116.2,65 101.1,65 100.5,68.1 100.5,68.1 "/>
<polygon class="st2" points="101.7,61.3 116.2,61.3 116.2,58.3 102.3,58.3 101.7,61.3 101.7,61.3 "/>
<polygon class="st2" points="74.4,58.3 78.5,58.3 78.5,61.3 74.6,61.3 74.4,58.3 74.4,58.3 "/>
<polygon class="st3" points="66.8,54.6 66.5,54.6 66.2,54.5 66,54.5 65.7,54.4 65.5,54.4 65.3,54.4 65,54.3 64.8,54.3 64.5,54.3   64.2,54.2 63.9,54.2 63.5,54.2 63.1,54.2 62.7,54.2 62.2,54.3 61.6,54.3 61.3,54.3 60.9,54.4 60.6,54.5 60.3,54.6 60,54.8   59.8,54.9 59.6,55.1 59.4,55.3 59.3,55.5 59.2,55.7 59.2,55.9 59.2,56.1 59.2,56.4 59.3,56.6 59.5,56.9 59.6,57.1 60,57.5   60.5,57.8 61,58 61.6,58.2 62.2,58.4 62.8,58.6 63.4,58.8 64,59.1 64.6,59.4 65.1,59.8 65.6,60.3 66,60.9 66.3,61.6 66.5,62.4   66.6,63.5 66.5,64.6 66.4,65.5 66.1,66.3 65.8,67 65.4,67.6 65,68.2 64.5,68.7 64,69.1 63.4,69.4 62.8,69.7 62.2,70 61.5,70.2   60.9,70.3 60.2,70.4 59.6,70.5 59,70.5 58.4,70.5 57.6,70.5 56.8,70.5 56.2,70.5 55.5,70.5 55,70.5 54.5,70.4 54,70.4 53.6,70.3   53.2,70.3 52.8,70.2 52.5,70.2 52.1,70.1 51.8,70 51.5,69.9 51.2,69.8 50.9,69.7 51.8,65.5 51.9,65.5 52.1,65.6 52.4,65.7   52.7,65.7 53.1,65.8 53.4,65.9 53.8,66 54.3,66.1 54.8,66.1 55.3,66.2 55.8,66.3 56.3,66.3 56.9,66.3 57.4,66.4 57.9,66.4   58.5,66.3 59,66.2 59.5,66.1 59.8,65.9 60.1,65.6 60.3,65.3 60.4,65 60.5,64.7 60.6,64.5 60.6,63.9 60.5,63.4 60.1,63.1 59.7,62.7   59.1,62.5 58.4,62.2 57.7,61.9 57,61.6 56.2,61.3 55.5,60.9 54.8,60.4 54.2,59.8 53.8,59.1 53.4,58.2 53.2,57.2 53.3,56 53.4,55.3   53.5,54.6 53.7,53.9 53.9,53.3 54.2,52.7 54.5,52.3 54.9,51.8 55.4,51.4 56,51 56.6,50.7 57.2,50.4 58,50.2 58.9,50 59.8,49.9   60.8,49.8 61.9,49.8 62.6,49.8 63.3,49.8 63.8,49.9 64.4,49.9 64.8,49.9 65.3,49.9 65.7,50 66,50 66.3,50.1 66.6,50.1 66.8,50.2   67.1,50.2 67.2,50.2 67.4,50.2 67.6,50.3 67.7,50.3 66.8,54.6 66.8,54.6 "/>
<polyline class="st1" points="66.8,54.6 66.8,54.6 66.5,54.6 66.2,54.5 66,54.5 65.7,54.4 65.5,54.4 65.3,54.4 65,54.3 64.8,54.3   64.5,54.3 64.2,54.2 63.9,54.2 63.5,54.2 63.1,54.2 62.7,54.2 62.2,54.3 61.6,54.3 61.6,54.3 61.3,54.3 60.9,54.4 60.6,54.5   60.3,54.6 60,54.8 59.8,54.9 59.6,55.1 59.4,55.3 59.3,55.5 59.2,55.7 59.2,55.9 59.2,56.1 59.2,56.4 59.3,56.6 59.5,56.9   59.6,57.1 59.6,57.1 60,57.5 60.5,57.8 61,58 61.6,58.2 62.2,58.4 62.8,58.6 63.4,58.8 64,59.1 64.6,59.4 65.1,59.8 65.6,60.3   66,60.9 66.3,61.6 66.5,62.4 66.6,63.5 66.5,64.6 66.5,64.6 66.4,65.5 66.1,66.3 65.8,67 65.4,67.6 65,68.2 64.5,68.7 64,69.1   63.4,69.4 62.8,69.7 62.2,70 61.5,70.2 60.9,70.3 60.2,70.4 59.6,70.5 59,70.5 58.4,70.5 58.4,70.5 57.6,70.5 56.8,70.5 56.2,70.5   55.5,70.5 55,70.5 54.5,70.4 54,70.4 53.6,70.3 53.2,70.3 52.8,70.2 52.5,70.2 52.1,70.1 51.8,70 51.5,69.9 51.2,69.8 50.9,69.7   51.8,65.5 51.8,65.5 51.9,65.5 52.1,65.6 52.4,65.7 52.7,65.7 53.1,65.8 53.4,65.9 53.8,66 54.3,66.1 54.8,66.1 55.3,66.2   55.8,66.3 56.3,66.3 56.9,66.3 57.4,66.4 57.9,66.4 58.5,66.3 58.5,66.3 59,66.2 59.5,66.1 59.8,65.9 60.1,65.6 60.3,65.3 60.4,65   60.5,64.7 60.6,64.5 60.6,64.5 60.6,63.9 60.5,63.4 60.1,63.1 59.7,62.7 59.1,62.5 58.4,62.2 57.7,61.9 57,61.6 56.2,61.3   55.5,60.9 54.8,60.4 54.2,59.8 53.8,59.1 53.4,58.2 53.2,57.2 53.3,56 53.3,56 53.4,55.3 53.5,54.6 53.7,53.9 53.9,53.3 54.2,52.7   54.5,52.3 54.9,51.8 55.4,51.4 56,51 56.6,50.7 57.2,50.4 58,50.2 58.9,50 59.8,49.9 60.8,49.8 61.9,49.8 61.9,49.8 62.6,49.8   63.3,49.8 63.8,49.9 64.4,49.9 64.8,49.9 65.3,49.9 65.7,50 66,50 66.3,50.1 66.6,50.1 66.8,50.2 67.1,50.2 67.2,50.2 67.4,50.2   67.6,50.3 67.7,50.3 66.8,54.6 "/>
<polygon class="st3" points="71.2,45.6 76.5,45.6 75.7,50.2 78.9,50.2 78.2,54.5 74.9,54.4 73,64.9 73,65.3 73.1,65.6 73.3,65.9   73.5,66.1 73.9,66.2 74.3,66.3 74.7,66.4 75.1,66.4 75.5,66.4 75.9,66.4 76.3,66.3 76.6,66.2 76.8,66.2 77,66.1 77.1,66.1   77.1,66.1 76.5,69.6 76.3,69.7 76.2,69.7 76.1,69.8 75.9,69.9 75.8,69.9 75.7,70 75.5,70.1 75.3,70.1 75.1,70.2 74.9,70.2   74.7,70.3 74.5,70.3 74.2,70.3 74,70.4 73.7,70.4 73.3,70.4 71.9,70.4 71.1,70.4 70.5,70.3 69.9,70.2 69.4,70.1 68.9,69.9   68.6,69.7 68.3,69.5 68,69.2 67.8,69 67.7,68.6 67.6,68.3 67.5,68 67.5,67.6 67.5,67.2 67.6,66.7 67.6,66.2 71.2,45.6 71.2,45.6 "/>
<polyline class="st1" points="71.2,45.6 76.5,45.6 75.7,50.2 78.9,50.2 78.2,54.5 74.9,54.4 73,64.9 73,64.9 73,65.3 73.1,65.6   73.3,65.9 73.5,66.1 73.9,66.2 74.3,66.3 74.7,66.4 75.1,66.4 75.1,66.4 75.5,66.4 75.9,66.4 76.3,66.3 76.6,66.2 76.8,66.2   77,66.1 77.1,66.1 77.1,66.1 76.5,69.6 76.5,69.6 76.3,69.7 76.2,69.7 76.1,69.8 75.9,69.9 75.8,69.9 75.7,70 75.5,70.1 75.3,70.1   75.1,70.2 74.9,70.2 74.7,70.3 74.5,70.3 74.2,70.3 74,70.4 73.7,70.4 73.3,70.4 71.9,70.4 71.9,70.4 71.1,70.4 70.5,70.3   69.9,70.2 69.4,70.1 68.9,69.9 68.6,69.7 68.3,69.5 68,69.2 67.8,69 67.7,68.6 67.6,68.3 67.5,68 67.5,67.6 67.5,67.2 67.6,66.7   67.6,66.2 71.2,45.6 "/>
<polygon class="st3" points="83,61.6 83,61.9 83,62.3 83,62.6 83.1,63 83.2,63.3 83.3,63.7 83.6,64 83.8,64.4 84,64.7 84.3,65   84.6,65.2 85,65.5 85.3,65.7 85.7,65.8 86.1,66 86.4,66.1 86.9,66.1 87.4,66.2 87.9,66.2 88.4,66.3 88.9,66.3 89.4,66.3 89.9,66.3   90.4,66.2 90.9,66.2 91.4,66.1 91.9,66 92.5,65.8 93,65.6 93.5,65.4 94.1,65.1 94.6,64.7 93.8,69.4 93.5,69.5 93.2,69.7 92.9,69.8   92.7,69.9 92.4,70 92.1,70.1 91.8,70.2 91.5,70.2 91.1,70.3 90.7,70.3 90.3,70.4 89.9,70.4 89.4,70.4 88.9,70.4 88.3,70.4   87.7,70.4 86.8,70.4 85.8,70.3 84.9,70.2 83.9,70 83,69.7 82.1,69.3 81.3,68.9 80.5,68.3 79.7,67.7 79.1,66.9 78.6,66 78.1,65   77.8,63.9 77.6,62.6 77.5,61.2 77.6,59.7 77.7,59.1 77.8,58.4 77.9,57.7 78.2,56.9 78.4,56 78.8,55.2 79.2,54.4 79.7,53.6   80.3,52.9 81.1,52.1 81.9,51.5 82.9,50.9 84,50.5 85.2,50.1 86.5,49.9 88.1,49.8 88.8,49.8 89.6,49.9 90.4,50 91.1,50.2 91.9,50.5   92.6,50.9 93.3,51.3 93.9,51.8 94.5,52.5 95,53.2 95.3,54.1 95.6,55.1 95.8,56.2 95.8,57.5 95.6,59 95.4,60.5 95.3,61.7 81.5,61.7   82.4,58 90.6,58 90.7,57.5 90.7,57 90.6,56.6 90.5,56.3 90.4,55.9 90.3,55.6 90.1,55.3 89.9,55 89.7,54.8 89.4,54.6 89.1,54.4   88.9,54.3 88.6,54.2 88.3,54.1 87.9,54 87.6,54 87.2,54 86.9,54.1 86.6,54.2 86.3,54.3 85.9,54.4 85.7,54.6 85.4,54.8 85.1,55   84.9,55.3 84.7,55.6 84.4,55.9 84.3,56.2 84.1,56.5 84,56.9 83.9,57.3 83.8,57.7 83,61.6 83,61.6 "/>
<polyline class="st1" points="83,61.6 83,61.6 83,61.9 83,62.3 83,62.6 83.1,63 83.2,63.3 83.3,63.7 83.6,64 83.8,64.4 84,64.7   84.3,65 84.6,65.2 85,65.5 85.3,65.7 85.7,65.8 86.1,66 86.4,66.1 86.4,66.1 86.9,66.1 87.4,66.2 87.9,66.2 88.4,66.3 88.9,66.3   89.4,66.3 89.9,66.3 90.4,66.2 90.9,66.2 91.4,66.1 91.9,66 92.5,65.8 93,65.6 93.5,65.4 94.1,65.1 94.6,64.7 93.8,69.4 93.8,69.4   93.5,69.5 93.2,69.7 92.9,69.8 92.7,69.9 92.4,70 92.1,70.1 91.8,70.2 91.5,70.2 91.1,70.3 90.7,70.3 90.3,70.4 89.9,70.4   89.4,70.4 88.9,70.4 88.3,70.4 87.7,70.4 87.7,70.4 86.8,70.4 85.8,70.3 84.9,70.2 83.9,70 83,69.7 82.1,69.3 81.3,68.9 80.5,68.3   79.7,67.7 79.1,66.9 78.6,66 78.1,65 77.8,63.9 77.6,62.6 77.5,61.2 77.6,59.7 77.6,59.7 77.7,59.1 77.8,58.4 77.9,57.7 78.2,56.9   78.4,56 78.8,55.2 79.2,54.4 79.7,53.6 80.3,52.9 81.1,52.1 81.9,51.5 82.9,50.9 84,50.5 85.2,50.1 86.5,49.9 88.1,49.8 88.1,49.8   88.8,49.8 89.6,49.9 90.4,50 91.1,50.2 91.9,50.5 92.6,50.9 93.3,51.3 93.9,51.8 94.5,52.5 95,53.2 95.3,54.1 95.6,55.1 95.8,56.2   95.8,57.5 95.6,59 95.4,60.5 95.3,61.7 81.5,61.7 82.4,58 90.6,58 90.6,58 90.7,57.5 90.7,57 90.6,56.6 90.5,56.3 90.4,55.9   90.3,55.6 90.1,55.3 89.9,55 89.7,54.8 89.4,54.6 89.1,54.4 88.9,54.3 88.6,54.2 88.3,54.1 87.9,54 87.6,54 87.6,54 87.2,54   86.9,54.1 86.6,54.2 86.3,54.3 85.9,54.4 85.7,54.6 85.4,54.8 85.1,55 84.9,55.3 84.7,55.6 84.4,55.9 84.3,56.2 84.1,56.5 84,56.9   83.9,57.3 83.8,57.7 83,61.6 "/>
<polygon class="st3" points="128.1,51.3 127.8,51.2 127.6,51.1 127.3,51 127,50.8 126.8,50.7 126.4,50.6 126.1,50.5 125.8,50.4   125.4,50.3 125,50.2 124.7,50.1 124.3,50.1 123.8,50 123.4,50 122.9,50 122.5,50 122,50 121.5,50 121,50.1 120.5,50.2 119.9,50.3   119.4,50.6 118.9,50.8 118.3,51.2 117.8,51.6 117.3,52.1 116.9,52.7 116.4,53.4 116,54.2 115.6,55.1 115.2,56.2 114.9,57.4   114.8,58.1 114.8,58.7 114.7,59.4 114.7,60.1 114.8,60.7 114.9,61.3 115.1,61.9 115.3,62.4 115.6,62.9 115.9,63.4 116.3,63.9   116.8,64.3 117.3,64.6 117.9,64.9 118.5,65.1 119.2,65.3 119.5,65.4 119.8,65.4 120.1,65.5 120.5,65.5 120.9,65.5 121.3,65.5   121.8,65.5 122.3,65.5 122.8,65.4 123.3,65.3 123.7,65.2 124.2,65.1 124.7,64.8 125.1,64.6 125.5,64.3 125.9,64 125,69 124.9,69.1   124.8,69.2 124.7,69.3 124.5,69.5 124.3,69.6 124,69.7 123.7,69.9 123.4,70 122.9,70.1 122.4,70.2 121.9,70.3 121.2,70.4   120.5,70.4 119.6,70.4 118.7,70.4 117.6,70.3 116.7,70.3 115.9,70.1 115,69.8 114.1,69.4 113.3,68.9 112.5,68.4 111.8,67.7   111.1,67 110.4,66.1 109.9,65.2 109.5,64.1 109.1,63 108.9,61.7 108.8,60.4 108.8,58.9 109.1,57.3 109.2,56.5 109.4,55.8 109.6,55   109.8,54.3 110,53.7 110.2,53 110.5,52.4 110.7,51.8 111,51.2 111.3,50.7 111.6,50.2 111.9,49.7 112.3,49.2 112.7,48.7 113,48.3   113.4,47.9 113.9,47.5 114.3,47.2 114.8,46.9 115.2,46.6 115.7,46.3 116.2,46 116.8,45.8 117.3,45.6 117.9,45.4 118.5,45.3   119.1,45.1 119.7,45 120.4,44.9 121.1,44.8 121.7,44.8 122.5,44.8 123.1,44.8 123.7,44.8 124.2,44.9 124.8,45 125.3,45.1   125.8,45.2 126.3,45.3 126.8,45.4 127.2,45.5 127.6,45.6 127.9,45.7 128.2,45.8 128.5,45.9 128.7,46 128.9,46.1 129,46.1   128.1,51.3 128.1,51.3 "/>
<polyline class="st1" points="128.1,51.3 128.1,51.3 127.8,51.2 127.6,51.1 127.3,51 127,50.8 126.8,50.7 126.4,50.6 126.1,50.5   125.8,50.4 125.4,50.3 125,50.2 124.7,50.1 124.3,50.1 123.8,50 123.4,50 122.9,50 122.5,50 122.5,50 122,50 121.5,50 121,50.1   120.5,50.2 119.9,50.3 119.4,50.6 118.9,50.8 118.3,51.2 117.8,51.6 117.3,52.1 116.9,52.7 116.4,53.4 116,54.2 115.6,55.1   115.2,56.2 114.9,57.4 114.9,57.4 114.8,58.1 114.8,58.7 114.7,59.4 114.7,60.1 114.8,60.7 114.9,61.3 115.1,61.9 115.3,62.4   115.6,62.9 115.9,63.4 116.3,63.9 116.8,64.3 117.3,64.6 117.9,64.9 118.5,65.1 119.2,65.3 119.2,65.3 119.5,65.4 119.8,65.4   120.1,65.5 120.5,65.5 120.9,65.5 121.3,65.5 121.8,65.5 122.3,65.5 122.8,65.4 123.3,65.3 123.7,65.2 124.2,65.1 124.7,64.8   125.1,64.6 125.5,64.3 125.9,64 125,69 125,69 124.9,69.1 124.8,69.2 124.7,69.3 124.5,69.5 124.3,69.6 124,69.7 123.7,69.9   123.4,70 122.9,70.1 122.4,70.2 121.9,70.3 121.2,70.4 120.5,70.4 119.6,70.4 118.7,70.4 117.6,70.3 117.6,70.3 116.7,70.3   115.9,70.1 115,69.8 114.1,69.4 113.3,68.9 112.5,68.4 111.8,67.7 111.1,67 110.4,66.1 109.9,65.2 109.5,64.1 109.1,63 108.9,61.7   108.8,60.4 108.8,58.9 109.1,57.3 109.1,57.3 109.2,56.5 109.4,55.8 109.6,55 109.8,54.3 110,53.7 110.2,53 110.5,52.4 110.7,51.8   111,51.2 111.3,50.7 111.6,50.2 111.9,49.7 112.3,49.2 112.7,48.7 113,48.3 113.4,47.9 113.9,47.5 114.3,47.2 114.8,46.9   115.2,46.6 115.7,46.3 116.2,46 116.8,45.8 117.3,45.6 117.9,45.4 118.5,45.3 119.1,45.1 119.7,45 120.4,44.9 121.1,44.8   121.7,44.8 122.5,44.8 122.5,44.8 123.1,44.8 123.7,44.8 124.2,44.9 124.8,45 125.3,45.1 125.8,45.2 126.3,45.3 126.8,45.4   127.2,45.5 127.6,45.6 127.9,45.7 128.2,45.8 128.5,45.9 128.7,46 128.9,46.1 129,46.1 128.1,51.3 "/>
<polygon class="st3" points="174.6,70.4 169.3,70.4 169.7,68.3 169.7,68.2 169.4,68.5 169.1,68.9 168.8,69.2 168.4,69.4 168.1,69.7   167.8,69.9 167.4,70.1 167.1,70.2 166.7,70.4 166.3,70.5 166,70.6 165.6,70.6 165.2,70.7 164.9,70.7 164.5,70.7 164.1,70.7   163.1,70.6 162.2,70.4 161.4,70.1 160.6,69.7 160,69.1 159.3,68.5 158.8,67.8 158.4,67 158,66.2 157.7,65.3 157.5,64.3 157.3,63.4   157.3,62.4 157.3,61.4 157.4,60.5 157.6,59.5 157.8,58.4 158.2,57.3 158.6,56.4 159,55.5 159.5,54.6 160.1,53.9 160.7,53.2   161.3,52.6 162,52 162.7,51.5 163.4,51.1 164.1,50.8 164.9,50.5 165.6,50.4 166.4,50.2 167.1,50.2 167.7,50.2 168.2,50.3   168.7,50.4 169.2,50.5 169.6,50.7 170,50.8 170.4,51 170.7,51.3 171,51.5 171.3,51.7 171.5,52 171.8,52.2 171.9,52.5 172.1,52.7   172.3,52.9 172.4,53.2 172.4,53.2 173.7,45.7 178.8,45.7 174.6,70.4 174.6,70.4 "/>
<polyline class="st1" points="174.6,70.4 169.3,70.4 169.7,68.3 169.7,68.2 169.7,68.2 169.4,68.5 169.1,68.9 168.8,69.2   168.4,69.4 168.1,69.7 167.8,69.9 167.4,70.1 167.1,70.2 166.7,70.4 166.3,70.5 166,70.6 165.6,70.6 165.2,70.7 164.9,70.7   164.5,70.7 164.1,70.7 164.1,70.7 163.1,70.6 162.2,70.4 161.4,70.1 160.6,69.7 160,69.1 159.3,68.5 158.8,67.8 158.4,67 158,66.2   157.7,65.3 157.5,64.3 157.3,63.4 157.3,62.4 157.3,61.4 157.4,60.5 157.6,59.5 157.6,59.5 157.8,58.4 158.2,57.3 158.6,56.4   159,55.5 159.5,54.6 160.1,53.9 160.7,53.2 161.3,52.6 162,52 162.7,51.5 163.4,51.1 164.1,50.8 164.9,50.5 165.6,50.4 166.4,50.2   167.1,50.2 167.1,50.2 167.7,50.2 168.2,50.3 168.7,50.4 169.2,50.5 169.6,50.7 170,50.8 170.4,51 170.7,51.3 171,51.5 171.3,51.7   171.5,52 171.8,52.2 171.9,52.5 172.1,52.7 172.3,52.9 172.4,53.2 172.4,53.2 173.7,45.7 178.8,45.7 174.6,70.4 "/>
<polygon class="st2" points="166,65.9 166.5,65.8 167,65.7 167.5,65.6 167.9,65.4 168.3,65.2 168.7,64.9 169.1,64.5 169.4,64.2   169.7,63.8 169.9,63.4 170.2,63 170.4,62.5 170.6,62.1 170.7,61.6 170.8,61.1 170.9,60.5 171,60 171.1,59.5 171.1,59 171.1,58.4   171,57.9 170.9,57.5 170.8,57 170.7,56.6 170.5,56.2 170.2,55.8 170,55.5 169.7,55.3 169.4,55 169.1,54.9 168.7,54.8 168.3,54.8   167.8,54.8 167.3,54.9 166.9,55 166.4,55.2 166.1,55.5 165.7,55.8 165.4,56.1 165.1,56.4 164.8,56.9 164.5,57.3 164.3,57.7   164,58.2 163.9,58.7 163.7,59.3 163.6,59.8 163.4,60.4 163.4,61.2 163.4,62.1 163.5,63 163.8,63.9 164.1,64.7 164.6,65.3   165.3,65.7 166,65.9 166,65.9 "/>
<polygon class="st3" points="50,66.2 49.3,70.4 44.5,70.4 44.7,69.7 44.7,69 44.8,68.4 44.9,68.2 44.6,68.5 44.3,68.8 44,69   43.6,69.3 43.1,69.6 42.6,69.8 42.2,70 41.6,70.2 41.1,70.4 40.6,70.5 40,70.6 39.4,70.7 38.9,70.7 38.3,70.8 37.8,70.7 37.3,70.6   36.6,70.5 36,70.3 35.5,70 35,69.7 34.6,69.4 34.2,69.1 33.9,68.7 33.7,68.4 33.5,68 33.3,67.5 33.1,67.1 33,66.7 32.9,66.3   32.9,65.8 32.8,65.4 32.8,65 32.9,64.3 33,63.6 33.2,62.9 33.4,62.3 33.7,61.7 34.1,61.1 34.5,60.6 34.9,60.1 35.4,59.7 35.9,59.3   36.5,58.9 37,58.6 37.6,58.4 38.3,58.2 38.9,58 39.6,57.9 39.6,57.9 39.7,57.9 39.8,57.8 40,57.8 40.3,57.8 40.5,57.8 40.8,57.7   41.1,57.7 41.5,57.7 41.8,57.6 42.1,57.6 42.4,57.6 42.7,57.5 43,57.5 43.3,57.5 43.5,57.5 43.9,57.5 44.4,57.5 44.8,57.5   45.2,57.5 45.5,57.6 45.8,57.6 46,57.6 46,57.6 46.1,57.5 46.2,57.1 46.3,56.7 46.3,56.4 46.3,56 46.1,55.6 45.9,55.2 45.6,55   45.2,54.7 44.8,54.5 44.3,54.4 43.9,54.4 43.3,54.4 42.8,54.3 42.2,54.3 41.6,54.4 40.9,54.4 40.3,54.5 39.7,54.5 39.2,54.6   38.6,54.7 38,54.8 37.6,54.9 37.1,55 36.7,55.1 36.3,55.2 36.1,55.3 35.9,55.4 37.2,50.9 37.6,50.7 38,50.6 38.5,50.4 38.9,50.3   39.4,50.2 39.9,50.2 40.4,50.1 40.9,50 41.4,50 42,50 42.5,50 43.1,50 43.7,50 44.3,50 45,50 45.7,50 46.2,50 46.8,50.1 47.4,50.3   48,50.4 48.5,50.7 49.1,50.9 49.7,51.3 50.2,51.6 50.7,52 51.1,52.5 51.5,53 51.8,53.6 51.9,54.2 52.1,54.8 52.1,55.5 51.9,56.3   50,66.2 50,66.2 "/>
<polyline class="st1" points="50,66.2 49.3,70.4 44.5,70.4 44.5,70.4 44.7,69.7 44.7,69 44.8,68.4 44.9,68.2 44.9,68.2 44.6,68.5   44.3,68.8 44,69 43.6,69.3 43.1,69.6 42.6,69.8 42.2,70 41.6,70.2 41.1,70.4 40.6,70.5 40,70.6 39.4,70.7 38.9,70.7 38.3,70.8   37.8,70.7 37.3,70.6 37.3,70.6 36.6,70.5 36,70.3 35.5,70 35,69.7 34.6,69.4 34.2,69.1 33.9,68.7 33.7,68.4 33.5,68 33.3,67.5   33.1,67.1 33,66.7 32.9,66.3 32.9,65.8 32.8,65.4 32.8,65 32.8,65 32.9,64.3 33,63.6 33.2,62.9 33.4,62.3 33.7,61.7 34.1,61.1   34.5,60.6 34.9,60.1 35.4,59.7 35.9,59.3 36.5,58.9 37,58.6 37.6,58.4 38.3,58.2 38.9,58 39.6,57.9 39.6,57.9 39.6,57.9 39.7,57.9   39.8,57.8 40,57.8 40.3,57.8 40.5,57.8 40.8,57.7 41.1,57.7 41.5,57.7 41.8,57.6 42.1,57.6 42.4,57.6 42.7,57.5 43,57.5 43.3,57.5   43.5,57.5 43.5,57.5 43.9,57.5 44.4,57.5 44.8,57.5 45.2,57.5 45.5,57.6 45.8,57.6 46,57.6 46,57.6 46,57.6 46.1,57.5 46.2,57.1   46.3,56.7 46.3,56.4 46.3,56.4 46.3,56 46.1,55.6 45.9,55.2 45.6,55 45.2,54.7 44.8,54.5 44.3,54.4 43.9,54.4 43.9,54.4 43.3,54.4   42.8,54.3 42.2,54.3 41.6,54.4 40.9,54.4 40.3,54.5 39.7,54.5 39.2,54.6 38.6,54.7 38,54.8 37.6,54.9 37.1,55 36.7,55.1 36.3,55.2   36.1,55.3 35.9,55.4 37.2,50.9 37.2,50.9 37.6,50.7 38,50.6 38.5,50.4 38.9,50.3 39.4,50.2 39.9,50.2 40.4,50.1 40.9,50 41.4,50   42,50 42.5,50 43.1,50 43.7,50 44.3,50 45,50 45.7,50 45.7,50 46.2,50 46.8,50.1 47.4,50.3 48,50.4 48.5,50.7 49.1,50.9 49.7,51.3   50.2,51.6 50.7,52 51.1,52.5 51.5,53 51.8,53.6 51.9,54.2 52.1,54.8 52.1,55.5 51.9,56.3 50,66.2 "/>
<polygon class="st0" points="45.5,61.3 45.5,61.2 45.4,61.1 45.3,61.1 45.1,61 44.9,61 44.6,61 44.3,61 44.1,61 43.8,61 43.4,61   43.1,61.1 42.8,61.1 42.6,61.1 42.3,61.2 42.1,61.3 41.9,61.3 41.7,61.4 41.6,61.4 41.4,61.5 41.2,61.6 40.9,61.7 40.7,61.8   40.4,62 40.2,62.1 39.9,62.3 39.6,62.5 39.4,62.7 39.2,62.9 39,63.2 38.9,63.5 38.8,63.8 38.7,64.1 38.7,64.7 38.8,65.2 39,65.6   39.2,65.9 39.5,66.1 39.8,66.2 40.1,66.2 40.4,66.2 41,66.2 41.5,66.2 42,66.1 42.4,66 42.8,65.8 43.2,65.7 43.5,65.5 43.8,65.3   44,65.1 44.3,64.9 44.4,64.7 44.6,64.5 44.7,64.2 44.8,64 44.9,63.8 45,63.6 45.1,63 45.3,62.4 45.4,61.8 45.5,61.3 45.5,61.3 "/>
<polygon class="st3" points="10.3,70.4 5.2,70.4 9.4,45.6 18.4,45.6 19.2,60.4 25.4,45.6 34.7,45.6 30.4,70.4 25.2,70.4 28.5,51.9   28.3,51.9 20.6,70.4 14.8,70.4 14.7,69.7 14.6,67.6 14.4,64.7 14.2,61.3 14.1,57.9 13.9,55 13.8,52.8 13.7,51.9 13.7,51.9   13.5,51.9 13.4,51.9 13.4,51.9 10.3,70.4 10.3,70.4 "/>
<polyline class="st1" points="10.3,70.4 5.2,70.4 9.4,45.6 18.4,45.6 19.2,60.4 25.4,45.6 34.7,45.6 30.4,70.4 25.2,70.4 28.5,51.9   28.3,51.9 20.6,70.4 14.8,70.4 14.8,70.4 14.7,69.7 14.6,67.6 14.4,64.7 14.2,61.3 14.1,57.9 13.9,55 13.8,52.8 13.7,51.9   13.7,51.9 13.7,51.9 13.5,51.9 13.4,51.9 13.4,51.9 10.3,70.4 "/>
<polygon class="st3" points="143.8,66.2 143,70.4 138.3,70.4 138.3,69.7 138.3,69 138.3,68.5 138.3,68.2 138.1,68.5 137.8,68.8   137.5,69.1 137.1,69.3 136.7,69.6 136.2,69.8 135.8,70 135.3,70.2 134.8,70.4 134.3,70.5 133.7,70.6 133.2,70.7 132.7,70.7   132.1,70.8 131.6,70.7 131.1,70.6 130.4,70.5 129.8,70.3 129.3,70 128.8,69.7 128.4,69.4 128,69.1 127.7,68.7 127.5,68.4 127.2,68   127.1,67.5 126.9,67.1 126.8,66.7 126.8,66.3 126.7,65.8 126.7,65.4 126.7,65 126.7,64.3 126.8,63.6 127,62.9 127.2,62.3   127.5,61.7 127.9,61.1 128.3,60.6 128.7,60.1 129.2,59.7 129.7,59.3 130.2,58.9 130.8,58.6 131.4,58.4 132,58.2 132.7,58   133.3,57.9 133.3,57.9 133.4,57.9 133.6,57.8 133.8,57.8 134,57.8 134.3,57.8 134.5,57.7 134.9,57.7 135.2,57.7 135.5,57.6   135.8,57.6 136.2,57.6 136.5,57.5 136.7,57.5 137,57.5 137.2,57.5 137.6,57.5 138.1,57.5 138.5,57.5 139,57.5 139.3,57.6   139.6,57.6 139.8,57.6 139.9,57.6 139.9,57.5 140,57.1 140,56.7 140,56.4 140,56 139.8,55.6 139.6,55.2 139.3,55 139,54.7   138.6,54.5 138.1,54.4 137.7,54.4 137.2,54.4 136.6,54.3 136,54.3 135.4,54.4 134.8,54.4 134.2,54.5 133.6,54.5 133,54.6   132.4,54.7 131.9,54.8 131.4,54.9 130.9,55 130.5,55.1 130.2,55.2 129.9,55.3 129.7,55.4 131,50.9 131.4,50.7 131.9,50.6   132.3,50.4 132.8,50.3 133.2,50.2 133.7,50.2 134.2,50.1 134.7,50 135.2,50 135.8,50 136.3,50 136.9,50 137.5,50 138.1,50 138.7,50   139.4,50 139.9,50 140.5,50.1 141.1,50.3 141.7,50.4 142.3,50.7 142.8,50.9 143.4,51.3 143.9,51.6 144.4,52 144.8,52.5 145.2,53   145.5,53.6 145.7,54.2 145.8,54.8 145.8,55.5 145.7,56.3 143.8,66.2 143.8,66.2 "/>
<polygon class="st3" points="143,70.6 143.1,70.5 143.9,66.3 143.7,66.2 142.9,70.4 143,70.3 143,70.6 143.1,70.6 143.1,70.5   143,70.6 143,70.6 "/>
<polygon class="st3" points="138.1,70.4 138.3,70.6 143,70.6 143,70.3 138.3,70.3 138.4,70.4 138.1,70.4 138.1,70.6 138.3,70.6   138.1,70.4 138.1,70.4 "/>
<polygon class="st3" points="138.4,68.3 138.3,68.2 138.2,68.5 138.2,69 138.2,69.7 138.1,70.4 138.4,70.4 138.4,69.7 138.4,69   138.4,68.5 138.4,68.3 138.3,68.2 138.4,68.3 138.4,68.3 "/>
<polygon class="st3" points="131.1,70.7 131.1,70.7 131.6,70.8 132.1,70.9 132.7,70.9 133.2,70.8 133.8,70.7 134.3,70.6 134.8,70.5   135.3,70.3 135.8,70.2 136.3,69.9 136.8,69.7 137.2,69.4 137.6,69.2 137.9,68.9 138.2,68.6 138.4,68.3 138.3,68.2 138,68.5   137.7,68.7 137.4,69 137,69.2 136.6,69.5 136.2,69.7 135.7,69.9 135.3,70.1 134.8,70.3 134.2,70.4 133.7,70.5 133.2,70.6   132.7,70.6 132.1,70.6 131.6,70.6 131.1,70.5 131.1,70.5 131.1,70.7 131.1,70.7 "/>
<polygon class="st3" points="126.5,65 126.5,65 126.5,65.4 126.6,65.8 126.6,66.3 126.7,66.7 126.8,67.2 127,67.6 127.1,68   127.4,68.4 127.6,68.8 127.9,69.2 128.3,69.5 128.8,69.8 129.2,70.1 129.8,70.4 130.4,70.6 131.1,70.7 131.1,70.5 130.5,70.3   129.9,70.2 129.4,69.9 128.9,69.6 128.5,69.3 128.1,69 127.8,68.7 127.6,68.3 127.4,67.9 127.2,67.5 127,67.1 126.9,66.7   126.9,66.3 126.8,65.8 126.8,65.4 126.8,65 126.8,65 126.5,65 126.5,65 "/>
<polygon class="st3" points="133.3,57.8 133.3,57.8 132.6,57.9 132,58 131.4,58.3 130.8,58.5 130.2,58.8 129.6,59.2 129.1,59.6   128.6,60.1 128.2,60.5 127.8,61.1 127.4,61.6 127.1,62.2 126.9,62.9 126.7,63.6 126.6,64.3 126.5,65 126.8,65 126.8,64.3   126.9,63.6 127.1,63 127.3,62.3 127.6,61.7 128,61.2 128.4,60.7 128.8,60.2 129.3,59.8 129.8,59.4 130.3,59.1 130.9,58.7   131.5,58.5 132.1,58.3 132.7,58.1 133.3,58 133.3,58 133.3,57.8 133.3,57.8 "/>
<polygon class="st3" points="137.2,57.4 137.2,57.4 137,57.4 136.7,57.4 136.5,57.4 136.2,57.4 135.8,57.5 135.5,57.5 135.2,57.5   134.9,57.6 134.5,57.6 134.3,57.7 134,57.7 133.8,57.7 133.6,57.7 133.4,57.7 133.3,57.8 133.3,57.8 133.3,58 133.3,58 133.5,58   133.6,58 133.8,57.9 134,57.9 134.3,57.9 134.5,57.8 134.9,57.8 135.2,57.8 135.5,57.7 135.8,57.7 136.2,57.7 136.5,57.7   136.7,57.6 137,57.6 137.2,57.6 137.2,57.6 137.2,57.4 137.2,57.4 "/>
<polygon class="st3" points="139.7,57.6 139.9,57.5 139.8,57.5 139.6,57.5 139.3,57.4 139,57.4 138.5,57.4 138.1,57.4 137.6,57.4   137.2,57.4 137.2,57.6 137.6,57.6 138.1,57.6 138.5,57.7 139,57.7 139.3,57.7 139.6,57.7 139.8,57.7 139.9,57.7 140,57.6   139.9,57.7 140,57.7 140,57.6 139.7,57.6 139.7,57.6 "/>
<polygon class="st3" points="139.9,56.4 139.9,56.4 139.9,56.7 139.8,57.1 139.8,57.4 139.7,57.6 140,57.6 140,57.5 140.1,57.1   140.1,56.7 140.2,56.4 140.2,56.4 139.9,56.4 139.9,56.4 "/>
<polygon class="st3" points="137.7,54.5 137.7,54.5 138.1,54.5 138.5,54.7 138.9,54.8 139.2,55 139.5,55.3 139.7,55.6 139.9,56   139.9,56.4 140.2,56.4 140.1,55.9 139.9,55.5 139.7,55.2 139.4,54.9 139,54.6 138.6,54.4 138.2,54.3 137.7,54.3 137.7,54.3   137.7,54.5 137.7,54.5 "/>
<polygon class="st3" points="129.6,55.4 129.8,55.5 130,55.4 130.2,55.3 130.5,55.2 130.9,55.1 131.4,55 131.9,54.9 132.4,54.8   133,54.7 133.6,54.6 134.2,54.6 134.8,54.5 135.4,54.5 136,54.5 136.6,54.5 137.2,54.5 137.7,54.5 137.7,54.3 137.2,54.3   136.6,54.2 136,54.2 135.4,54.3 134.8,54.3 134.2,54.3 133.6,54.4 133,54.5 132.4,54.6 131.8,54.7 131.4,54.7 130.9,54.8 130.5,55   130.1,55.1 129.8,55.2 129.6,55.3 129.8,55.4 129.6,55.4 129.6,55.4 "/>
<polygon class="st3" points="131,50.8 130.9,50.9 129.6,55.4 129.8,55.4 131.1,50.9 131.1,51 131,50.8 130.9,50.8 130.9,50.9   131,50.8 131,50.8 "/>
<polygon class="st3" points="139.4,49.9 139.4,49.9 138.7,49.9 138.1,49.8 137.5,49.8 136.9,49.8 136.3,49.8 135.8,49.9 135.2,49.9   134.7,49.9 134.2,50 133.7,50 133.2,50.1 132.7,50.2 132.3,50.3 131.8,50.4 131.4,50.6 131,50.8 131.1,51 131.5,50.8 131.9,50.7   132.3,50.5 132.8,50.4 133.2,50.3 133.7,50.3 134.2,50.2 134.7,50.2 135.2,50.1 135.8,50.1 136.3,50.1 136.9,50.1 137.5,50.1   138.1,50.1 138.7,50.1 139.4,50.1 139.4,50.1 139.4,49.9 139.4,49.9 "/>
<polygon class="st3" points="145.9,56.3 145.9,56.3 146,55.5 146,54.8 145.8,54.1 145.6,53.5 145.3,52.9 144.9,52.4 144.5,51.9   144,51.5 143.5,51.2 142.9,50.8 142.3,50.6 141.7,50.3 141.1,50.2 140.5,50 139.9,49.9 139.4,49.9 139.4,50.1 139.9,50.2   140.5,50.2 141,50.4 141.6,50.6 142.2,50.8 142.8,51 143.4,51.3 143.9,51.7 144.3,52.1 144.7,52.6 145.1,53 145.4,53.6 145.6,54.2   145.7,54.8 145.7,55.5 145.6,56.3 145.6,56.3 145.9,56.3 145.9,56.3 "/>
<polygon class="st3" points="143.9,66.3 143.9,66.3 145.9,56.3 145.6,56.3 143.7,66.2 143.7,66.2 143.9,66.3 143.9,66.3 "/>
<polygon class="st2" points="139.2,61.3 139.2,61.2 139.1,61.1 139,61.1 138.8,61 138.6,61 138.3,61 138,61 137.7,61 137.4,61   137.1,61.1 136.8,61.1 136.6,61.1 136.3,61.2 136,61.2 135.8,61.3 135.6,61.3 135.5,61.3 135.3,61.4 135.1,61.4 134.9,61.5   134.7,61.6 134.4,61.8 134.2,61.9 133.9,62.1 133.7,62.2 133.4,62.4 133.2,62.6 133,62.9 132.9,63.1 132.7,63.4 132.6,63.7   132.5,64.1 132.5,64.7 132.6,65.2 132.8,65.6 133,65.9 133.3,66.1 133.6,66.2 133.9,66.2 134.2,66.2 134.8,66.2 135.3,66.2   135.8,66.1 136.3,65.9 136.7,65.8 137,65.6 137.4,65.4 137.7,65.2 137.9,65 138.2,64.8 138.4,64.5 138.6,64.3 138.7,64.1   138.8,63.8 138.9,63.6 138.9,63.4 139,62.9 139.1,62.3 139.2,61.8 139.2,61.3 139.2,61.3 "/>
<polygon class="st3" points="178.1,67.9 178.1,67.4 178.3,66.9 178.6,66.5 178.9,66.1 179.3,65.7 179.7,65.5 180.2,65.4 180.7,65.3   181.3,65.4 181.8,65.5 182.2,65.7 182.6,66.1 182.9,66.5 183.2,66.9 183.4,67.4 183.4,67.9 182.8,67.9 182.8,67.5 182.7,67.1   182.5,66.7 182.3,66.4 182,66.1 181.6,65.9 181.2,65.8 180.7,65.8 180.3,65.8 179.9,65.9 179.5,66.1 179.2,66.4 179,66.7   178.8,67.1 178.7,67.5 178.6,67.9 178.1,67.9 178.1,67.9 "/>
<polygon class="st3" points="179.8,67.9 179.8,66.7 180.8,66.7 181.1,66.7 181.3,66.8 181.4,66.8 181.6,66.9 181.7,67 181.7,67.1   181.8,67.3 181.8,67.4 181.8,67.6 181.7,67.7 181.7,67.8 181.6,67.9 180.8,67.9 180.9,67.8 181,67.8 181.2,67.8 181.3,67.7   181.3,67.7 181.4,67.6 181.4,67.5 181.4,67.4 181.4,67.3 181.3,67.2 181.3,67.2 181.2,67.2 181.1,67.1 181,67.1 181,67.1   180.8,67.1 180.3,67.1 180.3,67.9 179.8,67.9 179.8,67.9 "/>
<polygon class="st3" points="178.1,67.9 178.1,68 178.1,68.5 178.3,69 178.6,69.5 178.9,69.9 179.3,70.2 179.7,70.4 180.2,70.6   180.7,70.6 181.3,70.6 181.8,70.4 182.2,70.2 182.6,69.9 182.9,69.5 183.2,69 183.4,68.5 183.4,68 183.4,67.9 182.8,67.9 182.8,68   182.8,68.4 182.7,68.8 182.5,69.2 182.3,69.5 182,69.8 181.6,70 181.2,70.1 180.7,70.2 180.3,70.1 179.9,70 179.5,69.8 179.2,69.5   179,69.2 178.8,68.8 178.7,68.4 178.6,68 178.6,67.9 178.1,67.9 178.1,67.9 "/>
<polygon class="st3" points="179.8,67.9 179.8,69 180.3,69 180.3,68.1 180.7,68.1 181.3,69 181.7,69 181.1,68.1 181.3,68.1   181.4,68 181.5,68 181.6,67.9 181.6,67.9 180.8,67.9 180.7,67.9 180.3,67.9 180.3,67.9 179.8,67.9 179.8,67.9 "/>
<path class="st1" d="M178.1,68L178.1,68l0.1-0.5l0.2-0.5l0.3-0.5l0.3-0.4l0.4-0.3l0.5-0.2l0.5-0.2l0.5-0.1l0,0l0.5,0.1l0.5,0.2  l0.5,0.2l0.4,0.3l0.3,0.4l0.3,0.5l0.2,0.5l0.1,0.5l0,0l-0.1,0.5l-0.2,0.5l-0.3,0.5l-0.3,0.4l-0.4,0.3l-0.5,0.2l-0.5,0.2l-0.5,0.1  l0,0l-0.5-0.1l-0.5-0.2l-0.5-0.2l-0.4-0.3l-0.3-0.4l-0.3-0.5l-0.2-0.5L178.1,68 M180.3,69h-0.5v-2.3h1l0,0l0.2,0l0.2,0l0.2,0.1  l0.1,0.1l0.1,0.1l0.1,0.1l0,0.1l0,0.1l0,0l0,0.2l0,0.1l-0.1,0.1l-0.1,0.1l-0.1,0.1l-0.1,0l-0.1,0h-0.1l0.6,0.9h-0.4l-0.6-0.9h-0.5  V69 M180.7,67.9L180.7,67.9l0.2,0l0.1,0l0.1,0l0.1,0l0.1-0.1l0-0.1l0-0.1v-0.1l0,0l0-0.1l0-0.1l-0.1,0l-0.1,0l-0.1,0l-0.1,0H181  h-0.1h-0.6v0.8H180.7 M180.7,70.2L180.7,70.2l0.4,0l0.4-0.1l0.4-0.2l0.3-0.3l0.2-0.3l0.2-0.4l0.1-0.4l0-0.5l0,0l0-0.5l-0.1-0.4  l-0.2-0.4l-0.2-0.3l-0.3-0.3l-0.4-0.2l-0.4-0.1l-0.4,0l0,0l-0.4,0l-0.4,0.1l-0.4,0.2l-0.3,0.3l-0.2,0.3l-0.2,0.4l-0.1,0.4l0,0.5l0,0  l0,0.5l0.1,0.4l0.2,0.4l0.2,0.3l0.3,0.3l0.4,0.2l0.4,0.1L180.7,70.2"/>
<polygon class="st3" points="145.2,70.4 150.5,70.4 150.5,70.4 152.4,59.7 152.5,59.3 152.6,58.9 152.7,58.4 152.9,58 153.1,57.6   153.3,57.2 153.5,56.8 153.8,56.5 154.2,56.2 154.5,55.9 155,55.6 155.5,55.3 156,55.2 156.6,55 157.3,54.9 158,54.9 158.3,54.9   158.4,54.9 158.5,54.9 158.5,54.9 159.3,50 158.8,50 158.3,50.1 157.8,50.2 157.4,50.3 157,50.5 156.6,50.7 156.2,50.9 155.8,51.1   155.5,51.4 155.2,51.6 154.9,51.9 154.6,52.2 154.3,52.6 154,52.9 153.7,53.3 153.5,53.6 154,50.2 148.7,50.2 145.2,70.4   145.2,70.4 145.2,70.4 "/>
<polyline class="st1" points="145.2,70.4 150.5,70.4 150.5,70.4 152.4,59.7 152.4,59.7 152.5,59.3 152.6,58.9 152.7,58.4 152.9,58   153.1,57.6 153.3,57.2 153.5,56.8 153.8,56.5 154.2,56.2 154.5,55.9 155,55.6 155.5,55.3 156,55.2 156.6,55 157.3,54.9 158,54.9   158,54.9 158.3,54.9 158.4,54.9 158.5,54.9 158.5,54.9 159.3,50 159.3,50 158.8,50 158.3,50.1 157.8,50.2 157.4,50.3 157,50.5   156.6,50.7 156.2,50.9 155.8,51.1 155.5,51.4 155.2,51.6 154.9,51.9 154.6,52.2 154.3,52.6 154,52.9 153.7,53.3 153.5,53.6   154,50.2 148.7,50.2 145.2,70.4 145.2,70.4 "/>
<polygon class="st3" points="95.2,70.4 100.5,70.4 100.6,70.4 102.4,59.7 102.5,59.3 102.6,58.9 102.7,58.5 102.8,58.1 103,57.7   103.1,57.4 103.4,57 103.6,56.7 103.9,56.4 104.3,56.1 104.7,55.9 105.1,55.7 105.7,55.5 106.3,55.4 106.9,55.3 107.6,55.2   107.7,55.2 107.8,55.3 107.9,55.3 108,55.3 108.1,55.3 108.1,55.3 108.2,55.3 108.2,55.3 108.2,55.3 108.3,55 108.4,54.7   108.4,54.3 108.6,53.8 108.7,53.3 108.9,52.7 109.1,52.2 109.2,51.8 109.4,51.5 109.6,51.1 109.8,50.8 109.9,50.5 110.1,50.3   110.2,50.2 110.2,50.1 110.2,50.1 110.1,50.1 110,50.1 109.9,50 109.8,50 109.6,50 109.5,50 109.3,50 108.8,50 108.2,50.1   107.7,50.2 107.3,50.3 106.8,50.5 106.4,50.6 106.1,50.8 105.7,51.1 105.4,51.3 105.1,51.6 104.8,51.9 104.6,52.2 104.3,52.5   104,52.9 103.7,53.3 103.4,53.6 104.1,50.2 98.7,50.2 95.2,70.4 95.2,70.4 95.2,70.4 "/>
<polyline class="st1" points="95.2,70.4 100.5,70.4 100.6,70.4 102.4,59.7 102.4,59.7 102.5,59.3 102.6,58.9 102.7,58.5 102.8,58.1   103,57.7 103.1,57.4 103.4,57 103.6,56.7 103.9,56.4 104.3,56.1 104.7,55.9 105.1,55.7 105.7,55.5 106.3,55.4 106.9,55.3   107.6,55.2 107.6,55.2 107.7,55.2 107.8,55.3 107.9,55.3 108,55.3 108.1,55.3 108.1,55.3 108.2,55.3 108.2,55.3 108.2,55.3   108.2,55.3 108.3,55 108.4,54.7 108.4,54.3 108.6,53.8 108.7,53.3 108.9,52.7 109.1,52.2 109.1,52.2 109.2,51.8 109.4,51.5   109.6,51.1 109.8,50.8 109.9,50.5 110.1,50.3 110.2,50.2 110.2,50.1 110.2,50.1 110.2,50.1 110.1,50.1 110,50.1 109.9,50 109.8,50   109.6,50 109.5,50 109.3,50 109.3,50 108.8,50 108.2,50.1 107.7,50.2 107.3,50.3 106.8,50.5 106.4,50.6 106.1,50.8 105.7,51.1   105.4,51.3 105.1,51.6 104.8,51.9 104.6,52.2 104.3,52.5 104,52.9 103.7,53.3 103.4,53.6 104.1,50.2 98.7,50.2 95.2,70.4 95.2,70.4   "/>
<polygon class="st2" points="178.1,90.3 178.1,90.2 178.3,89.7 178.6,89.3 178.9,88.9 179.3,88.6 179.7,88.4 180.2,88.3 180.7,88.2   181.3,88.3 181.8,88.4 182.2,88.6 182.6,88.9 182.9,89.3 183.2,89.7 183.4,90.2 183.4,90.3 182.8,90.3 182.7,89.9 182.5,89.6   182.3,89.2 182,89 181.6,88.8 181.2,88.6 180.7,88.6 180.3,88.6 179.9,88.8 179.5,89 179.2,89.2 179,89.6 178.8,89.9 178.7,90.3   178.1,90.3 178.1,90.3 "/>
<polygon class="st2" points="179.8,90.3 179.8,89.6 180.8,89.6 181.1,89.6 181.3,89.7 181.4,89.7 181.6,89.8 181.7,89.9 181.7,90   181.8,90.1 181.8,90.3 181.4,90.3 181.4,90.2 181.4,90.1 181.3,90 181.3,90 181.2,90 181.1,89.9 181,89.9 181,89.9 180.8,89.9   180.3,89.9 180.3,90.3 179.8,90.3 179.8,90.3 "/>
<polygon class="st2" points="178.1,90.7 178.1,90.3 178.7,90.3 178.7,90.3 178.6,90.7 178.1,90.7 178.1,90.7 "/>
<polygon class="st2" points="179.8,90.7 179.8,90.3 180.3,90.3 180.3,90.7 180.7,90.7 180.9,90.6 181,90.6 181.2,90.6 181.3,90.6   181.3,90.5 181.4,90.4 181.4,90.3 181.4,90.3 181.8,90.3 181.8,90.3 181.8,90.4 181.7,90.6 181.7,90.6 181.6,90.7 179.8,90.7   179.8,90.7 "/>
<polygon class="st2" points="182.8,90.7 182.8,90.3 182.8,90.3 183.4,90.3 183.4,90.7 182.8,90.7 182.8,90.7 "/>
<polygon class="st2" points="178.1,90.7 178.1,90.8 178.1,91.3 178.3,91.8 178.6,92.3 178.9,92.7 179.3,93 179.7,93.2 180.2,93.4   180.7,93.4 181.3,93.4 181.8,93.2 182.2,93 182.6,92.7 182.9,92.3 183.2,91.8 183.4,91.3 183.4,90.8 183.4,90.7 182.8,90.7   182.8,90.8 182.8,91.2 182.7,91.6 182.5,92 182.3,92.3 182,92.6 181.6,92.8 181.2,92.9 180.7,93 180.3,92.9 179.9,92.8 179.5,92.6   179.2,92.3 179,92 178.8,91.6 178.7,91.2 178.6,90.8 178.6,90.7 178.1,90.7 178.1,90.7 "/>
<polygon class="st2" points="179.8,90.7 179.8,91.8 180.3,91.8 180.3,90.9 180.7,90.9 181.3,91.8 181.7,91.8 181.1,90.9 181.3,90.9   181.4,90.8 181.5,90.8 181.6,90.7 181.6,90.7 179.8,90.7 179.8,90.7 "/>
</svg>