<?xml version="1.0" encoding="UTF-8"?>
<!-- Generator: Adobe Illustrator 16.0.0, SVG Export Plug-In . SVG Version: 6.00 Build 0)  -->
<!DOCTYPE svg PUBLIC "-//W3C//DTD SVG 1.1//EN" "http://www.w3.org/Graphics/SVG/1.1/DTD/svg11.dtd">
<svg version="1.1" id="Layer_1" xmlns="http://www.w3.org/2000/svg" xmlns:xlink="http://www.w3.org/1999/xlink" x="0px" y="0px" width="175.8px" height="53.9px" viewBox="0 0 175.8 53.9" style="enable-background:new 0 0 175.8 53.9;" xml:space="preserve">
<style type="text/css">
<![CDATA[
	.st0{fill:#F6A500;}
	.st1{fill:#005098;}
]]>
</style>
<g>
	<polygon class="st1" points="62,53.2 70.9,1 85.2,1 76.3,53.2  "/>
	<path class="st1" d="M127.9,2.3c-2.8-1.1-7.2-2.2-12.8-2.2c-14.1,0-24,7.1-24,17.2C91,24.8,98.1,29,103.5,31.5   c5.5,2.6,7.4,4.2,7.4,6.5c0,3.5-4.4,5.1-8.5,5.1c-5.7,0-8.7-0.8-13.4-2.7l-1.8-0.8l-2,11.7c3.3,1.5,9.5,2.7,15.9,2.8   c15,0,24.7-7,24.8-17.8c0.1-5.9-3.7-10.5-11.9-14.2c-5-2.4-8-4-8-6.5c0-2.2,2.6-4.5,8.1-4.5c4.7-0.1,8,0.9,10.6,2l1.3,0.6   L127.9,2.3"/>
	<path class="st1" d="M164.4,1h-11c-3.4,0-6,0.9-7.5,4.3l-21.1,47.8h14.9c0,0,2.4-6.4,3-7.8c1.6,0,16.1,0,18.2,0   c0.4,1.8,1.7,7.8,1.7,7.8h13.2L164.4,1 M146.8,34.7c1.2-3,5.7-14.6,5.7-14.6c-0.1,0.1,1.2-3,1.9-5l1,4.5c0,0,2.7,12.5,3.3,15.1   H146.8z"/>
	<path class="st1" d="M50.1,1L36.2,36.6l-1.5-7.2C32.1,21,24,12,15,7.5l12.7,45.7l15.1,0L65.2,1H50.1"/>
	<path class="st0" d="M23.3,1H0.3L0.1,2.1C18,6.4,29.8,16.8,34.7,29.4l-5-24C28.8,2.1,26.3,1.1,23.3,1"/>
</g>
</svg>