<?xml version="1.0" encoding="UTF-8"?>
<!-- Generator: Adobe Illustrator 16.0.0, SVG Export Plug-In . SVG Version: 6.00 Build 0)  -->
<!DOCTYPE svg PUBLIC "-//W3C//DTD SVG 1.1//EN" "http://www.w3.org/Graphics/SVG/1.1/DTD/svg11.dtd">
<svg version="1.1" id="Layer_1" xmlns="http://www.w3.org/2000/svg" xmlns:xlink="http://www.w3.org/1999/xlink" x="0px" y="0px" width="164px" height="43.7px" viewBox="0 0 164 43.7" style="enable-background:new 0 0 164 43.7;" xml:space="preserve">
<style type="text/css">
<![CDATA[
	.st0{fill:#1B557D;}
	.st1{fill-rule:evenodd;clip-rule:evenodd;fill:#107DB0;}
	.st2{fill-rule:evenodd;clip-rule:evenodd;fill:#1B557D;}
]]>
</style>
<path class="st1" d="M128.1,6.9c-4.1,0-7.3,1.1-9.8,1.6l-0.8,6.2c1.2-0.6,5.2-1.7,8.4-1.8c3.2-0.1,5.2,0.6,4.5,3.4  c-9.6,0-16.1,2-17.5,8.2c-1.9,10.7,9.8,10.4,14.5,5.7l-0.6,2.6h8.6l3.7-17C140.7,8.6,134.1,6.8,128.1,6.9z M128.7,24.3  c-0.5,2.3-2.3,3.3-4.5,3.4c-1.9,0.1-3.6-1.6-2.4-3.6c1-1.7,3.6-2.1,5.3-2.1c0.7,0,1.4,0,2.1,0C129,22.9,128.9,23.6,128.7,24.3z"/>
<polygon class="st1" points="146.5,0.2 139.4,32.9 148.1,32.9 155.3,0.2 146.5,0.2 146.5,0.2 "/>
<path class="st1" d="M106.4,0.3h-16l-7.1,32.6h9.3L95,22.1h6.6c6.5,0,11.9-4,13.3-10.7C116.6,3.7,111,0.3,106.4,0.3z M106.1,11.4  c-0.6,2.5-3.1,4.5-5.5,4.5h-4.3l1.9-8.9h4.6C105.3,6.9,106.7,8.9,106.1,11.4z"/>
<path class="st2" d="M44.4,6.9c-4.1,0-7.3,1.1-9.6,1.6l-0.8,6.2c1.1-0.6,5-1.7,8.2-1.8c3.2-0.1,5.1,0.6,4.5,3.4  c-9.5,0-15.9,2-17.3,8.2c-1.9,10.7,9.7,10.4,14.2,5.7l-0.6,2.6h8.6l3.7-17C57,8.6,50.4,6.8,44.4,6.9z M45.1,24.3  c-0.5,2.3-2.4,3.3-4.5,3.4c-1.9,0.1-3.5-1.6-2.3-3.6c0.9-1.7,3.6-2.1,5.1-2.1c0.8,0,1.4,0,2.2,0C45.4,22.9,45.2,23.6,45.1,24.3z"/>
<polygon class="st2" points="59.2,7.4 67.8,7.4 69.2,22.6 77.6,7.4 86.4,7.4 66,43.7 56.4,43.7 62.7,33 59.2,7.4 59.2,7.4 "/>
<path class="st2" d="M23.1,0.3h-16L0,32.9h9.4l2.3-10.8h6.7c6.4,0,11.8-4,13.2-10.7C33.3,3.7,27.8,0.3,23.1,0.3z M22.8,11.4  c-0.6,2.5-3,4.5-5.4,4.5H13l2-8.9h4.6C21.9,6.9,23.5,8.9,22.8,11.4z"/>
<path class="st0" d="M157.2,4.4V0.6h-1.4V0h3.5v0.5h-1.4v3.9H157.2z"/>
<path class="st0" d="M159.8,4.4V0h0.9l1,3.1c0.1,0.3,0.2,0.5,0.2,0.6c0-0.2,0.1-0.4,0.2-0.7l1-3h0.8v4.4h-0.6V0.7l-1.3,3.7h-0.5  l-1.3-3.7v3.7H159.8z"/>
</svg>