<?xml version="1.0" standalone="no"?>
<!DOCTYPE svg PUBLIC "-//W3C//DTD SVG 1.1//EN" "http://www.w3.org/Graphics/SVG/1.1/DTD/svg11.dtd" >
<svg>
<metadata>
Created by FontForge 20090622 at Sat Jun 10 16:18:46 2017
 By deploy user
Copyright &#194;&#169; 2008, Joe Finocchiaro Design, 2125812458, joefino.com. All rights reserved.
</metadata>
<defs>
<font id="Benetton-Regular" horiz-adv-x="546" >
  <font-face 
    font-family="Benetton"
    font-weight="400"
    font-stretch="normal"
    units-per-em="1000"
    panose-1="0 0 0 0 0 0 0 0 0 0"
    ascent="800"
    descent="-200"
    x-height="449"
    cap-height="682"
    bbox="-60 -250 1932 911"
    underline-thickness="50"
    underline-position="-50"
    unicode-range="U+0020-U+FB02"
  />
<missing-glyph horiz-adv-x="500" 
d="M80 520v-340h340v340h-340zM50 150v400h400v-400h-400z" />
    <glyph glyph-name="fi" unicode="fi" horiz-adv-x="475" 
d="M420 449v-449h-89v373h-159v-373h-89v373h-63v76h63v44q0 198 205 198q54 0 107 -15v-78q-54 13 -90 13q-69 0 -101 -27.5t-32 -94.5v-40h248z" />
    <glyph glyph-name="fl" unicode="fl" horiz-adv-x="481" 
d="M421 674v-674h-88v607q-34 4 -50 4q-61 0 -86 -23.5t-25 -82.5v-56h103v-76h-103v-373h-89v373h-63v76h63v72q0 91 50 130.5t145 39.5q70 0 143 -17z" />
    <glyph glyph-name=".notdef" horiz-adv-x="500" 
d="M80 520v-340h340v340h-340zM50 150v400h400v-400h-400z" />
    <glyph glyph-name=".null" horiz-adv-x="0" 
 />
    <glyph glyph-name="nonmarkingreturn" horiz-adv-x="333" 
 />
    <glyph glyph-name="space" unicode=" " horiz-adv-x="250" 
 />
    <glyph glyph-name="exclam" unicode="!" horiz-adv-x="230" 
d="M153 681v-334q0 -7 -9 -57l-16 -113h-39l-17 113q-1 8 -3 18.5t-3.5 19.5t-1.5 19v334h89zM175 50q0 -25 -17.5 -42.5t-42.5 -17.5t-42.5 17.5t-17.5 42.5t17.5 42.5t42.5 17.5t42.5 -17.5t17.5 -42.5z" />
    <glyph glyph-name="quotedbl" unicode="&#x22;" horiz-adv-x="368" 
d="M313 682v-112q0 -4 -23 -107h-42q-23 103 -23 107v112h88zM143 682v-112q0 -4 -23 -107h-42q-23 103 -23 107v112h88z" />
    <glyph glyph-name="numbersign" unicode="#" 
d="M500 266v-69h-130l-41 -197h-80l41 197h-84l-41 -197h-79l41 197h-81v69h96l26 128h-122v69h137l46 219h79l-46 -219h84l46 219h80l-46 -219h74v-69h-89l-27 -128h116zM305 266l27 128h-84l-27 -128h84z" />
    <glyph glyph-name="dollar" unicode="$" 
d="M491 180q0 -74 -45.5 -121t-120.5 -62v-102h-90v96q-123 4 -180 50l45 86q59 -46 146 -46q32 0 63.5 7.5t57.5 29.5t26 55q0 22 -10.5 40.5t-30.5 33t-35 23t-39 19.5l-87 41q-125 59 -125 179q0 73 47.5 120t121.5 58v102h90v-100q77 -8 125 -39l-30 -83q-53 34 -135 34
q-47 0 -84 -22.5t-37 -66.5q0 -39 33.5 -68t82 -50t96.5 -45.5t81.5 -67t33.5 -101.5z" />
    <glyph glyph-name="percent" unicode="%" horiz-adv-x="716" 
d="M352 538q0 -63 -46 -108t-110 -45t-110 45t-46 108q0 64 46 108.5t110 44.5t110 -44.5t46 -108.5zM275 538q0 33 -23 56t-56 23t-56 -23t-23 -56q0 -32 23 -55.5t56 -23.5t56 23.5t23 55.5zM545 691h67l-456 -719h-67zM676 144q0 -64 -46 -108.5t-110 -44.5t-110 44.5
t-46 108.5t46 108.5t110 44.5t110 -44.5t46 -108.5zM599 144q0 32 -23 55.5t-56 23.5t-56 -23.5t-23 -55.5q0 -33 23 -56t56 -23t56 23t23 56z" />
    <glyph glyph-name="ampersand" unicode="&#x26;" horiz-adv-x="642" 
d="M516 142l116 -142h-126l-58 72q-97 -81 -213 -81q-85 0 -140 46t-55 129q0 123 161 210q-77 83 -77 160q0 71 51 113t124 42q66 0 115 -41.5t49 -106.5q0 -63 -31 -102.5t-94 -79.5l121 -148q36 54 44 83h99q-22 -73 -86 -154zM393 141l-136 170q-35 -19 -57 -34.5
t-42 -44.5t-20 -62q0 -42 33 -65.5t77 -23.5q75 0 145 60zM372 538q0 31 -23 50.5t-55 19.5q-30 0 -52 -18t-22 -47q0 -53 63 -116q55 37 70 57q19 25 19 54z" />
    <glyph glyph-name="quotesingle" unicode="'" horiz-adv-x="198" 
d="M143 682v-112q0 -4 -23 -107h-42q-23 103 -23 107v112h88z" />
    <glyph glyph-name="parenleft" unicode="(" horiz-adv-x="308" 
d="M278 -215h-73q-78 80 -121.5 204t-43.5 244t43.5 244.5t121.5 204.5h73q-135 -193 -135 -449q0 -253 135 -448z" />
    <glyph glyph-name="parenright" unicode=")" horiz-adv-x="308" 
d="M268 233q0 -120 -43.5 -244t-121.5 -204h-73q135 193 135 448q0 256 -135 449h73q78 -80 121.5 -204t43.5 -245z" />
    <glyph glyph-name="asterisk" unicode="*" horiz-adv-x="386" 
d="M176 582l-41 110h115l-41 -110l10 -6l91 73l36 -110l-117 5l-3 -11l97 -64l-93 -68l-31 113h-11l-32 -113l-93 67l98 65l-4 11l-117 -6l36 110l91 -73z" />
    <glyph glyph-name="plus" unicode="+" 
d="M509 394v-82h-195v-195h-82v195h-195v82h195v195h82v-195h195z" />
    <glyph glyph-name="comma" unicode="," horiz-adv-x="228" 
d="M178 31q0 -52 -35.5 -94.5t-87.5 -54.5v19q24 13 38.5 38t14.5 52q-24 0 -41 18t-17 42q0 25 17.5 42.5t42.5 17.5q31 0 49.5 -23.5t18.5 -56.5z" />
    <glyph glyph-name="hyphen" unicode="-" horiz-adv-x="363" 
d="M303 267v-83h-243v83h243z" />
    <glyph glyph-name="period" unicode="." horiz-adv-x="220" 
d="M170 51q0 -25 -17.5 -42.5t-42.5 -17.5t-42.5 17.5t-17.5 42.5t17.5 42.5t42.5 17.5t42.5 -17.5t17.5 -42.5z" />
    <glyph glyph-name="slash" unicode="/" horiz-adv-x="325" 
d="M225 691h70l-195 -700h-70z" />
    <glyph glyph-name="zero" unicode="0" 
d="M496 342q0 -46 -6 -91t-22 -93t-40 -84t-64 -59.5t-91 -23.5t-91 23.5t-64 59.5t-40 84t-22 93t-6 91q0 89 19 158q23 83 74.5 137t129.5 54t129.5 -54t74.5 -137q19 -69 19 -158zM394 342q0 36 -4 73t-15.5 82.5t-37.5 74.5t-64 29t-64 -29t-37.5 -74.5t-15.5 -82.5
t-4 -73q0 -37 4 -73.5t15 -83t37.5 -75.5t64.5 -29t64.5 29t37.5 75.5t15 83t4 73.5z" />
    <glyph glyph-name="one" unicode="1" 
d="M324 0h-98v543h-101v21l174 118h25v-682z" />
    <glyph glyph-name="two" unicode="2" 
d="M479 85v-85h-432v19l175 231l21.5 26.5t22.5 29l19.5 27.5t19.5 31.5t13.5 30t10.5 34.5t3 34q0 65 -47.5 101.5t-114.5 36.5q-54 0 -109 -21v90q62 21 133 21q105 0 173 -60.5t68 -163.5q0 -38 -7 -69.5t-26.5 -65t-32 -51.5t-44.5 -59l-104 -137h258z" />
    <glyph glyph-name="three" unicode="3" 
d="M447 193q0 -99 -70.5 -150.5t-173.5 -51.5q-77 0 -145 16v94q67 -20 124 -20q64 0 115 29t51 88q0 55 -43 83t-101 28h-40v85h37q55 0 95.5 26t40.5 78q0 54 -46.5 78.5t-106.5 24.5q-54 0 -109 -19v91q77 19 144 19q91 0 154 -48t63 -136q0 -111 -104 -154v-4
q18 -4 40 -18q75 -46 75 -139z" />
    <glyph glyph-name="four" unicode="4" 
d="M493 266v-85h-73v-181h-98v181h-289v47l311 463h76v-425h73zM163 266h159v236h-2l-157 -233v-3z" />
    <glyph glyph-name="five" unicode="5" 
d="M468 211q0 -105 -72.5 -162.5t-180.5 -57.5q-79 0 -137 17v92q48 -19 122 -19q69 0 118.5 32.5t49.5 97.5q0 67 -48.5 98.5t-119.5 31.5q-51 0 -99 -14v355h349v-85h-260v-177q19 4 43 4q103 0 169 -56.5t66 -156.5z" />
    <glyph glyph-name="six" unicode="6" 
d="M486 195q0 -88 -61 -146t-150 -58q-103 0 -158.5 71t-55.5 177q0 251 275 452l59 -75q-69 -41 -127.5 -108t-79.5 -137q44 23 98 23q87 0 143.5 -56t56.5 -143zM386 191q0 54 -34.5 85.5t-89.5 31.5q-54 0 -93 -26q-9 -27 -9 -59q0 -56 29.5 -99t82.5 -43q49 0 81.5 30.5
t32.5 79.5z" />
    <glyph glyph-name="seven" unicode="7" 
d="M490 682v-16l-302 -675l-87 38l254 568h-299v85h434z" />
    <glyph glyph-name="eight" unicode="8" 
d="M492 183q0 -87 -65.5 -139.5t-153.5 -52.5q-89 0 -154.5 52.5t-65.5 139.5q0 118 103 163v4q-42 23 -66 61.5t-24 85.5q0 87 59 140.5t148 53.5q88 0 147 -53.5t59 -140.5q0 -48 -24 -86t-66 -61v-4q103 -45 103 -163zM380 494q0 44 -31 73.5t-76 29.5t-76 -29.5
t-31 -73.5q0 -45 31 -74.5t76 -29.5t76 29.5t31 74.5zM393 194q0 48 -35.5 79t-84.5 31t-84.5 -31t-35.5 -79q0 -49 35 -79.5t85 -30.5q49 0 84.5 30.5t35.5 79.5z" />
    <glyph glyph-name="nine" unicode="9" 
d="M486 443q0 -251 -275 -452l-59 75q69 41 127.5 108t79.5 137q-44 -23 -98 -23q-87 0 -143.5 56t-56.5 143q0 88 61 146t150 58q103 0 158.5 -71t55.5 -177zM387 459q0 56 -29.5 99t-83.5 43q-49 0 -81 -30.5t-32 -79.5q0 -54 34.5 -85.5t89.5 -31.5q51 0 93 26q9 27 9 59
z" />
    <glyph glyph-name="colon" unicode=":" horiz-adv-x="220" 
d="M170 398q0 -25 -17.5 -42.5t-42.5 -17.5t-42.5 17.5t-17.5 42.5t17.5 42.5t42.5 17.5t42.5 -17.5t17.5 -42.5zM170 51q0 -25 -17.5 -42.5t-42.5 -17.5t-42.5 17.5t-17.5 42.5t17.5 42.5t42.5 17.5t42.5 -17.5t17.5 -42.5z" />
    <glyph glyph-name="semicolon" unicode=";" horiz-adv-x="230" 
d="M170 398q0 -25 -17.5 -42.5t-42.5 -17.5t-42.5 17.5t-17.5 42.5t17.5 42.5t42.5 17.5t42.5 -17.5t17.5 -42.5zM180 31q0 -52 -35.5 -94.5t-87.5 -54.5v19q24 13 38.5 38t14.5 52q-24 0 -41 18t-17 42q0 25 17.5 42.5t42.5 17.5q32 0 50 -23.5t18 -56.5z" />
    <glyph glyph-name="less" unicode="&#x3c;" 
d="M510 189v-87l-474 202v82l474 203v-88l-375 -155v-1z" />
    <glyph glyph-name="equal" unicode="=" 
d="M509 495v-83h-472v83h472zM509 277v-82h-472v82h472z" />
    <glyph glyph-name="greater" unicode="&#x3e;" 
d="M510 386v-82l-474 -202v87l375 156v1l-375 155v88z" />
    <glyph glyph-name="question" unicode="?" horiz-adv-x="441" 
d="M401 507q0 -42 -17 -80.5t-41.5 -67.5t-49.5 -55.5t-42 -55.5t-17 -57v-14h-94v23q0 39 16.5 74t40.5 60.5l48 50t40.5 53.5t16.5 59q0 53 -49 78.5t-106 25.5q-48 0 -107 -19v90q62 19 140 19q91 0 156 -48.5t65 -135.5zM244 50q0 -25 -17.5 -42.5t-42.5 -17.5
t-42.5 17.5t-17.5 42.5t17.5 42.5t42.5 17.5t42.5 -17.5t17.5 -42.5z" />
    <glyph glyph-name="at" unicode="@" horiz-adv-x="949" 
d="M509 700q96 0 173.5 -31t126 -83t74.5 -117.5t26 -136.5q0 -130 -72 -231t-176 -101q-42 0 -68.5 16t-33 29.5t-8.5 25.5q-1 -1 -15 -14t-29.5 -24.5t-46.5 -22t-67 -10.5q-85 0 -129.5 60t-44.5 152q0 122 72.5 209.5t178.5 87.5q32 0 58.5 -10.5t42 -26t23.5 -27
t10 -18.5h4l15 69h83l-77 -354q-7 -33 4.5 -49.5t38.5 -16.5q55 0 107 80.5t52 179.5q0 34 -8.5 71t-32 79t-59 75t-96 55t-136.5 22q-116 0 -205 -59.5t-133 -150t-44 -193.5q0 -49 13 -98t43.5 -99.5t75.5 -89t115.5 -62.5t156.5 -24q163 0 269 78v-75q-105 -67 -259 -67
q-104 0 -189.5 29t-140 74.5t-92 103.5t-53.5 114.5t-16 109.5q0 92 30.5 175.5t88 150t148 106t202.5 39.5zM304 215q0 -35 7 -64.5t32.5 -55.5t68.5 -26q69 0 117.5 73.5t48.5 161.5q0 56 -25.5 96.5t-80.5 40.5q-73 0 -120.5 -76t-47.5 -150z" />
    <glyph glyph-name="A" unicode="A" horiz-adv-x="631" 
d="M342 686l309 -686h-106l-91 201h-290l-86 -201h-98l293 686h69zM201 286h215l-112 250z" />
    <glyph glyph-name="B" unicode="B" horiz-adv-x="578" 
d="M548 193q0 -92 -59.5 -142.5t-153.5 -50.5h-255v682h220q91 0 152 -43.5t61 -130.5q0 -112 -92 -150v-2q60 -13 93.5 -56.5t33.5 -106.5zM412 493q0 48 -32 76t-81 28h-121v-209h121q48 0 80.5 29t32.5 76zM447 194q0 56 -40 83t-98 27h-131v-219h131q60 0 99 26t39 83z
" />
    <glyph glyph-name="C" unicode="C" horiz-adv-x="643" 
d="M603 121v-98q-87 -32 -189 -32q-159 0 -266.5 96t-107.5 254t107.5 254t266.5 96q103 0 189 -32v-98q-100 40 -182 40q-118 0 -199 -72t-81 -188t81 -188t199 -72q82 0 182 40z" />
    <glyph glyph-name="D" unicode="D" horiz-adv-x="711" 
d="M671 341q0 -151 -101.5 -246t-253.5 -95h-236v682h236q152 0 253.5 -94.5t101.5 -246.5zM569 341q0 121 -78 188.5t-201 67.5h-112v-512h112q123 0 201 67.5t78 188.5z" />
    <glyph glyph-name="E" unicode="E" horiz-adv-x="506" 
d="M476 85v-85h-396v682h387v-85h-289v-204h263v-84h-263v-224h298z" />
    <glyph glyph-name="F" unicode="F" horiz-adv-x="487" 
d="M467 682v-85h-289v-204h263v-84h-263v-309h-98v682h387z" />
    <glyph glyph-name="G" unicode="G" horiz-adv-x="702" 
d="M632 342v-312q-105 -39 -218 -39q-159 0 -266.5 96t-107.5 254t107.5 254t266.5 96q103 0 189 -32v-98q-100 40 -182 40q-118 0 -199 -72t-81 -188t81 -188t199 -72q55 0 113 14v163h-152v84h250z" />
    <glyph glyph-name="H" unicode="H" horiz-adv-x="738" 
d="M658 682v-682h-98v309h-382v-309h-98v682h98v-289h382v289h98z" />
    <glyph glyph-name="I" unicode="I" horiz-adv-x="258" 
d="M178 682v-682h-98v682h98z" />
    <glyph glyph-name="J" unicode="J" horiz-adv-x="424" 
d="M344 682v-460q0 -110 -56.5 -170.5t-166.5 -60.5q-75 0 -141 39l41 79q45 -28 92 -28q65 0 99 39t34 105v457h98z" />
    <glyph glyph-name="K" unicode="K" horiz-adv-x="620" 
d="M290 359l350 -359h-135l-327 337v-337h-98v682h98v-312l287 312h122z" />
    <glyph glyph-name="L" unicode="L" horiz-adv-x="470" 
d="M460 85v-85h-380v682h98v-597h282z" />
    <glyph glyph-name="M" unicode="M" horiz-adv-x="827" 
d="M747 682v-682h-98v519h-2l-224 -320h-16l-227 320h-2v-519h-98v682h95l243 -346l236 346h93z" />
    <glyph glyph-name="N" unicode="N" horiz-adv-x="756" 
d="M676 682v-682h-98l-400 525v-525h-98v682h95l403 -529v529h98z" />
    <glyph glyph-name="O" unicode="O" horiz-adv-x="802" 
d="M762 341q0 -148 -106 -249t-255 -101t-255 101t-106 249t106 249t255 101t255 -101t106 -249zM661 341q0 109 -75.5 184.5t-184.5 75.5t-184.5 -75.5t-75.5 -184.5t75.5 -184.5t184.5 -75.5t184.5 75.5t75.5 184.5z" />
    <glyph glyph-name="P" unicode="P" horiz-adv-x="584" 
d="M544 489q0 -94 -61.5 -144t-157.5 -50h-147v-295h-98v682h245q96 0 157.5 -50t61.5 -143zM443 489q0 53 -32.5 81t-87.5 28h-145v-218h145q55 0 87.5 27.5t32.5 81.5z" />
    <glyph glyph-name="Q" unicode="Q" horiz-adv-x="802" 
d="M762 341q0 -124 -78 -219l66 -66l-67 -66l-67 68q-96 -67 -215 -67q-149 0 -255 101t-106 249t106 249t255 101t255 -101t106 -249zM661 341q0 109 -75.5 184.5t-184.5 75.5t-184.5 -75.5t-75.5 -184.5t75.5 -184.5t184.5 -75.5q80 0 148 45l-55 56l66 65l55 -55
q46 67 46 149z" />
    <glyph glyph-name="R" unicode="R" horiz-adv-x="579" 
d="M404 311l195 -311h-113l-186 295h-122v-295h-98v682h226q96 0 157.5 -50t61.5 -143q0 -62 -31.5 -109.5t-89.5 -68.5zM424 489q0 53 -32.5 80.5t-87.5 27.5h-126v-217h126q55 0 87.5 27.5t32.5 81.5z" />
    <glyph glyph-name="S" unicode="S" horiz-adv-x="505" 
d="M465 180q0 -94 -68.5 -141.5t-166.5 -47.5q-136 0 -200 50l45 86q57 -46 146 -46q32 0 63 7.5t57 29.5t26 55q0 22 -10 40.5t-30 33t-35 23t-39 19.5l-87 41q-125 59 -125 179q0 88 64 135t155 47q101 0 165 -41l-30 -83q-53 34 -135 34q-47 0 -84 -22t-37 -67
q0 -39 33.5 -68t81.5 -50t96 -45t81.5 -67t33.5 -102z" />
    <glyph glyph-name="T" unicode="T" horiz-adv-x="511" 
d="M501 682v-85h-192v-597h-98v597h-201v85h491z" />
    <glyph glyph-name="U" unicode="U" horiz-adv-x="747" 
d="M667 682v-419q0 -131 -80 -201.5t-214 -70.5q-133 0 -213 71t-80 201v419h98v-397q0 -204 195 -204q196 0 196 204v397h98z" />
    <glyph glyph-name="V" unicode="V" horiz-adv-x="604" 
d="M502 682h102l-289 -688h-20l-295 688h107l201 -474z" />
    <glyph glyph-name="W" unicode="W" horiz-adv-x="933" 
d="M834 682h99l-255 -688h-24l-184 472l-191 -472h-25l-254 688h107l169 -468l185 468h22l185 -458z" />
    <glyph glyph-name="X" unicode="X" horiz-adv-x="644" 
d="M383 353l261 -353h-124l-196 274l-210 -274h-114l270 353l-226 329h116l170 -252l169 252h109z" />
    <glyph glyph-name="Y" unicode="Y" horiz-adv-x="585" 
d="M481 682h104l-239 -408v-274h-98v275l-248 407h113l184 -316z" />
    <glyph glyph-name="Z" unicode="Z" horiz-adv-x="594" 
d="M574 85v-85h-554v17l383 584h-367v81h524v-21l-378 -576h392z" />
    <glyph glyph-name="bracketleft" unicode="[" horiz-adv-x="331" 
d="M291 -136v-85h-211v903h211v-84h-115v-734h115z" />
    <glyph glyph-name="backslash" unicode="\" horiz-adv-x="326" 
d="M100 691l196 -700h-70l-196 700h70z" />
    <glyph glyph-name="bracketright" unicode="]" horiz-adv-x="331" 
d="M251 682v-903h-211v85h115v733h-115v85h211z" />
    <glyph glyph-name="asciicircum" unicode="^" 
d="M308 682l174 -391h-89l-118 289h-5l-116 -289h-90l173 391h71z" />
    <glyph glyph-name="underscore" unicode="_" horiz-adv-x="512" 
d="M512 -75v-50h-512v50h512z" />
    <glyph glyph-name="grave" unicode="`" horiz-adv-x="247" 
d="M140 654l67 -147h-55l-112 147h100z" />
    <glyph glyph-name="a" unicode="a" horiz-adv-x="395" 
d="M405 78v-73q-40 -14 -72 -14q-26 0 -48 12t-28 34q-21 -21 -55 -33.5t-66 -12.5q-53 0 -84.5 31t-31.5 84q0 55 36 88.5t95 55.5l101 36v17q0 75 -97 75q-64 0 -126 -35v85q65 30 142 30q170 0 170 -152v-211q0 -29 27 -29q15 0 37 12zM252 98v119l-61 -21
q-81 -29 -81 -74q0 -27 19 -41.5t47 -14.5q36 0 76 32z" />
    <glyph glyph-name="b" unicode="b" horiz-adv-x="497" 
d="M467 234q0 -114 -68.5 -178.5t-182.5 -64.5q-89 0 -156 34v657h89v-257q56 33 121 33q88 0 142.5 -67t54.5 -157zM376 228q0 64 -34 107t-96 43q-54 0 -97 -35v-261q34 -11 76 -11q69 0 110 44t41 113z" />
    <glyph glyph-name="c" unicode="c" horiz-adv-x="415" 
d="M385 104v-89q-51 -24 -131 -24q-102 0 -163 65.5t-61 168.5t61.5 168t164.5 65q71 0 126 -22v-89q-49 31 -116 31q-68 0 -106.5 -42t-38.5 -111q0 -70 38 -112t106 -42q69 0 120 33z" />
    <glyph glyph-name="d" unicode="d" horiz-adv-x="497" 
d="M437 682v-682h-150q-119 0 -188 58.5t-69 175.5q0 90 58.5 157t147.5 67q65 0 112 -24v248h89zM270 76h78v277q-47 25 -93 25q-62 0 -98 -45.5t-36 -109.5q0 -67 41 -107t108 -40z" />
    <glyph glyph-name="e" unicode="e" horiz-adv-x="468" 
d="M438 205h-319q7 -62 47.5 -98t102.5 -36q80 0 158 42v-84q-68 -38 -167 -38q-103 0 -166.5 65t-63.5 169q0 100 55 166.5t154 66.5q110 0 154.5 -68.5t44.5 -184.5zM121 267h226q0 46 -33 78.5t-80 32.5q-79 0 -106 -75q-7 -19 -7 -36z" />
    <glyph glyph-name="f" unicode="f" horiz-adv-x="317" 
d="M307 682v-78q-28 7 -50 7q-41 0 -63 -24.5t-22 -66.5v-71h103v-76h-103v-373h-89v373h-63v76h63v85q0 70 42 113.5t112 43.5q42 0 70 -9z" />
    <glyph glyph-name="g" unicode="g" horiz-adv-x="431" 
d="M411 449v-77l-86 6q41 -34 41 -97q0 -62 -38 -98t-102 -46q-3 0 -17.5 -2t-23 -4t-20 -6t-17.5 -11t-6 -17q0 -16 20 -26.5t49.5 -15.5t64 -14.5t64 -22t49.5 -39.5t20 -66q0 -41 -19.5 -70.5t-52 -44.5t-67 -21.5t-72.5 -6.5q-36 0 -70.5 7t-66.5 22.5t-51.5 44.5
t-19.5 67q0 43 28 75t70 40q-30 19 -30 56q0 25 22 44t49 25v2q-48 13 -73.5 51t-25.5 90q0 79 55 117t139 38h187zM323 -95q0 12 -7 22t-20.5 18t-26.5 14t-33.5 11l-32 8t-31 6.5t-22.5 4.5q-35 -13 -55.5 -31t-20.5 -48q0 -28 24.5 -44.5t50 -20.5t53.5 -4q17 0 35.5 3
t39 9t33.5 19.5t13 32.5zM286 291q0 37 -25 59.5t-63 22.5t-63 -22.5t-25 -59.5t25 -59.5t63 -22.5t63 22.5t25 59.5z" />
    <glyph glyph-name="h" unicode="h" horiz-adv-x="488" 
d="M438 286v-286h-89v278q0 45 -26.5 72.5t-71.5 27.5q-52 0 -102 -52v-326h-89v682h89v-277q51 53 123 53q76 0 121 -47.5t45 -124.5z" />
    <glyph glyph-name="i" unicode="i" horiz-adv-x="216" 
d="M161 637q0 -22 -15.5 -37.5t-37.5 -15.5t-37.5 15.5t-15.5 37.5t15.5 37.5t37.5 15.5t37.5 -15.5t15.5 -37.5zM152 449v-449h-89v449h89z" />
    <glyph glyph-name="j" unicode="j" horiz-adv-x="216" 
d="M59 -54v503h89v-521q0 -74 -43.5 -116t-122.5 -42q-30 0 -42 4v77l3 -1q3 0 8 -0.5t10 -0.5q47 0 72.5 25t25.5 72zM161 637q0 -22 -15.5 -37.5t-37.5 -15.5t-37.5 15.5t-15.5 37.5t15.5 37.5t37.5 15.5t37.5 -15.5t15.5 -37.5z" />
    <glyph glyph-name="k" unicode="k" horiz-adv-x="478" 
d="M261 229l237 -229h-120l-225 229l199 220h99zM149 682v-682h-89v682h89z" />
    <glyph glyph-name="l" unicode="l" horiz-adv-x="209" 
d="M149 682v-682h-89v682h89z" />
    <glyph glyph-name="m" unicode="m" horiz-adv-x="763" 
d="M708 307v-307h-89v286q0 41 -25 66.5t-66 25.5q-50 0 -103 -53q1 -6 1 -18v-307h-89v286q0 41 -25 66.5t-66 25.5q-48 0 -102 -52v-326h-89v449h87v-54q53 63 129 63q95 0 136 -75q27 33 66 54t79 21q66 0 111 -43t45 -108z" />
    <glyph glyph-name="n" unicode="n" horiz-adv-x="487" 
d="M432 307v-307h-89v278q0 45 -25.5 72.5t-69.5 27.5q-50 0 -104 -52v-326h-89v449h87v-54q53 63 126 63q69 0 116.5 -41.5t47.5 -109.5z" />
    <glyph glyph-name="o" unicode="o" horiz-adv-x="540" 
d="M510 225q0 -105 -67.5 -169.5t-172.5 -64.5t-172.5 64.5t-67.5 169.5q0 104 67.5 168.5t172.5 64.5t172.5 -64.5t67.5 -168.5zM419 225q0 66 -41 109.5t-108 43.5t-108 -43t-41 -110t41 -110.5t108 -43.5q66 0 107.5 43.5t41.5 110.5z" />
    <glyph glyph-name="p" unicode="p" horiz-adv-x="492" 
d="M462 215q0 -90 -58.5 -157t-147.5 -67q-64 0 -112 24v-245h-89v679h150q119 0 188 -58.5t69 -175.5zM371 226q0 67 -41 107t-108 40h-78v-277q47 -25 93 -25q62 0 98 45.5t36 109.5z" />
    <glyph glyph-name="q" unicode="q" horiz-adv-x="497" 
d="M437 449v-679h-89v245q-48 -24 -112 -24q-89 0 -147.5 67t-58.5 157q0 117 69 175.5t188 58.5h150zM348 96v277h-78q-67 0 -108 -40t-41 -107q0 -64 36 -109.5t98 -45.5q46 0 93 25z" />
    <glyph glyph-name="r" unicode="r" horiz-adv-x="367" 
d="M367 439l-33 -79q-31 18 -72 18q-35 0 -62 -21.5t-56 -59.5v-297h-89v449h87v-59h2q56 68 136 68q49 0 87 -19z" />
    <glyph glyph-name="s" unicode="s" horiz-adv-x="383" 
d="M363 126q0 -48 -30 -80t-70 -43.5t-87 -11.5q-90 0 -156 33l33 75q61 -29 128 -29q90 0 90 54q0 18 -18 31t-44.5 21t-57.5 20.5t-57.5 27t-44.5 42.5t-18 66q0 62 50.5 94t117.5 32q63 0 112 -15q7 -2 19.5 -7t16.5 -6l-30 -74q-52 24 -120 24q-30 0 -52 -11.5
t-22 -37.5q0 -34 59 -55l56 -19q125 -44 125 -131z" />
    <glyph glyph-name="t" unicode="t" horiz-adv-x="352" 
d="M332 84v-76q-45 -17 -108 -17q-73 0 -109.5 41.5t-36.5 115.5v225h-78v10l162 154h5v-88h142v-76h-142v-225q0 -77 86 -77q31 0 79 13z" />
    <glyph glyph-name="u" unicode="u" horiz-adv-x="487" 
d="M432 449v-449h-87v50q-50 -59 -133 -59q-69 0 -113 41.5t-44 110.5v306h89v-278q0 -45 24 -72.5t69 -27.5q52 0 106 52v326h89z" />
    <glyph glyph-name="v" unicode="v" horiz-adv-x="449" 
d="M349 449h90l-196 -458h-30l-203 458h97l122 -287h1z" />
    <glyph glyph-name="w" unicode="w" horiz-adv-x="679" 
d="M585 449h84l-189 -458h-25l-119 294h-1l-104 -294h-28l-193 458h98l107 -272h2l92 272h56l106 -272h4z" />
    <glyph glyph-name="x" unicode="x" horiz-adv-x="442" 
d="M275 246l167 -246h-105l-119 178l-125 -178h-93l172 238l-143 211h109l94 -144l92 144h89z" />
    <glyph glyph-name="y" unicode="y" horiz-adv-x="488" 
d="M388 449h90l-287 -679h-90l96 231l-187 448h96l140 -340h4z" />
    <glyph glyph-name="z" unicode="z" horiz-adv-x="425" 
d="M405 76v-76h-385v14l231 359h-230v76h373v-14l-232 -359h243z" />
    <glyph glyph-name="braceleft" unicode="{" horiz-adv-x="377" 
d="M337 -136v-85h-56q-73 0 -111.5 39.5t-38.5 113.5v144q0 49 -24.5 83t-71.5 34h-5v75h5q47 0 71.5 34t24.5 83v144q0 75 38.5 114t111.5 39h56v-85h-44q-51 0 -66 -25.5t-15 -81.5v-111q0 -55 -25 -97t-75 -51v-1q50 -9 75 -51t25 -97v-111q0 -56 15 -81.5t66 -25.5h44z
" />
    <glyph glyph-name="bar" unicode="|" horiz-adv-x="236" 
d="M156 750v-1000h-76v1000h76z" />
    <glyph glyph-name="braceright" unicode="}" horiz-adv-x="377" 
d="M347 268v-75h-5q-47 0 -71.5 -34t-24.5 -83v-144q0 -74 -38.5 -113.5t-111.5 -39.5h-56v85h44q51 0 66 25.5t15 81.5v111q0 55 25 97t75 51v1q-50 9 -75 51t-25 97v111q0 56 -15 81.5t-66 25.5h-44v85h56q73 0 111.5 -39t38.5 -114v-144q0 -49 24.5 -83t71.5 -34h5z" />
    <glyph glyph-name="asciitilde" unicode="~" horiz-adv-x="615" 
d="M575 318v-84q-78 -45 -145 -45q-48 0 -129 38t-123 38q-11 0 -21 -1t-18 -2.5t-18.5 -5t-15.5 -5.5t-16.5 -7.5t-15 -7.5l-17 -9.5t-16.5 -9.5v84q77 44 143 44q49 0 131 -38t125 -38q59 0 136 49z" />
    <glyph glyph-name="nbspace" unicode="&#xa0;" horiz-adv-x="250" 
 />
    <glyph glyph-name="exclamdown" unicode="&#xa1;" horiz-adv-x="260" 
d="M190 447q0 -25 -17.5 -42.5t-42.5 -17.5t-42.5 17.5t-17.5 42.5t17.5 42.5t42.5 17.5t42.5 -17.5t17.5 -42.5zM181 151v-335h-89v335q0 5 9 57l16 113h39l17 -113q1 -5 4.5 -24.5t3.5 -32.5z" />
    <glyph glyph-name="cent" unicode="&#xa2;" 
d="M451 104v-89q-36 -17 -86 -22v-104h-90v106q-85 14 -132.5 78t-47.5 152t47.5 151t132.5 78v107h90v-105q47 -5 82 -20v-89q-49 31 -116 31q-68 0 -106.5 -42t-38.5 -111q0 -70 38 -112t107 -42q67 0 120 33z" />
    <glyph glyph-name="sterling" unicode="&#xa3;" 
d="M512 673v-85q-30 13 -73 13q-118 0 -150 -143q-5 -21 -13 -65h121v-84h-138l-44 -224h293v-85h-434v85h46l44 224h-86v84h103q6 32 10 48q53 250 236 250q42 0 85 -18z" />
    <glyph glyph-name="yen" unicode="&#xa5;" 
d="M518 682l-160 -347h125v-68h-157v-63h157v-67h-157v-137h-99v137h-159v67h159v63h-159v68h124l-164 347h101l147 -316l146 316h96z" />
    <glyph glyph-name="brokenbar" unicode="&#xa6;" horiz-adv-x="196" 
d="M136 682v-350h-76v350h76zM136 174v-350h-76v350h76z" />
    <glyph glyph-name="section" unicode="&#xa7;" horiz-adv-x="468" 
d="M428 185q0 -94 -85 -152q32 -47 32 -101q0 -70 -50 -110t-122 -40q-69 0 -121 24v77q70 -37 115 -37q37 0 63.5 20t26.5 55t-25.5 69t-62 64.5l-72.5 63t-61.5 77t-25.5 93.5q0 93 85 152q-32 47 -32 102q0 70 50 109.5t122 39.5q69 0 121 -23v-77q-68 36 -115 36
q-37 0 -63.5 -19.5t-26.5 -54.5t25.5 -69.5t61.5 -64.5l72.5 -63t62 -77.5t25.5 -93.5zM339 175q0 18 -4.5 34t-19 34l-20 25t-28.5 28t-25 23q-46 42 -68 64q-45 -41 -45 -85q0 -18 4.5 -34t19 -34l20 -25t28.5 -28t25 -23q57 -52 68 -63q45 41 45 84z" />
    <glyph glyph-name="dieresis" unicode="&#xa8;" horiz-adv-x="359" 
d="M319 582q0 -19 -13.5 -33t-32.5 -14t-33 13.5t-14 33.5q0 19 14 32.5t33 13.5t32.5 -13.5t13.5 -32.5zM133 582q0 -19 -13.5 -33t-32.5 -14t-33 13.5t-14 33.5q0 19 14 32.5t33 13.5t32.5 -13.5t13.5 -32.5z" />
    <glyph glyph-name="copyright" unicode="&#xa9;" horiz-adv-x="820" 
d="M760 341q0 -145 -102.5 -247.5t-247.5 -102.5t-247.5 102.5t-102.5 247.5t102.5 247.5t247.5 102.5t247.5 -102.5t102.5 -247.5zM705 341q0 122 -86.5 208.5t-208.5 86.5t-208.5 -86.5t-86.5 -208.5t86.5 -208.5t208.5 -86.5t208.5 86.5t86.5 208.5zM544 217v-57
q-51 -18 -106 -18q-90 0 -150.5 55t-60.5 144q0 88 60.5 141.5t150.5 53.5q56 0 106 -18v-57q-55 23 -102 23q-66 0 -110 -38.5t-44 -104.5t44 -106t110 -40q45 0 102 22z" />
    <glyph glyph-name="ordfeminine" unicode="&#xaa;" horiz-adv-x="361" 
d="M300 459v-45q-25 -9 -45 -9q-38 0 -47 29q-28 -28 -75 -28q-33 0 -53 18.5t-20 51.5q0 15 4.5 27.5t15.5 22.5l19 17t27 15t26 10.5t29 9.5t24 8v11q0 45 -61 45q-41 0 -78 -21v52q40 18 88 18q106 0 106 -92v-130q0 -17 17 -17q13 0 23 7zM205 471v73q-2 0 -15 -4
t-19.5 -6.5t-19 -8t-18.5 -10.5t-11.5 -12.5t-5.5 -16.5q0 -34 42 -34q25 0 47 19zM301 373v-37h-234v37h234z" />
    <glyph glyph-name="guillemotleft" unicode="&#xab;" horiz-adv-x="518" 
d="M320 225l148 -225h-88l-147 225l146 224h88zM117 225l148 -225h-88l-147 225l146 224h88z" />
    <glyph glyph-name="logicalnot" unicode="&#xac;" 
d="M510 394v-295h-83v213h-391v82h474z" />
    <glyph glyph-name="uni00AD" unicode="&#xad;" horiz-adv-x="363" 
d="M303 267v-83h-243v83h243z" />
    <glyph glyph-name="registered" unicode="&#xae;" horiz-adv-x="820" 
d="M760 341q0 -145 -102.5 -247.5t-247.5 -102.5t-247.5 102.5t-102.5 247.5t102.5 247.5t247.5 102.5t247.5 -102.5t102.5 -247.5zM705 341q0 122 -86.5 208.5t-208.5 86.5t-208.5 -86.5t-86.5 -208.5t86.5 -208.5t208.5 -86.5t208.5 86.5t86.5 208.5zM482 332l110 -173
h-67l-105 164h-69v-164h-58v385h134q54 0 88.5 -29t34.5 -82q0 -35 -18 -62t-50 -39zM490 433q0 30 -18.5 46t-48.5 16h-72v-123h72q30 0 48.5 15.5t18.5 45.5z" />
    <glyph glyph-name="macron" unicode="&#xaf;" horiz-adv-x="411" 
d="M371 614v-73h-331v73h331z" />
    <glyph glyph-name="degree" unicode="&#xb0;" horiz-adv-x="350" 
d="M310 555q0 -56 -39.5 -95.5t-95.5 -39.5t-95.5 39.5t-39.5 95.5q0 55 40 95t95 40q56 0 95.5 -39.5t39.5 -95.5zM257 555q0 34 -24 58t-58 24t-58 -24t-24 -58t24 -58t58 -24t58 24t24 58z" />
    <glyph glyph-name="plusminus" unicode="&#xb1;" 
d="M509 394v-82h-195v-195h-82v195h-195v82h195v195h82v-195h195zM509 82v-82h-472v82h472z" />
    <glyph glyph-name="twosuperior" unicode="&#xb2;" horiz-adv-x="387" 
d="M327 385v-54h-267v9l78 86q5 5 23 24.5t25.5 29.5l19.5 27t17 33.5t5 33.5q0 29 -19.5 44.5t-48.5 15.5q-38 0 -91 -38v67q49 27 100 27q55 0 92.5 -30t37.5 -84q0 -10 -1 -19t-4 -18.5t-4.5 -16t-7.5 -15.5t-8 -13.5t-10 -14.5l-10 -12.5l-12 -14.5t-12 -14l-44 -53h141
z" />
    <glyph glyph-name="threesuperior" unicode="&#xb3;" horiz-adv-x="344" 
d="M284 435q0 -53 -41 -81t-96 -28q-39 0 -87 22v63q46 -29 86 -29q29 0 47.5 13.5t18.5 41.5q0 17 -7.5 28t-21.5 15.5t-26 6t-29 1.5v52q23 0 38 2.5t29 14t14 33.5q0 25 -19.5 36.5t-46.5 11.5q-31 0 -73 -20v55q37 17 83 17q50 0 87 -23t37 -69q0 -57 -49 -79v-2
q56 -18 56 -82z" />
    <glyph glyph-name="acute" unicode="&#xb4;" horiz-adv-x="247" 
d="M107 654h100l-112 -147h-55z" />
    <glyph glyph-name="mu" unicode="&#xb5;" 
d="M461 449v-449h-87v44q-45 -53 -125 -53q-48 0 -74 22h-2v-185h-89v621h89v-278q0 -45 24 -72.5t69 -27.5q52 0 106 52v326h89z" />
    <glyph glyph-name="paragraph" unicode="&#xb6;" horiz-adv-x="619" 
d="M579 682v-85h-70v-796h-83v796h-109v-796h-80v478q-91 8 -144 58t-53 140q0 73 36.5 120.5t91 66t126.5 18.5h285z" />
    <glyph glyph-name="periodcentered" unicode="&#xb7;" horiz-adv-x="240" 
d="M180 347q0 -25 -17.5 -42.5t-42.5 -17.5t-42.5 17.5t-17.5 42.5t17.5 42.5t42.5 17.5t42.5 -17.5t17.5 -42.5z" />
    <glyph glyph-name="cedilla" unicode="&#xb8;" horiz-adv-x="238" 
d="M198 -91q0 -41 -36.5 -61t-81.5 -20q-23 0 -40 4v54q12 -4 30 -4q55 0 55 28q0 29 -49 29q-7 0 -21 -2l38 70h56l-15 -34q29 -3 46.5 -19.5t17.5 -44.5z" />
    <glyph glyph-name="onesuperior" unicode="&#xb9;" horiz-adv-x="312" 
d="M191 691v-359h-68v276h-48v11l89 72h27z" />
    <glyph glyph-name="ordmasculine" unicode="&#xba;" horiz-adv-x="419" 
d="M359 548q0 -64 -42 -103.5t-107 -39.5t-107.5 39.5t-42.5 103.5q0 65 42.5 104t107.5 39t107 -39t42 -104zM303 548q0 41 -26 67.5t-67 26.5t-67 -26.5t-26 -67.5t26 -67t67 -26t67 26t26 67zM330 372v-36h-234v36h234z" />
    <glyph glyph-name="guillemotright" unicode="&#xbb;" horiz-adv-x="518" 
d="M342 449l146 -224l-147 -225h-88l148 225l-147 224h88zM139 449l146 -224l-147 -225h-88l148 225l-147 224h88z" />
    <glyph glyph-name="onequarter" unicode="&#xbc;" horiz-adv-x="735" 
d="M675 140v-49h-44v-91h-68v91h-170v27l184 255h54v-233h44zM535 691h67l-456 -719h-67zM191 691v-359h-68v276h-48v11l89 72h27zM481 140h82v110h-4z" />
    <glyph glyph-name="onehalf" unicode="&#xbd;" horiz-adv-x="781" 
d="M528 691h66l-455 -718h-67zM721 54v-54h-267v9l78 86q1 1 22 23.5t27 30.5l19 26.5t17.5 34.5t4.5 33q0 29 -19.5 44.5t-48.5 15.5q-36 0 -91 -38v66q53 28 100 28q55 0 92.5 -30.5t37.5 -83.5q0 -10 -1 -19.5t-3.5 -18.5t-5 -16t-7.5 -15.5l-8 -13.5t-10 -14l-10 -13
t-12 -14t-12 -14l-43 -53h140zM184 691v-358h-61v276h-48v10l82 72h27z" />
    <glyph glyph-name="threequarters" unicode="&#xbe;" horiz-adv-x="784" 
d="M724 140v-49h-45v-91h-68v91h-170v27l184 255h54v-233h45zM529 140h82v110h-4zM585 691h66l-455 -719h-67zM284 435q0 -53 -41 -81t-96 -28q-39 0 -87 22v63q46 -29 86 -29q29 0 47.5 13.5t18.5 41.5q0 17 -7.5 28t-21.5 15.5t-26 6t-29 1.5v52q23 0 38 2.5t29 14
t14 33.5q0 25 -19.5 36.5t-46.5 11.5q-31 0 -73 -20v55q37 17 83 17q49 0 86.5 -23t37.5 -69q0 -57 -49 -79v-2q56 -18 56 -82z" />
    <glyph glyph-name="questiondown" unicode="&#xbf;" horiz-adv-x="381" 
d="M312 447q0 -25 -17.5 -42.5t-42.5 -17.5t-42.5 17.5t-17.5 42.5t17.5 42.5t42.5 17.5t42.5 -17.5t17.5 -42.5zM401 -84v-90q-67 -19 -140 -19q-90 0 -155.5 48.5t-65.5 135.5q0 42 17 80t42 66.5l49.5 54.5t41.5 53t17 51v25h94v-22q0 -39 -16.5 -73t-40.5 -59.5
l-47.5 -49.5t-40 -54t-16.5 -62q0 -36 26.5 -60.5t59.5 -33.5t69 -9q50 0 106 18z" />
    <glyph glyph-name="Agrave" unicode="&#xc0;" horiz-adv-x="631" 
d="M299 874l67 -147h-55l-112 147h100zM342 686l309 -686h-106l-91 201h-290l-86 -201h-98l293 686h69zM201 286h215l-112 250z" />
    <glyph glyph-name="Aacute" unicode="&#xc1;" horiz-adv-x="631" 
d="M325 874h100l-112 -147h-55zM342 686l309 -686h-106l-91 201h-290l-86 -201h-98l293 686h69zM201 286h215l-112 250z" />
    <glyph glyph-name="Acircumflex" unicode="&#xc2;" horiz-adv-x="631" 
d="M358 867l104 -140h-55l-97 76l-90 -76h-53l98 140h93zM342 686l309 -686h-106l-91 201h-290l-86 -201h-98l293 686h69zM201 286h215l-112 250z" />
    <glyph glyph-name="Atilde" unicode="&#xc3;" horiz-adv-x="631" 
d="M400 863h51q0 -48 -22.5 -81t-67.5 -33q-28 0 -70 17.5t-59 17.5q-40 0 -43 -39h-51v4q-1 45 22.5 77.5t67.5 32.5q29 0 70.5 -17.5t58.5 -17.5q41 0 43 39zM342 686l309 -686h-106l-91 201h-290l-86 -201h-98l293 686h69zM201 286h215l-112 250z" />
    <glyph glyph-name="Adieresis" unicode="&#xc4;" horiz-adv-x="631" 
d="M451 801q0 -19 -13.5 -32.5t-32.5 -13.5t-33 13.5t-14 32.5t14 33t33 14t32.5 -14t13.5 -33zM265 801q0 -19 -14 -32.5t-33 -13.5t-32.5 13.5t-13.5 32.5t13.5 33t32.5 14q20 0 33.5 -14t13.5 -33zM342 686l309 -686h-106l-91 201h-290l-86 -201h-98l293 686h69zM201 286
h215l-112 250z" />
    <glyph glyph-name="Aring" unicode="&#xc5;" horiz-adv-x="631" 
d="M405 818q0 -39 -27 -66t-66 -27q-38 0 -65.5 27t-27.5 66q0 38 27.5 65.5t65.5 27.5q39 0 66 -27.5t27 -65.5zM367 818q0 23 -16 39t-39 16q-22 0 -38.5 -16.5t-16.5 -38.5t16.5 -38.5t38.5 -16.5q23 0 39 16t16 39zM342 686l309 -686h-106l-91 201h-290l-86 -201h-98
l293 686h69zM201 286h215l-112 250z" />
    <glyph glyph-name="AE" unicode="&#xc6;" horiz-adv-x="849" 
d="M819 85v-85h-388v274h-206l-158 -274h-107l403 682h447v-85h-281v-228h256v-88h-256v-196h290zM274 360h157v258h-4z" />
    <glyph glyph-name="Ccedilla" unicode="&#xc7;" horiz-adv-x="643" 
d="M603 121v-98q-86 -32 -189 -32h-21l-11 -24q28 -3 46 -19.5t18 -44.5q0 -41 -36.5 -61t-81.5 -20q-24 0 -40 4v54q15 -5 30 -5q18 0 36.5 6.5t18.5 22.5q0 29 -49 29q-10 0 -21 -3l36 67q-54 7 -112 38q-90 47 -138.5 125.5t-48.5 180.5q0 158 107.5 254t266.5 96
q102 0 189 -32v-98q-100 40 -182 40q-118 0 -199 -72t-81 -188t81 -188t199 -72q90 0 182 40z" />
    <glyph glyph-name="Egrave" unicode="&#xc8;" horiz-adv-x="496" 
d="M283 874l67 -147h-55l-112 147h100zM476 85v-85h-396v682h387v-85h-289v-204h263v-84h-263v-224h298z" />
    <glyph glyph-name="Eacute" unicode="&#xc9;" horiz-adv-x="496" 
d="M286 874h100l-112 -147h-55zM476 85v-85h-396v682h387v-85h-289v-204h263v-84h-263v-224h298z" />
    <glyph glyph-name="Ecircumflex" unicode="&#xca;" horiz-adv-x="496" 
d="M321 867l104 -140h-55l-97 76l-90 -76h-53l98 140h93zM476 85v-85h-396v682h387v-85h-289v-204h263v-84h-263v-224h298z" />
    <glyph glyph-name="Edieresis" unicode="&#xcb;" horiz-adv-x="496" 
d="M416 801q0 -19 -14 -32.5t-33 -13.5t-32.5 13.5t-13.5 32.5t13.5 33t32.5 14t33 -14t14 -33zM230 801q0 -19 -14 -32.5t-33 -13.5t-32.5 13.5t-13.5 32.5t13.5 33t32.5 14t33 -14t14 -33zM476 85v-85h-396v682h387v-85h-289v-204h263v-84h-263v-224h298z" />
    <glyph glyph-name="Igrave" unicode="&#xcc;" horiz-adv-x="258" 
d="M145 874l68 -147h-56l-112 147h100zM188 682v-682h-98v682h98z" />
    <glyph glyph-name="Iacute" unicode="&#xcd;" horiz-adv-x="258" 
d="M112 874h101l-113 -147h-55zM184 682v-682h-98v682h98z" />
    <glyph glyph-name="Icircumflex" unicode="&#xce;" horiz-adv-x="258" 
d="M173 867l103 -140h-54l-97 76l-90 -76h-53l98 140h93zM179 682v-682h-98v682h98z" />
    <glyph glyph-name="Idieresis" unicode="&#xcf;" horiz-adv-x="258" 
d="M269 801q0 -19 -14 -32.5t-33 -13.5t-33 13.5t-14 32.5t13.5 33t33.5 14t33.5 -14t13.5 -33zM83 801q0 -19 -14 -32.5t-33 -13.5t-33 13.5t-14 32.5t13.5 33t33.5 14t33.5 -14t13.5 -33zM177 682v-682h-98v682h98z" />
    <glyph glyph-name="Eth" unicode="&#xd0;" horiz-adv-x="710" 
d="M670 341q0 -151 -101.5 -246t-253.5 -95h-235v297h-80v88h80v297h235q153 0 254 -94.5t101 -246.5zM569 341q0 121 -78 188.5t-202 67.5h-111v-212h193v-88h-193v-212h111q124 0 202 67.5t78 188.5z" />
    <glyph glyph-name="Ntilde" unicode="&#xd1;" horiz-adv-x="756" 
d="M477 863h51q0 -48 -22.5 -81t-67.5 -33q-29 0 -70.5 17.5t-58.5 17.5q-41 0 -44 -39h-50l-1 4q-1 46 22.5 78t68.5 32q29 0 70.5 -17.5t58.5 -17.5q40 0 43 39zM676 682v-682h-98l-400 525v-525h-98v682h95l403 -529v529h98z" />
    <glyph glyph-name="Ograve" unicode="&#xd2;" horiz-adv-x="802" 
d="M371 874l67 -147h-55l-112 147h100zM762 341q0 -148 -106 -249t-255 -101t-255 101t-106 249t106 249t255 101t255 -101t106 -249zM661 341q0 109 -75.5 184.5t-184.5 75.5t-184.5 -75.5t-75.5 -184.5t75.5 -184.5t184.5 -75.5t184.5 75.5t75.5 184.5z" />
    <glyph glyph-name="Oacute" unicode="&#xd3;" horiz-adv-x="802" 
d="M390 874h100l-112 -147h-55zM762 341q0 -148 -106 -249t-255 -101t-255 101t-106 249t106 249t255 101t255 -101t106 -249zM661 341q0 109 -75.5 184.5t-184.5 75.5t-184.5 -75.5t-75.5 -184.5t75.5 -184.5t184.5 -75.5t184.5 75.5t75.5 184.5z" />
    <glyph glyph-name="Ocircumflex" unicode="&#xd4;" horiz-adv-x="802" 
d="M448 867l104 -140h-55l-97 76l-90 -76h-53l98 140h93zM762 341q0 -148 -106 -249t-255 -101t-255 101t-106 249t106 249t255 101t255 -101t106 -249zM661 341q0 109 -75.5 184.5t-184.5 75.5t-184.5 -75.5t-75.5 -184.5t75.5 -184.5t184.5 -75.5t184.5 75.5t75.5 184.5z
" />
    <glyph glyph-name="Otilde" unicode="&#xd5;" horiz-adv-x="802" 
d="M490 863h51q0 -48 -22.5 -81t-68.5 -33q-28 0 -69.5 17.5t-59.5 17.5q-40 0 -43 -39h-51v4q-1 46 22.5 78t68.5 32q29 0 70.5 -17.5t57.5 -17.5q41 0 44 39zM762 341q0 -148 -106 -249t-255 -101t-255 101t-106 249t106 249t255 101t255 -101t106 -249zM661 341
q0 109 -75.5 184.5t-184.5 75.5t-184.5 -75.5t-75.5 -184.5t75.5 -184.5t184.5 -75.5t184.5 75.5t75.5 184.5z" />
    <glyph glyph-name="Odieresis" unicode="&#xd6;" horiz-adv-x="802" 
d="M537 801q0 -19 -14 -32.5t-33 -13.5t-33 13.5t-14 32.5t13.5 33t33.5 14t33.5 -14t13.5 -33zM350 801q0 -19 -13.5 -32.5t-32.5 -13.5t-33 13.5t-14 32.5t13.5 33t33.5 14q19 0 32.5 -14t13.5 -33zM762 341q0 -148 -106 -249t-255 -101t-255 101t-106 249t106 249
t255 101t255 -101t106 -249zM661 341q0 109 -75.5 184.5t-184.5 75.5t-184.5 -75.5t-75.5 -184.5t75.5 -184.5t184.5 -75.5t184.5 75.5t75.5 184.5z" />
    <glyph glyph-name="multiply" unicode="&#xd7;" 
d="M332 348l153 -153l-59 -59l-153 153l-154 -154l-59 59l154 155l-154 153l59 59l154 -154l153 153l59 -59z" />
    <glyph glyph-name="Oslash" unicode="&#xd8;" horiz-adv-x="802" 
d="M762 341q0 -148 -106 -249t-255 -101q-112 0 -199 56l-49 -57l-62 47l50 59q-101 103 -101 245q0 148 106 249t255 101q110 0 200 -57l57 67l61 -54l-55 -64q98 -101 98 -242zM661 341q0 98 -64 171l-337 -391q62 -40 141 -40q109 0 184.5 75.5t75.5 184.5zM207 167
l336 393q-64 41 -142 41q-109 0 -184.5 -75.5t-75.5 -184.5q0 -99 66 -174z" />
    <glyph glyph-name="Ugrave" unicode="&#xd9;" horiz-adv-x="747" 
d="M362 874l67 -147h-55l-112 147h100zM667 682v-419q0 -131 -80 -201.5t-214 -70.5q-133 0 -213 71t-80 201v419h98v-397q0 -204 195 -204q196 0 196 204v397h98z" />
    <glyph glyph-name="Uacute" unicode="&#xda;" horiz-adv-x="747" 
d="M380 874h100l-112 -147h-55zM667 682v-419q0 -131 -80 -201.5t-214 -70.5q-133 0 -213 71t-80 201v419h98v-397q0 -204 195 -204q196 0 196 204v397h98z" />
    <glyph glyph-name="Ucircumflex" unicode="&#xdb;" horiz-adv-x="747" 
d="M422 867l104 -140h-55l-97 76l-90 -76h-53l98 140h93zM667 682v-419q0 -131 -80 -201.5t-214 -70.5q-133 0 -213 71t-80 201v419h98v-397q0 -204 195 -204q196 0 196 204v397h98z" />
    <glyph glyph-name="Udieresis" unicode="&#xdc;" horiz-adv-x="747" 
d="M515 801q0 -19 -14 -32.5t-33 -13.5t-33 13.5t-14 32.5t13.5 33t33.5 14t33.5 -14t13.5 -33zM329 801q0 -19 -14 -32.5t-33 -13.5t-33 13.5t-14 32.5t13.5 33t33.5 14t33.5 -14t13.5 -33zM667 682v-419q0 -131 -80 -201.5t-214 -70.5q-133 0 -213 71t-80 201v419h98v-397
q0 -204 195 -204q196 0 196 204v397h98z" />
    <glyph glyph-name="Yacute" unicode="&#xdd;" horiz-adv-x="585" 
d="M323 874h100l-112 -147h-55zM481 682h104l-239 -408v-274h-98v275l-248 407h113l184 -316z" />
    <glyph glyph-name="Thorn" unicode="&#xde;" horiz-adv-x="584" 
d="M544 340q0 -93 -61.5 -143t-157.5 -50h-147v-147h-98v682h98v-148h147q96 0 157.5 -50t61.5 -144zM443 340q0 54 -32.5 81.5t-87.5 27.5h-145v-218h145q54 0 87 28t33 81z" />
    <glyph glyph-name="germandbls" unicode="&#xdf;" horiz-adv-x="498" 
d="M468 196q0 -87 -47.5 -146t-132.5 -59q-26 0 -64 9v84q24 -8 48 -8q50 0 77.5 35t27.5 87q0 71 -37 102.5t-108 31.5v80q117 0 117 104q0 43 -27.5 74.5t-70.5 31.5q-102 0 -102 -128v-494h-89v523q0 80 53.5 124t136.5 44q84 0 137 -41.5t53 -123.5q0 -50 -26 -89.5
t-71 -58.5v-4q14 -2 40 -15q85 -47 85 -163z" />
    <glyph glyph-name="agrave" unicode="&#xe0;" horiz-adv-x="395" 
d="M405 78v-73q-40 -14 -72 -14q-26 0 -48 12t-28 34q-21 -21 -55 -33.5t-66 -12.5q-53 0 -84.5 31t-31.5 84q0 55 36 88.5t95 55.5l101 36v17q0 75 -97 75q-64 0 -126 -35v85q66 30 142 30q170 0 170 -151v-212q0 -29 27 -29q15 0 37 12zM252 98v119l-61 -21
q-81 -29 -81 -74q0 -27 19 -41.5t47 -14.5q36 0 76 32zM181 654l67 -147h-55l-112 147h100z" />
    <glyph glyph-name="aacute" unicode="&#xe1;" horiz-adv-x="395" 
d="M405 78v-73q-40 -14 -72 -14q-26 0 -48 12t-28 34q-21 -21 -55 -33.5t-66 -12.5q-53 0 -84.5 31t-31.5 84q0 55 36 88.5t95 55.5l101 36v17q0 75 -97 75q-64 0 -126 -35v85q66 30 142 30q170 0 170 -151v-212q0 -29 27 -29q15 0 37 12zM252 98v119l-61 -21
q-81 -29 -81 -74q0 -27 19 -41.5t47 -14.5q36 0 76 32zM219 654h100l-112 -147h-55z" />
    <glyph glyph-name="acircumflex" unicode="&#xe2;" horiz-adv-x="395" 
d="M405 78v-73q-40 -14 -72 -14q-26 0 -48 12t-28 34q-20 -21 -54.5 -33.5t-66.5 -12.5q-53 0 -84.5 31t-31.5 84q0 55 36 88.5t95 55.5l101 36v17q0 75 -97 75q-64 0 -126 -35v85q66 30 142 30q170 0 170 -151v-212q0 -29 27 -29q15 0 37 12zM233 654l104 -140h-55l-97 76
l-90 -76h-53l98 140h93zM252 98v119l-61 -21q-81 -29 -81 -74q0 -27 19 -41.5t47 -14.5q36 0 76 32z" />
    <glyph glyph-name="atilde" unicode="&#xe3;" horiz-adv-x="395" 
d="M405 78v-73q-40 -14 -72 -14q-26 0 -48 12t-28 34q-20 -21 -54.5 -33.5t-66.5 -12.5q-53 0 -84.5 31t-31.5 84q0 55 36 88.5t95 55.5l101 36v17q0 75 -97 75q-64 0 -126 -35v85q66 30 142 30q170 0 170 -151v-212q0 -29 27 -29q15 0 37 12zM283 637h45q0 -44 -20 -73.5
t-61 -29.5q-26 0 -63 15.5t-53 15.5q-36 0 -39 -34h-45v3q-1 41 20 70t61 29q26 0 63.5 -15.5t52.5 -15.5q36 0 39 35zM252 98v119l-61 -21q-81 -29 -81 -74q0 -27 19 -41.5t47 -14.5q36 0 76 32z" />
    <glyph glyph-name="adieresis" unicode="&#xe4;" horiz-adv-x="395" 
d="M405 78v-73q-40 -14 -72 -14q-26 0 -48 12t-28 34q-20 -21 -54.5 -33.5t-66.5 -12.5q-53 0 -84.5 31t-31.5 84q0 55 36 88.5t95 55.5l101 36v17q0 75 -97 75q-64 0 -126 -35v85q66 30 142 30q170 0 170 -151v-212q0 -29 27 -29q15 0 37 12zM252 98v119l-61 -21
q-81 -29 -81 -74q0 -27 19 -41.5t47 -14.5q36 0 76 32zM141 581q0 -19 -14 -32.5t-33 -13.5t-32.5 13.5t-13.5 32.5t13.5 33t32.5 14q20 0 33.5 -14t13.5 -33zM327 581q0 -19 -13.5 -32.5t-32.5 -13.5t-33 13.5t-14 32.5t14 33t33 14t32.5 -14t13.5 -33z" />
    <glyph glyph-name="aring" unicode="&#xe5;" horiz-adv-x="395" 
d="M405 78v-73q-40 -14 -72 -14q-26 0 -48 12t-28 34q-20 -21 -54.5 -33.5t-66.5 -12.5q-53 0 -84.5 31t-31.5 84q0 55 36 88.5t95 55.5l101 36v17q0 75 -97 75q-64 0 -126 -35v85q66 30 142 30q170 0 170 -151v-212q0 -29 27 -29q15 0 37 12zM281 598q0 -39 -27.5 -66
t-65.5 -27t-65.5 27t-27.5 66q0 38 27.5 65.5t65.5 27.5t65.5 -27.5t27.5 -65.5zM252 98v119l-61 -21q-81 -29 -81 -74q0 -27 19 -41.5t47 -14.5q36 0 76 32zM243 598q0 22 -16.5 38.5t-38.5 16.5t-38.5 -16.5t-16.5 -38.5t16.5 -38.5t38.5 -16.5t38.5 16.5t16.5 38.5z" />
    <glyph glyph-name="ae" unicode="&#xe6;" horiz-adv-x="692" 
d="M662 225v-20h-311q6 -63 44.5 -98.5t101.5 -35.5q82 0 154 39v-85q-64 -34 -163 -34q-114 0 -168 74q-65 -74 -163 -74q-58 0 -97.5 34t-39.5 91q0 151 245 151v28q0 40 -33.5 61.5t-75.5 21.5q-69 0 -127 -35v85q66 30 149 30q96 0 147 -66q53 66 141 66q98 0 147 -65.5
t49 -167.5zM352 267h219q0 46 -31.5 78.5t-77.5 32.5q-76 0 -103 -75q-7 -19 -7 -36zM265 98v107q-33 0 -64 -5t-61 -25t-30 -53q0 -29 21.5 -42.5t51.5 -13.5q43 0 82 32z" />
    <glyph glyph-name="ccedilla" unicode="&#xe7;" horiz-adv-x="415" 
d="M386 104v-89q-52 -24 -132 -24h-4l-10 -24q28 -3 45.5 -19.5t17.5 -44.5q0 -41 -36.5 -61t-81.5 -20q-23 0 -40 4v54q15 -5 30 -5q19 0 37 6.5t18 22.5q0 29 -49 29q-11 0 -21 -3l36 67q-79 18 -122.5 81t-43.5 147q0 103 61.5 168t164.5 65q71 0 126 -22v-89
q-49 31 -116 31q-68 0 -106.5 -42t-38.5 -111q0 -70 38 -112t107 -42q66 0 120 33z" />
    <glyph glyph-name="egrave" unicode="&#xe8;" horiz-adv-x="468" 
d="M223 654l67 -147h-55l-112 147h100zM438 205h-319q7 -62 47.5 -98t102.5 -36q80 0 158 42v-84q-68 -38 -167 -38q-103 0 -166.5 65t-63.5 169q0 100 55 166.5t154 66.5q110 0 154.5 -68.5t44.5 -184.5zM121 267h226q0 46 -33 78.5t-80 32.5q-79 0 -106 -75q-7 -19 -7 -36
z" />
    <glyph glyph-name="eacute" unicode="&#xe9;" horiz-adv-x="468" 
d="M241 654h100l-112 -147h-55zM438 205h-319q7 -62 47.5 -98t102.5 -36q80 0 158 42v-84q-68 -38 -167 -38q-103 0 -166.5 65t-63.5 169q0 100 55 166.5t154 66.5q110 0 154.5 -68.5t44.5 -184.5zM121 267h226q0 46 -33 78.5t-80 32.5q-79 0 -106 -75q-7 -19 -7 -36z" />
    <glyph glyph-name="ecircumflex" unicode="&#xea;" horiz-adv-x="468" 
d="M273 654l104 -140h-55l-97 76l-90 -76h-53l98 140h93zM438 205h-319q7 -62 47.5 -98t102.5 -36q80 0 158 42v-84q-68 -38 -167 -38q-103 0 -166.5 65t-63.5 169q0 100 55 166.5t154 66.5q110 0 154.5 -68.5t44.5 -184.5zM121 267h226q0 46 -33 78.5t-80 32.5
q-79 0 -106 -75q-7 -19 -7 -36z" />
    <glyph glyph-name="edieresis" unicode="&#xeb;" horiz-adv-x="468" 
d="M369 582q0 -19 -13.5 -33t-32.5 -14t-33 13.5t-14 33.5q0 19 14 32.5t33 13.5t32.5 -13.5t13.5 -32.5zM183 582q0 -20 -13.5 -33.5t-33.5 -13.5q-19 0 -32.5 14t-13.5 33t13.5 32.5t32.5 13.5t33 -13.5t14 -32.5zM438 205h-319q7 -62 47.5 -98t102.5 -36q80 0 158 42v-84
q-68 -38 -167 -38q-103 0 -166.5 65t-63.5 169q0 100 55 166.5t154 66.5q110 0 154.5 -68.5t44.5 -184.5zM121 267h226q0 46 -33 78.5t-80 32.5q-79 0 -106 -75q-7 -19 -7 -36z" />
    <glyph glyph-name="igrave" unicode="&#xec;" horiz-adv-x="216" 
d="M100 654l67 -147h-55l-112 147h100zM150 449v-449h-89v449h89z" />
    <glyph glyph-name="iacute" unicode="&#xed;" horiz-adv-x="216" 
d="M117 654h100l-112 -147h-55zM149 449v-449h-89v449h89z" />
    <glyph glyph-name="icircumflex" unicode="&#xee;" horiz-adv-x="216" 
d="M154 654l94 -140h-55l-87 76l-80 -76h-53l88 140h93zM154 449v-449h-89v449h89z" />
    <glyph glyph-name="idieresis" unicode="&#xef;" horiz-adv-x="216" 
d="M220 582q0 -19 -13.5 -33t-32.5 -14q-20 0 -33.5 13.5t-13.5 33.5q0 19 14 32.5t33 13.5t32.5 -13.5t13.5 -32.5zM74 582q0 -19 -13.5 -33t-32.5 -14q-20 0 -33.5 13.5t-13.5 33.5q0 19 14 32.5t33 13.5t32.5 -13.5t13.5 -32.5zM145 449v-449h-89v449h89z" />
    <glyph glyph-name="eth" unicode="&#xf0;" horiz-adv-x="540" 
d="M510 261q0 -120 -61 -195t-179 -75q-105 0 -172.5 64.5t-67.5 169.5q0 104 67.5 168.5t172.5 64.5q76 0 125 -42l2 2q-32 77 -86 131l-135 -64l-28 53l113 54q-37 27 -67 39l61 59q52 -26 91 -58l122 58l28 -53l-103 -49q58 -64 87.5 -150t29.5 -177zM419 225
q0 66 -41 109.5t-108 43.5t-108 -43t-41 -110t41 -110.5t108 -43.5q66 0 107.5 43.5t41.5 110.5z" />
    <glyph glyph-name="ntilde" unicode="&#xf1;" horiz-adv-x="487" 
d="M338 637h46q0 -44 -20 -73.5t-61 -29.5q-26 0 -63.5 16t-52.5 16q-36 0 -39 -35h-46v4q-1 41 20.5 70t61.5 29q26 0 63 -16t52 -16q37 0 39 35zM432 307v-307h-89v278q0 45 -25.5 72.5t-69.5 27.5q-50 0 -104 -52v-326h-89v449h87v-54q53 63 126 63q69 0 116.5 -41.5
t47.5 -109.5z" />
    <glyph glyph-name="ograve" unicode="&#xf2;" horiz-adv-x="540" 
d="M265 654l67 -147h-55l-112 147h100zM510 225q0 -105 -67.5 -169.5t-172.5 -64.5t-172.5 64.5t-67.5 169.5q0 104 67.5 168.5t172.5 64.5t172.5 -64.5t67.5 -168.5zM419 225q0 66 -41 109.5t-108 43.5t-108 -43t-41 -110t41 -110.5t108 -43.5q66 0 107.5 43.5t41.5 110.5z
" />
    <glyph glyph-name="oacute" unicode="&#xf3;" horiz-adv-x="540" 
d="M287 654h100l-112 -147h-55zM510 225q0 -105 -67.5 -169.5t-172.5 -64.5t-172.5 64.5t-67.5 169.5q0 104 67.5 168.5t172.5 64.5t172.5 -64.5t67.5 -168.5zM419 225q0 66 -41 109.5t-108 43.5t-108 -43t-41 -110t41 -110.5t108 -43.5q66 0 107.5 43.5t41.5 110.5z" />
    <glyph glyph-name="ocircumflex" unicode="&#xf4;" horiz-adv-x="540" 
d="M315 654l104 -140h-55l-97 76l-90 -76h-53l98 140h93zM510 225q0 -105 -67.5 -169.5t-172.5 -64.5t-172.5 64.5t-67.5 169.5q0 104 67.5 168.5t172.5 64.5t172.5 -64.5t67.5 -168.5zM419 225q0 66 -41 109.5t-108 43.5t-108 -43t-41 -110t41 -110.5t108 -43.5
q66 0 107.5 43.5t41.5 110.5z" />
    <glyph glyph-name="otilde" unicode="&#xf5;" horiz-adv-x="540" 
d="M365 637h46q0 -44 -20 -73.5t-61 -29.5q-26 0 -63.5 16t-52.5 16q-37 0 -39 -35h-46v4q-1 41 20 70t61 29q26 0 63.5 -16t52.5 -16q37 0 39 35zM510 225q0 -105 -67.5 -169.5t-172.5 -64.5t-172.5 64.5t-67.5 169.5q0 104 67.5 168.5t172.5 64.5t172.5 -64.5t67.5 -168.5
zM419 225q0 66 -41 109.5t-108 43.5t-108 -43t-41 -110t41 -110.5t108 -43.5q66 0 107.5 43.5t41.5 110.5z" />
    <glyph glyph-name="odieresis" unicode="&#xf6;" horiz-adv-x="540" 
d="M410 582q0 -20 -13.5 -33.5t-32.5 -13.5q-20 0 -33.5 13.5t-13.5 33.5q0 19 14 32.5t33 13.5t32.5 -13.5t13.5 -32.5zM224 582q0 -19 -13.5 -33t-32.5 -14q-20 0 -33.5 13.5t-13.5 33.5q0 19 14 32.5t33 13.5t32.5 -13.5t13.5 -32.5zM510 225q0 -105 -67.5 -169.5
t-172.5 -64.5t-172.5 64.5t-67.5 169.5q0 104 67.5 168.5t172.5 64.5t172.5 -64.5t67.5 -168.5zM419 225q0 66 -41 109.5t-108 43.5t-108 -43t-41 -110t41 -110.5t108 -43.5q66 0 107.5 43.5t41.5 110.5z" />
    <glyph glyph-name="divide" unicode="&#xf7;" 
d="M330 517q0 -25 -17.5 -42.5t-42.5 -17.5t-42.5 17.5t-17.5 42.5t17.5 42.5t42.5 17.5t42.5 -17.5t17.5 -42.5zM509 394v-82h-472v82h472zM330 190q0 -25 -17.5 -42.5t-42.5 -17.5t-42.5 17.5t-17.5 42.5t17.5 42.5t42.5 17.5t42.5 -17.5t17.5 -42.5z" />
    <glyph glyph-name="oslash" unicode="&#xf8;" horiz-adv-x="540" 
d="M510 225q0 -105 -67.5 -169.5t-172.5 -64.5q-81 0 -139 37l-55 -65l-33 30l54 63q-67 67 -67 169q0 104 67.5 168.5t172.5 64.5q81 0 139 -38l45 53l33 -30l-43 -50q66 -67 66 -168zM419 225q0 59 -34 102l-199 -232q35 -24 84 -24q66 0 107.5 43.5t41.5 110.5zM156 121
l199 233q-35 24 -85 24q-67 0 -108 -43t-41 -110q0 -62 35 -104z" />
    <glyph glyph-name="ugrave" unicode="&#xf9;" horiz-adv-x="487" 
d="M241 654l67 -147h-55l-112 147h100zM432 449v-449h-87v50q-50 -59 -133 -59q-69 0 -113 41.5t-44 110.5v306h89v-278q0 -45 24 -72.5t69 -27.5q52 0 106 52v326h89z" />
    <glyph glyph-name="uacute" unicode="&#xfa;" horiz-adv-x="487" 
d="M257 654h100l-112 -147h-55zM432 449v-449h-87v50q-50 -59 -133 -59q-69 0 -113 41.5t-44 110.5v306h89v-278q0 -45 24 -72.5t69 -27.5q52 0 106 52v326h89z" />
    <glyph glyph-name="ucircumflex" unicode="&#xfb;" horiz-adv-x="487" 
d="M291 654l103 -140h-54l-97 76l-90 -76h-53l98 140h93zM432 449v-449h-87v50q-50 -59 -133 -59q-69 0 -113 41.5t-44 110.5v306h89v-278q0 -45 24 -72.5t69 -27.5q52 0 106 52v326h89z" />
    <glyph glyph-name="udieresis" unicode="&#xfc;" horiz-adv-x="487" 
d="M386 582q0 -20 -14 -33.5t-33 -13.5t-32.5 13.5t-13.5 33.5q0 19 13.5 32.5t32.5 13.5t33 -13.5t14 -32.5zM200 582q0 -20 -14 -33.5t-33 -13.5t-33 13.5t-14 33.5q0 19 14 32.5t33 13.5t33 -13.5t14 -32.5zM432 449v-449h-87v50q-50 -59 -133 -59q-69 0 -113 41.5
t-44 110.5v306h89v-278q0 -45 24 -72.5t69 -27.5q52 0 106 52v326h89z" />
    <glyph glyph-name="yacute" unicode="&#xfd;" horiz-adv-x="488" 
d="M253 654h100l-112 -147h-55zM388 449h90l-287 -679h-90l96 231l-187 448h96l140 -340h4z" />
    <glyph glyph-name="thorn" unicode="&#xfe;" horiz-adv-x="492" 
d="M462 215q0 -90 -58.5 -157t-147.5 -67q-64 0 -112 24v-245h-89v912h89v-233h61q119 0 188 -58.5t69 -175.5zM371 226q0 67 -41 107t-108 40h-78v-277q47 -25 93 -25q62 0 98 46t36 109z" />
    <glyph glyph-name="ydieresis" unicode="&#xff;" horiz-adv-x="488" 
d="M379 582q0 -20 -13.5 -33.5t-33.5 -13.5q-19 0 -32.5 14t-13.5 33t13.5 32.5t32.5 13.5t33 -13.5t14 -32.5zM193 582q0 -20 -13.5 -33.5t-33.5 -13.5q-19 0 -32.5 14t-13.5 33t13.5 32.5t32.5 13.5t33 -13.5t14 -32.5zM388 449h90l-287 -679h-90l96 231l-187 448h96
l140 -340h4z" />
    <glyph glyph-name="dotlessi" unicode="&#x131;" horiz-adv-x="199" 
d="M144 449v-449h-89v449h89z" />
    <glyph glyph-name="Lslash" unicode="&#x141;" horiz-adv-x="478" 
d="M468 85v-85h-380v240l-88 -70v108l88 70v334h98v-256l138 110v-108l-138 -110v-233h282z" />
    <glyph glyph-name="lslash" unicode="&#x142;" horiz-adv-x="247" 
d="M247 482v-78l-79 -61v-343h-89v273l-79 -61v78l79 61v331h89v-261z" />
    <glyph glyph-name="OE" unicode="&#x152;" horiz-adv-x="909" 
d="M879 85v-85h-442q-99 0 -179 31q-100 39 -159 121.5t-59 188.5q0 87 38 157q50 95 146 139.5t213 44.5h433v-85h-281v-204h255v-84h-255v-224h290zM415 85h76v512h-76q-112 0 -193 -72.5t-81 -183.5q0 -109 81.5 -182.5t192.5 -73.5z" />
    <glyph glyph-name="oe" unicode="&#x153;" horiz-adv-x="851" 
d="M821 205h-318q7 -62 47 -98t103 -36q79 0 158 42v-84q-68 -38 -168 -38q-121 0 -183 85q-66 -85 -190 -85q-105 0 -172.5 64.5t-67.5 169.5q0 104 67.5 168.5t172.5 64.5q121 0 188 -81q56 81 164 81q47 0 82 -13.5t57 -36t36 -55.5t19 -68.5t5 -79.5zM505 267h226
q-1 46 -34 78.5t-79 32.5q-79 0 -106 -75q-7 -19 -7 -36zM419 225q0 66 -41 109.5t-108 43.5t-108 -43t-41 -110t41 -110.5t108 -43.5q66 0 107.5 43.5t41.5 110.5z" />
    <glyph glyph-name="Scaron" unicode="&#x160;" horiz-adv-x="505" 
d="M329 867h55l-104 -140h-93l-98 140h53l90 -76zM465 180q0 -94 -68.5 -141.5t-166.5 -47.5q-136 0 -200 50l45 86q57 -46 146 -46q32 0 63 7.5t57 29.5t26 55q0 22 -10 40.5t-30 33t-35 23t-39 19.5l-87 41q-125 59 -125 179q0 88 64 135t155 47q101 0 165 -41l-30 -83
q-53 34 -135 34q-47 0 -84 -22t-37 -67q0 -39 33.5 -68t81.5 -50t96 -45t81.5 -67t33.5 -102z" />
    <glyph glyph-name="scaron" unicode="&#x161;" horiz-adv-x="383" 
d="M282 654h54l-103 -140h-93l-98 140h53l90 -76zM363 126q0 -48 -30 -80t-70 -43.5t-87 -11.5q-90 0 -156 33l33 75q61 -29 128 -29q90 0 90 54q0 18 -18 31t-44.5 21t-57.5 20.5t-57.5 27t-44.5 42.5t-18 66q0 62 50.5 94t117.5 32q63 0 112 -15q7 -2 19.5 -7t16.5 -6
l-30 -74q-52 24 -120 24q-30 0 -52 -11.5t-22 -37.5q0 -34 59 -55l56 -19q125 -44 125 -131z" />
    <glyph glyph-name="Ydieresis" unicode="&#x178;" horiz-adv-x="585" 
d="M412 801q0 -19 -14 -32.5t-33 -13.5t-33 13.5t-14 32.5t14 33t33 14t33 -14t14 -33zM226 801q0 -19 -14 -32.5t-33 -13.5t-33 13.5t-14 32.5t14 33t33 14t33 -14t14 -33zM481 682h104l-239 -408v-274h-98v275l-248 407h113l184 -316z" />
    <glyph glyph-name="Zcaron" unicode="&#x17d;" horiz-adv-x="594" 
d="M389 867h55l-104 -140h-93l-98 140h53l90 -76zM574 85v-85h-554v17l383 584h-367v81h524v-21l-378 -576h392z" />
    <glyph glyph-name="zcaron" unicode="&#x17e;" horiz-adv-x="425" 
d="M298 654h54l-103 -140h-93l-98 140h53l90 -76zM405 76v-76h-385v14l231 359h-230v76h373v-14l-232 -359h243z" />
    <glyph glyph-name="florin" unicode="&#x192;" 
d="M523 675l-20 -88q-28 14 -59 14q-38 0 -55 -21t-24 -61l-12 -70h103l-14 -69h-101l-75 -427q-13 -71 -48 -108.5t-104 -37.5q-48 0 -91 17l20 88q30 -15 59 -15q36 0 53 20t25 58q5 24 12.5 68t10.5 59l49 278h-90l14 69h88q2 11 6.5 41t7 43.5t9.5 39.5t13.5 38.5t19 31
t27.5 27t36.5 15t48.5 6.5q50 0 91 -16z" />
    <glyph glyph-name="circumflex" unicode="&#x2c6;" horiz-adv-x="375" 
d="M231 654l104 -140h-55l-97 76l-90 -76h-53l98 140h93z" />
    <glyph glyph-name="caron" unicode="&#x2c7;" horiz-adv-x="375" 
d="M282 654h53l-98 -140h-93l-104 140h55l97 -76z" />
    <glyph glyph-name="breve" unicode="&#x2d8;" horiz-adv-x="363" 
d="M255 642h68q-11 -60 -46 -94.5t-94 -34.5t-95.5 34.5t-47.5 94.5h67q9 -32 26.5 -47t50.5 -15q32 0 47 15t24 47z" />
    <glyph glyph-name="dotaccent" unicode="&#x2d9;" horiz-adv-x="173" 
d="M133 581q0 -19 -13.5 -33t-32.5 -14t-33 14t-14 33t14 32.5t33 13.5t32.5 -13.5t13.5 -32.5z" />
    <glyph glyph-name="ring" unicode="&#x2da;" horiz-adv-x="266" 
d="M226 597q0 -38 -27.5 -65.5t-65.5 -27.5t-65.5 27.5t-27.5 65.5t27.5 65.5t65.5 27.5t65.5 -27.5t27.5 -65.5zM188 597q0 23 -16 39t-39 16t-39 -16t-16 -39t16 -39t39 -16t39 16t16 39z" />
    <glyph glyph-name="ogonek" unicode="&#x2db;" horiz-adv-x="254" 
d="M214 -97v-67q-36 -15 -72 -15q-43 0 -72.5 26t-29.5 68q0 49 44 93h67q-12 -14 -23.5 -35t-11.5 -35q0 -20 15.5 -33t35.5 -13q19 0 47 11z" />
    <glyph glyph-name="tilde" unicode="&#x2dc;" horiz-adv-x="393" 
d="M303 654h50q0 -49 -22 -81.5t-68 -32.5q-28 0 -70 17.5t-59 17.5q-40 0 -43 -39h-51v4q-1 46 22.5 78t68.5 32q29 0 70 -17.5t58 -17.5q41 0 44 39z" />
    <glyph glyph-name="hungarumlaut" unicode="&#x2dd;" horiz-adv-x="407" 
d="M267 654h100l-112 -147h-55zM107 654h100l-112 -147h-55z" />
    <glyph glyph-name="endash" unicode="&#x2013;" horiz-adv-x="642" 
d="M578 268v-84h-518v84h518z" />
    <glyph glyph-name="emdash" unicode="&#x2014;" horiz-adv-x="1138" 
d="M1078 268v-84h-1018v84h1018z" />
    <glyph glyph-name="quoteleft" unicode="&#x2018;" horiz-adv-x="208" 
d="M168 522q0 -25 -18 -42.5t-42 -17.5q-32 0 -50 24t-18 56q0 53 35.5 95.5t87.5 53.5v-19q-24 -13 -39 -37.5t-15 -52.5q24 0 41.5 -18t17.5 -42z" />
    <glyph glyph-name="quoteright" unicode="&#x2019;" horiz-adv-x="208" 
d="M168 611q0 -52 -35.5 -94.5t-87.5 -54.5v19q24 13 38.5 38t14.5 52q-24 0 -41 18t-17 42q0 25 17.5 42.5t42.5 17.5q31 0 49.5 -23.5t18.5 -56.5z" />
    <glyph glyph-name="quotesinglbase" unicode="&#x201a;" horiz-adv-x="228" 
d="M178 31q0 -52 -35.5 -94.5t-87.5 -54.5v19q24 13 38.5 38t14.5 52q-24 0 -41 18t-17 42q0 25 17.5 42.5t42.5 17.5q31 0 49.5 -23.5t18.5 -56.5z" />
    <glyph glyph-name="quotedblleft" unicode="&#x201c;" horiz-adv-x="369" 
d="M329 522q0 -25 -17.5 -42.5t-42.5 -17.5q-31 0 -49.5 23.5t-18.5 56.5q0 52 35.5 94.5t87.5 54.5v-19q-24 -14 -38.5 -38.5t-14.5 -52.5q24 0 41 -17.5t17 -41.5zM168 522q0 -25 -18 -42.5t-42 -17.5q-32 0 -50 23.5t-18 56.5q0 52 35.5 94.5t87.5 54.5v-19
q-24 -14 -39 -38.5t-15 -52.5q25 0 42 -17.5t17 -41.5z" />
    <glyph glyph-name="quotedblright" unicode="&#x201d;" horiz-adv-x="427" 
d="M387 611q0 -52 -35.5 -94.5t-87.5 -54.5v19q24 13 38.5 38t14.5 52q-24 0 -41 18t-17 42q0 25 17.5 42.5t42.5 17.5q32 0 50 -23.5t18 -56.5zM168 611q0 -52 -35.5 -94.5t-87.5 -54.5v19q24 13 38.5 38t14.5 52q-24 0 -41 18t-17 42q0 25 17.5 42.5t42.5 17.5
q31 0 49.5 -23.5t18.5 -56.5z" />
    <glyph glyph-name="quotedblbase" unicode="&#x201e;" horiz-adv-x="444" 
d="M394 31q0 -53 -35.5 -95t-87.5 -54v19q25 13 39.5 38t14.5 52q-24 0 -41 18t-17 42q0 25 17.5 42.5t42.5 17.5q31 0 49 -23.5t18 -56.5zM178 31q0 -52 -35.5 -94.5t-87.5 -54.5v19q24 13 38.5 38t14.5 52q-24 0 -41 18t-17 42q0 25 17.5 42.5t42.5 17.5q31 0 49.5 -23.5
t18.5 -56.5z" />
    <glyph glyph-name="dagger" unicode="&#x2020;" horiz-adv-x="507" 
d="M467 433v-77h-75q-3 0 -40 7l-79 12l16 -132q9 -59 9 -67v-334h-89v334q0 12 1.5 22l3.5 23t3 22l17 132l-83 -12q-40 -7 -42 -7h-69v77h69q9 0 22.5 -2.5t19.5 -3.5l83 -12l-17 122q-1 5 -4.5 26t-3.5 35v84h89v-84q0 -7 -9 -61l-16 -122l79 12l18 3.5t22 2.5h75z" />
    <glyph glyph-name="daggerdbl" unicode="&#x2021;" horiz-adv-x="507" 
d="M467 167v-77h-75q-9 0 -22 2.5l-18 3.5l-79 12l16 -122q9 -54 9 -61v-84h-89v84q0 11 1.5 20.5t3.5 20.5t3 20l17 122l-83 -12q-6 -1 -19.5 -3.5t-22.5 -2.5h-69v77h69q2 0 42 -7l83 -12l-25 113l25 114l-83 -12q-40 -7 -42 -7h-69v77h69q9 0 22.5 -2.5t19.5 -3.5l83 -12
l-17 122q-1 5 -4.5 26t-3.5 35v84h89v-84q0 -7 -9 -61l-16 -122q114 18 119 18h75v-77h-75q-3 0 -40 7l-79 12l25 -114l-25 -113l79 12q37 7 40 7h75z" />
    <glyph glyph-name="bullet" unicode="&#x2022;" horiz-adv-x="349" 
d="M289 340q0 -47 -33.5 -81t-81.5 -34q-47 0 -80.5 34t-33.5 81t33.5 80.5t80.5 33.5q48 0 81.5 -33.5t33.5 -80.5z" />
    <glyph glyph-name="ellipsis" unicode="&#x2026;" horiz-adv-x="889" 
d="M839 51q0 -25 -17.5 -42.5t-42.5 -17.5t-42.5 17.5t-17.5 42.5t17.5 42.5t42.5 17.5t42.5 -17.5t17.5 -42.5zM504 51q0 -25 -17.5 -42.5t-42.5 -17.5t-42.5 17.5t-17.5 42.5t17.5 42.5t42.5 17.5t42.5 -17.5t17.5 -42.5zM170 51q0 -25 -17.5 -42.5t-42.5 -17.5
t-42.5 17.5t-17.5 42.5t17.5 42.5t42.5 17.5t42.5 -17.5t17.5 -42.5z" />
    <glyph glyph-name="perthousand" unicode="&#x2030;" horiz-adv-x="1081" 
d="M1041 144q0 -64 -46 -108.5t-110 -44.5t-110 44.5t-46 108.5q0 63 46 108t110 45t110 -45t46 -108zM964 144q0 32 -23 55.5t-56 23.5q-32 0 -55.5 -23.5t-23.5 -55.5q0 -33 23.5 -56t55.5 -23q33 0 56 23t23 56zM352 538q0 -63 -46 -108t-110 -45t-110 45t-46 108
q0 64 46 108.5t110 44.5t110 -44.5t46 -108.5zM275 538q0 33 -23 56t-56 23t-56 -23t-23 -56t23 -56t56 -23t56 23t23 56zM545 691h67l-456 -719h-67zM676 144q0 -64 -46 -108.5t-110 -44.5t-110 44.5t-46 108.5q0 63 46 108t110 45t110 -45t46 -108zM599 144q0 32 -23 55.5
t-56 23.5t-56 -23.5t-23 -55.5q0 -33 23 -56t56 -23t56 23t23 56z" />
    <glyph glyph-name="guilsinglleft" unicode="&#x2039;" horiz-adv-x="315" 
d="M117 225l148 -225h-88l-147 225l146 224h88z" />
    <glyph glyph-name="guilsinglright" unicode="&#x203a;" horiz-adv-x="315" 
d="M139 449l146 -224l-147 -225h-88l148 225l-147 224h88z" />
    <glyph glyph-name="fraction" unicode="&#x2044;" horiz-adv-x="582" 
d="M485 691h67l-455 -718h-67z" />
    <glyph glyph-name="Euro" unicode="&#x20ac;" 
d="M359 227h-170q47 -137 205 -137q15 0 29 2t26.5 6t23 8t20.5 9t15.5 8.5l11.5 7.5l7 4v-101q-57 -34 -142 -34q-240 0 -299 227h-77l35 85h29q-2 24 -2 38q0 7 0.5 19t0.5 18h-63l35 85h42q7 28 17.5 54t33 59t52.5 57t78.5 41t108.5 17q96 0 161 -39l-33 -79
q-47 28 -117 28q-155 0 -198 -138h270l-34 -85h-251q-2 -24 -2 -37q0 -14 2 -38h220z" />
    <glyph glyph-name="trademark" unicode="&#x2122;" horiz-adv-x="695" 
d="M635 682v-291h-45v244h-1l-78 -176h-33l-82 180h-2v-248h-44v291h71l73 -165h2l69 165h70zM297 682v-43h-95v-248h-48v248h-94v43h237z" />
    <glyph glyph-name="minus" unicode="&#x2212;" 
d="M499 394v-82h-452v82h452z" />
    <glyph glyph-name="lessequal" unicode="&#x2264;" horiz-adv-x="1981" 
d="M1344 78q0 -36 -27 -61.5t-63 -25.5q-37 0 -64 25.5t-27 61.5q0 37 27 62.5t64 25.5t63.5 -25.5t26.5 -62.5zM1650 78q0 -36 -27 -61.5t-63 -25.5q-37 0 -63.5 25.5t-26.5 61.5q0 37 26.5 62.5t63.5 25.5t63.5 -25.5t26.5 -62.5zM921 78q0 -38 -26 -61.5t-64 -23.5h-57
v171h57q59 0 82 -48q8 -19 8 -38zM1319 78q0 28 -19 46.5t-46 18.5q-28 0 -46.5 -18.5t-18.5 -46.5q0 -27 18.5 -46t46.5 -19q27 0 46 19t19 46zM1625 78q0 28 -19 46.5t-46 18.5q-28 0 -46.5 -18.5t-18.5 -46.5q0 -27 18.5 -46t46.5 -19q27 0 46 19t19 46zM1812 -7h-29
l-46 74h-31v-74h-24v171h52q24 0 40 -12t16 -36q0 -32 -29 -43l33 -53zM412 164v-171h-22l-102 131v-131h-23v171h21l103 -132v132h23zM896 78q0 30 -19 47t-50 17h-29v-128h29q30 0 49.5 17t19.5 47zM227 164v-105q0 -33 -20.5 -50.5t-53.5 -17.5t-53 17.5t-20 50.5v105h24
v-100q0 -51 49 -51t49 51v100h25zM743 14v-21h-99v171h97v-22h-73v-51h70v-21h-70v-56h75zM1149 22v-24q-21 -7 -49 -7q-60 0 -84 50q-8 18 -8 35q0 40 26.5 65t66.5 25q24 0 48 -8v-25q-25 10 -48 10q-29 0 -48.5 -18t-19.5 -47t19.5 -47t49.5 -18q26 0 47 9zM1932 38
q0 -23 -17 -35t-42 -12q-33 0 -50 13l11 21q15 -12 38 -12q13 0 24 6t11 18q0 15 -26 27l-24 12q-31 15 -31 44q0 22 16 34t39 12q25 0 41 -10l-8 -21q-14 9 -33 9q-31 0 -31 -23q0 -15 21 -25q3 -2 13 -6.5t14.5 -7t12.5 -7.5t11.5 -10t6.5 -12t3 -15zM621 164v-22h-48
v-149h-24v149h-51v22h123zM1471 14v-21h-95v171h24v-150h71zM475 164v-171h-24v171h24zM1765 115q0 28 -34 28h-25v-55h25q34 0 34 27z" />
    <glyph glyph-name="greaterequal" unicode="&#x2265;" horiz-adv-x="1673" 
d="M1619 164v-171h-22l-102 131v-131h-23v171h21l103 -132v132h23zM1441 78q0 -36 -27 -61.5t-64 -25.5q-36 0 -63 25.5t-27 61.5q0 37 26.5 62.5t63.5 25.5t64 -25.5t27 -62.5zM1415 78q0 28 -18.5 46.5t-46.5 18.5q-27 0 -46 -18.5t-19 -46.5q0 -27 19 -46t46 -19
q28 0 46.5 19t18.5 46zM1263 164v-21h-48v-150h-24v150h-50v21h122zM1126 164v-21h-48v-150h-24v150h-50v21h122zM991 14v-21h-99v171h97v-21h-73v-52h70v-21h-70v-56h75zM852 164v-171h-21l-102 131v-131h-23v171h21l102 -132v132h23zM676 14v-21h-99v171h96v-21h-72v-52
h70v-21h-70v-56h75zM550 39q0 -23 -17 -34.5t-41 -11.5h-59v171h56q22 0 37 -11.5t15 -32.5q0 -28 -23 -37v-1q32 -8 32 -43zM516 117q0 26 -31 26h-27v-53h27q31 0 31 27zM525 41q0 28 -35 28h-32v-55h32q35 0 35 27zM343 94v-22h-67v-79h-24v171h91v-21h-67v-49h67z
M220 78q0 -36 -26.5 -61.5t-63.5 -25.5t-63.5 25.5t-26.5 61.5q0 37 26.5 62.5t63.5 25.5t63.5 -25.5t26.5 -62.5zM195 78q0 28 -19 46.5t-46 18.5t-46 -18.5t-19 -46.5q0 -27 19 -46t46 -19t46 19t19 46z" />
    </font>
</defs>
</svg>
